<svg xmlns="http://www.w3.org/2000/svg" viewBox="0 0 139.87 193.58"><defs><style>.cls-1{fill:#ffde43;isolation:isolate;}.cls-2{fill:#ed1c24;}.cls-3{font-size:40px;fill:#fff;font-family:Lato-Bold, Lato;font-weight:700;}</style></defs><title>Artist_group v2</title><g id="ARTIST"><path d="M96.74,40.6a45.94,45.94,0,0,0-39.08,70.09l36.47,83.89a3.82,3.82,0,0,0,3.25,1.81h0a3.85,3.85,0,0,0,3.26-1.86l35.53-84.46A45.94,45.94,0,0,0,96.74,40.6Z" transform="translate(-2.81 -2.81)"/><path class="cls-1" d="M96.74,62.64a27.8,27.8,0,0,1,14.34,3.87A29,29,0,0,1,121.55,77a28.44,28.44,0,0,1,0,28.68,29,29,0,0,1-10.47,10.47,28.5,28.5,0,0,1-28.68,0,29.08,29.08,0,0,1-10.46-10.47,28.44,28.44,0,0,1,0-28.68A29,29,0,0,1,82.4,66.51,27.85,27.85,0,0,1,96.74,62.64Zm0,5.55a22.46,22.46,0,0,0-11.56,3.12,23.31,23.31,0,0,0-8.44,8.44,22.61,22.61,0,0,0-3.13,11.63A21.93,21.93,0,0,0,76.85,103a11,11,0,0,1,2.32-4.39,10.73,10.73,0,0,1,5-3.13,14.51,14.51,0,0,1-2.2-7.75,14.89,14.89,0,0,1,2-7.57,14.32,14.32,0,0,1,5.38-5.38,15.16,15.16,0,0,1,14.91,0,14.32,14.32,0,0,1,5.38,5.38,15.13,15.13,0,0,1-.23,15.32,10.78,10.78,0,0,1,5,3.13,11,11,0,0,1,2.32,4.39,21.92,21.92,0,0,0,3.23-11.62,22.6,22.6,0,0,0-3.12-11.63,23.31,23.31,0,0,0-8.44-8.44A22.47,22.47,0,0,0,96.74,68.19Zm-14.8,40.94a24,24,0,0,0,6.88,3.93,23.29,23.29,0,0,0,15.85,0,24,24,0,0,0,6.88-3.93v-3.24a5.33,5.33,0,0,0-1-3.18,4.91,4.91,0,0,0-2.78-1.91l-2.89-.81a14.7,14.7,0,0,1-16.19,0l-2.89.81A4.91,4.91,0,0,0,83,102.71a5.33,5.33,0,0,0-1,3.18ZM106,87.62a9.29,9.29,0,1,0-2.72,6.53A8.94,8.94,0,0,0,106,87.62Z" transform="translate(-2.81 -2.81)"/></g><g id="GROUP_NUMBER" data-name="GROUP NUMBER"><circle class="cls-2" cx="43.19" cy="43.19" r="43.19"/><text class="cls-3" transform="translate(31.19 56.83)">3</text></g></svg>