<svg id="ARTIST" xmlns="http://www.w3.org/2000/svg" viewBox="0 0 139.87 193.58"><defs><style>.cls-1{fill:#ffde43;isolation:isolate;}</style></defs><title>Artist single v3</title><path d="M93.93,37.78a45.95,45.95,0,0,0-39.08,70.1l36.47,83.89a3.84,3.84,0,0,0,3.25,1.81h0a3.82,3.82,0,0,0,3.25-1.86l35.54-84.46A46,46,0,0,0,93.93,37.78Z"/><path class="cls-1" d="M93.93,59.83a27.8,27.8,0,0,1,14.34,3.87,28.88,28.88,0,0,1,10.47,10.47,28.5,28.5,0,0,1,0,28.68,28.93,28.93,0,0,1-10.47,10.46,28.44,28.44,0,0,1-28.68,0,29,29,0,0,1-10.46-10.46,28.44,28.44,0,0,1,0-28.68A28.93,28.93,0,0,1,79.59,63.7,27.85,27.85,0,0,1,93.93,59.83Zm0,5.55A22.43,22.43,0,0,0,82.37,68.5a23.31,23.31,0,0,0-8.44,8.44A22.48,22.48,0,0,0,70.8,88.56,21.94,21.94,0,0,0,74,100.19a10.4,10.4,0,0,1,7.29-7.52,14.51,14.51,0,0,1-2.2-7.75,14.89,14.89,0,0,1,2-7.57A14.37,14.37,0,0,1,86.47,72a15.11,15.11,0,0,1,14.92,0,14.32,14.32,0,0,1,5.38,5.38,15.13,15.13,0,0,1-.23,15.32,10.41,10.41,0,0,1,7.28,7.52,21.94,21.94,0,0,0,3.24-11.63,22.57,22.57,0,0,0-3.12-11.62,23.39,23.39,0,0,0-8.44-8.44A22.47,22.47,0,0,0,93.93,65.38Zm-14.8,40.94A24.26,24.26,0,0,0,86,110.25a23.26,23.26,0,0,0,15.84,0,24.32,24.32,0,0,0,6.89-3.93v-3.24a5.28,5.28,0,0,0-1-3.18A4.81,4.81,0,0,0,104.92,98L102,97.18a14.7,14.7,0,0,1-16.19,0L83,98a4.83,4.83,0,0,0-2.78,1.91,5.33,5.33,0,0,0-1,3.18Zm24.05-21.51a9.27,9.27,0,1,0-2.71,6.53A8.91,8.91,0,0,0,103.18,84.81Z"/></svg>