<svg id="EVENT" xmlns="http://www.w3.org/2000/svg" viewBox="0 0 140.59 194.08"><defs><style>.cls-1{fill:red;stroke:#fff;stroke-miterlimit:10;isolation:isolate;}.cls-2{fill:#fff;}</style></defs><title>Event single v3</title><path class="cls-1" d="M93.93,37.78a45.95,45.95,0,0,0-39.08,70.1l36.47,83.89a3.84,3.84,0,0,0,3.25,1.81h0a3.82,3.82,0,0,0,3.25-1.86l35.54-84.46A46,46,0,0,0,93.93,37.78Z"/><path class="cls-2" d="M119.55,112.39a5.41,5.41,0,0,1-5.43,5.44H74.24a5.43,5.43,0,0,1-5.44-5.44V72.51a5.41,5.41,0,0,1,5.44-5.43h5.44V61.19A1.33,1.33,0,0,1,81,59.83h4.53a1.35,1.35,0,0,1,1.36,1.36v5.89h14.5V61.19a1.35,1.35,0,0,1,1.36-1.36h4.53a1.35,1.35,0,0,1,1.36,1.36v5.89h5.44a5.39,5.39,0,0,1,5.43,5.43ZM114.12,78H74.24v33.76a.82.82,0,0,0,.68.68h38.52a.82.82,0,0,0,.68-.68ZM81,92.45a1.33,1.33,0,0,1-1.36-1.36V86.56A1.35,1.35,0,0,1,81,85.2h4.53a1.37,1.37,0,0,1,1.36,1.36v4.53a1.35,1.35,0,0,1-1.36,1.36Zm5.89,5a1.35,1.35,0,0,0-1.36-1.36H81a1.33,1.33,0,0,0-1.36,1.36V102a1.32,1.32,0,0,0,.39,1,1.35,1.35,0,0,0,1,.4h4.53a1.31,1.31,0,0,0,1-.4,1.29,1.29,0,0,0,.4-1ZM97.8,86.56a1.35,1.35,0,0,0-1.36-1.36H91.91a1.29,1.29,0,0,0-1,.4,1.31,1.31,0,0,0-.4,1v4.53a1.35,1.35,0,0,0,.4,1,1.32,1.32,0,0,0,1,.39h4.53a1.33,1.33,0,0,0,1.36-1.36Zm0,10.88a1.33,1.33,0,0,0-1.36-1.36H91.91a1.32,1.32,0,0,0-1,.39,1.35,1.35,0,0,0-.4,1V102a1.37,1.37,0,0,0,1.36,1.36h4.53a1.35,1.35,0,0,0,1-.4,1.32,1.32,0,0,0,.39-1Zm10.88-10.88a1.37,1.37,0,0,0-1.36-1.36h-4.53a1.37,1.37,0,0,0-1.36,1.36v4.53a1.35,1.35,0,0,0,1.36,1.36h4.53a1.35,1.35,0,0,0,1.36-1.36Zm0,10.88a1.35,1.35,0,0,0-1.36-1.36h-4.53a1.35,1.35,0,0,0-1.36,1.36V102a1.29,1.29,0,0,0,.4,1,1.31,1.31,0,0,0,1,.4h4.53a1.31,1.31,0,0,0,1-.4,1.29,1.29,0,0,0,.4-1Z"/></svg>