<svg xmlns="http://www.w3.org/2000/svg" viewBox="0 0 140.37 194.08"><defs><style>.cls-1{fill:red;stroke:#fff;stroke-miterlimit:10;isolation:isolate;}.cls-2,.cls-4{fill:#fff;}.cls-3{fill:#ed1c24;}.cls-4{font-size:40px;font-family:Lato-Bold, Lato;font-weight:700;}</style></defs><title>event 12</title><g id="EVENT"><path class="cls-1" d="M96.74,40.6a45.94,45.94,0,0,0-39.08,70.09l36.47,83.89a3.82,3.82,0,0,0,3.25,1.81h0a3.85,3.85,0,0,0,3.26-1.86l35.53-84.46A45.94,45.94,0,0,0,96.74,40.6Z" transform="translate(-2.81 -2.81)"/><path class="cls-2" d="M122.37,115.2a5.43,5.43,0,0,1-5.44,5.44H77.05a5.43,5.43,0,0,1-5.44-5.44V75.33a5.41,5.41,0,0,1,5.44-5.44h5.44V64a1.35,1.35,0,0,1,1.36-1.36h4.53A1.35,1.35,0,0,1,89.74,64v5.89h14.5V64a1.35,1.35,0,0,1,1.36-1.36h4.53A1.35,1.35,0,0,1,111.49,64v5.89h5.44a5.41,5.41,0,0,1,5.44,5.44Zm-5.44-34.44H77.05v33.76a.68.68,0,0,0,.23.46.64.64,0,0,0,.45.22h38.52a.64.64,0,0,0,.45-.22.68.68,0,0,0,.23-.46ZM83.85,95.26a1.35,1.35,0,0,1-1.36-1.36V89.37a1.29,1.29,0,0,1,.4-1,1.31,1.31,0,0,1,1-.4h4.53a1.31,1.31,0,0,1,1,.4,1.29,1.29,0,0,1,.4,1V93.9a1.35,1.35,0,0,1-1.36,1.36Zm5.89,5a1.37,1.37,0,0,0-1.36-1.36H83.85a1.37,1.37,0,0,0-1.36,1.36v4.53a1.37,1.37,0,0,0,1.36,1.36h4.53a1.37,1.37,0,0,0,1.36-1.36Zm10.88-10.88A1.37,1.37,0,0,0,99.26,88H94.72a1.35,1.35,0,0,0-1,.4,1.32,1.32,0,0,0-.39,1V93.9a1.33,1.33,0,0,0,1.35,1.36h4.54a1.32,1.32,0,0,0,1-.39,1.35,1.35,0,0,0,.4-1Zm0,10.88a1.31,1.31,0,0,0-.4-1,1.29,1.29,0,0,0-1-.4H94.72a1.35,1.35,0,0,0-1.35,1.36v4.53a1.35,1.35,0,0,0,1.35,1.36h4.54a1.29,1.29,0,0,0,1-.4,1.31,1.31,0,0,0,.4-1Zm10.87-10.88a1.29,1.29,0,0,0-.4-1,1.31,1.31,0,0,0-1-.4H105.6a1.31,1.31,0,0,0-1,.4,1.29,1.29,0,0,0-.4,1V93.9a1.35,1.35,0,0,0,1.36,1.36h4.53a1.35,1.35,0,0,0,1.36-1.36Zm0,10.88a1.37,1.37,0,0,0-1.36-1.36H105.6a1.37,1.37,0,0,0-1.36,1.36v4.53a1.37,1.37,0,0,0,1.36,1.36h4.53a1.37,1.37,0,0,0,1.36-1.36Z" transform="translate(-2.81 -2.81)"/></g><g id="GROUP_NUMBER" data-name="GROUP NUMBER"><circle class="cls-3" cx="43.19" cy="43.19" r="43.19"/><text class="cls-4" transform="translate(19.59 56.83)">12</text></g></svg>