<svg id="INDUSTRY" xmlns="http://www.w3.org/2000/svg" viewBox="0 0 140.59 194.08"><defs><style>.cls-1{fill:#a3a3a3;stroke:#000;stroke-miterlimit:10;isolation:isolate;}</style></defs><title>Industry single v3</title><path class="cls-1" d="M93.93,37.78a45.95,45.95,0,0,0-39.08,70.1l36.47,83.89a3.84,3.84,0,0,0,3.25,1.81h0a3.82,3.82,0,0,0,3.25-1.86l35.54-84.46A46,46,0,0,0,93.93,37.78Z"/><path d="M121.73,75.48a1,1,0,0,1-.92.92h-2.76v1.37a1.34,1.34,0,0,1-.4,1,1.31,1.31,0,0,1-1,.4h-45a1.31,1.31,0,0,1-1-.4,1.34,1.34,0,0,1-.4-1V76.4H67.55a1,1,0,0,1-.92-.92V73.64a.81.81,0,0,1,.58-.8l26.62-10.1a.56.56,0,0,1,.69,0l26.63,10.1a.82.82,0,0,1,.58.8ZM69.39,108.53a2.77,2.77,0,0,0-2.76,2.76v1.83a.88.88,0,0,0,.29.63.84.84,0,0,0,.63.29h53.26a.84.84,0,0,0,.63-.29.88.88,0,0,0,.29-.63v-1.83a2.77,2.77,0,0,0-2.76-2.76ZM75.81,103H71.68a1.35,1.35,0,0,0-1,.4,1.34,1.34,0,0,0-.4,1v2.3h47.74v-2.3a1.34,1.34,0,0,0-.4-1,1.35,1.35,0,0,0-1-.4h-4.14V81H105.2v22H97.85V81H90.51v22H83.16V81H75.81Z"/></svg>