<svg xmlns="http://www.w3.org/2000/svg" viewBox="0 0 140.37 194.08"><defs><style>.cls-1{fill:#a3a3a3;stroke:#000;stroke-miterlimit:10;isolation:isolate;}.cls-2{fill:#ed1c24;}.cls-3{font-size:40px;fill:#fff;font-family:Lato-Bold, Lato;font-weight:700;}</style></defs><title>industry 13</title><g id="INDUSTRY"><path class="cls-1" d="M96.74,40.6a45.94,45.94,0,0,0-39.08,70.09l36.47,83.89a3.82,3.82,0,0,0,3.25,1.81h0a3.85,3.85,0,0,0,3.26-1.86l35.53-84.46A45.94,45.94,0,0,0,96.74,40.6Z" transform="translate(-2.81 -2.81)"/><path d="M124.54,78.29a1,1,0,0,1-.92.92h-2.75v1.37a1.33,1.33,0,0,1-.41,1,1.3,1.3,0,0,1-1,.4h-45a1.37,1.37,0,0,1-1.38-1.38V79.21H70.36a1,1,0,0,1-.92-.92V76.45a.82.82,0,0,1,.58-.8l26.63-10.1a.59.59,0,0,1,.69,0L124,75.65a.81.81,0,0,1,.58.8ZM72.2,111.34a2.77,2.77,0,0,0-2.76,2.76v1.84a.88.88,0,0,0,.29.63.87.87,0,0,0,.63.28h53.26a.87.87,0,0,0,.63-.28.88.88,0,0,0,.29-.63V114.1a2.77,2.77,0,0,0-2.76-2.76Zm6.43-5.5H74.5a1.32,1.32,0,0,0-1,.4,1.3,1.3,0,0,0-.4,1v2.3h47.75v-2.3a1.38,1.38,0,0,0-1.38-1.37h-4.13v-22H108v22h-7.35v-22H93.32v22H86v-22H78.63Z" transform="translate(-2.81 -2.81)"/></g><g id="GROUP_NUMBER" data-name="GROUP NUMBER"><circle class="cls-2" cx="43.19" cy="43.19" r="43.19"/><text class="cls-3" transform="translate(19.59 56.83)">13</text></g></svg>