<svg id="JOB" xmlns="http://www.w3.org/2000/svg" viewBox="0 0 140.59 194.08"><defs><style>.cls-1{fill:#6b6b6b;stroke:#000;stroke-miterlimit:10;isolation:isolate;}.cls-2{fill:#ffde43;}</style></defs><title>Job single v3</title><path class="cls-1" d="M93.93,37.78a45.95,45.95,0,0,0-39.08,70.1l36.47,83.89a3.84,3.84,0,0,0,3.25,1.81h0a3.82,3.82,0,0,0,3.25-1.86l35.54-84.46A46,46,0,0,0,93.93,37.78Z"/><path class="cls-2" d="M124.68,88.4h-60V75.55A5.37,5.37,0,0,1,70,70.19H81.83V64.84A3.22,3.22,0,0,1,85,61.62h19.28a3.22,3.22,0,0,1,3.22,3.22v5.35h11.78a5.37,5.37,0,0,1,5.36,5.36Zm0,19.29a5.37,5.37,0,0,1-5.36,5.35H70a5.37,5.37,0,0,1-5.35-5.35V91.62H87.18V97a2.17,2.17,0,0,0,2.15,2.15H100A2.16,2.16,0,0,0,102.18,97V91.62h22.5Zm-21.43-37.5V65.91H86.11v4.28ZM99,95.9H90.4V91.62H99Z"/></svg>