<svg xmlns="http://www.w3.org/2000/svg" viewBox="0 0 140.37 194.08"><defs><style>.cls-1{fill:#6b6b6b;stroke:#000;stroke-miterlimit:10;isolation:isolate;}.cls-2{fill:#ffde43;}.cls-3{fill:#ed1c24;}.cls-4{font-size:40px;fill:#fff;font-family:Lato-Bold, Lato;font-weight:700;}</style></defs><title>job_group v2</title><g id="JOB"><path class="cls-1" d="M96.74,40.6a45.94,45.94,0,0,0-39.08,70.09l36.47,83.89a3.82,3.82,0,0,0,3.25,1.81h0a3.85,3.85,0,0,0,3.26-1.86l35.53-84.46A45.94,45.94,0,0,0,96.74,40.6Z" transform="translate(-2.81 -2.81)"/><path class="cls-2" d="M127.49,91.21h-60V78.36A5.37,5.37,0,0,1,72.86,73H84.64V67.65a3.22,3.22,0,0,1,3.21-3.22h19.29a3.22,3.22,0,0,1,3.21,3.22V73h11.78a5.37,5.37,0,0,1,5.36,5.36Zm0,19.29a5.37,5.37,0,0,1-5.36,5.35H72.86a5.37,5.37,0,0,1-5.36-5.35V94.43H90v5.35a2.16,2.16,0,0,0,2.14,2.15h10.71A2.16,2.16,0,0,0,105,99.78V94.43h22.5ZM106.06,73V68.72H88.92V73Zm-4.28,25.71H93.21V94.43h8.57Z" transform="translate(-2.81 -2.81)"/></g><g id="GROUP_NUMBER" data-name="GROUP NUMBER"><circle class="cls-3" cx="43.19" cy="43.19" r="43.19"/><text class="cls-4" transform="translate(31.19 56.83)">3</text></g></svg>