<?xml version="1.0" standalone="no"?>
<!DOCTYPE svg PUBLIC "-//W3C//DTD SVG 1.1//EN" "http://www.w3.org/Graphics/SVG/1.1/DTD/svg11.dtd" >
<svg xmlns="http://www.w3.org/2000/svg" xmlns:xlink="http://www.w3.org/1999/xlink" version="1.1">
<metadata>
Created by FontForge 20170731 at Sat Feb 16 02:58:02 2008
 By ,,,
Copyright (c) 2008 by Kris Sowersby / KLIM. All rights reserved.
</metadata>
<defs>
<font id="Newzald-Black" horiz-adv-x="580" >
  <font-face 
    font-family="Newzald Black"
    font-weight="700"
    font-stretch="normal"
    units-per-em="1000"
    panose-1="2 0 5 4 0 0 0 2 0 4"
    ascent="800"
    descent="-200"
    x-height="436"
    cap-height="588"
    bbox="-190 -272 1326 968.492"
    underline-thickness="50"
    underline-position="-200"
    unicode-range="U+0020-FB06"
  />
<missing-glyph horiz-adv-x="262" 
 />
    <glyph glyph-name="f_b" unicode="fb" horiz-adv-x="890" 
d="M381 21v484q-49 15 -49 68q0 47 33 64q-30 6 -39 6q-88 0 -88 -153v-54h82l-8 -55h-74v-333l52 -19l-13 -29h-236v28l37 19v334h-63v43l63 16v23q0 224 232 224q80 0 119 -34l86 28h26v-295h4q39 60 134 60q81 0 131 -55t50 -157q0 -69 -25.5 -119t-68.5 -75.5t-89.5 -37
t-98.5 -11.5q-115 0 -197 30zM541 346v-293q23 -10 47 -10q47 0 78 41.5t31 126.5q0 76 -31 107.5t-87 31.5q-27 0 -38 -4z" />
    <glyph glyph-name="f_f_b" unicode="ffb" horiz-adv-x="1193" 
d="M684 505q-49 15 -49 68q0 47 33 64q-30 6 -39 6q-88 0 -88 -153v-54h82l-8 -55h-74v-333l52 -19l-13 -29h-236v28l37 19v334h-143v-333l52 -19l-13 -29h-236v28l37 19v334h-63v43l63 16v17q0 113 65 166.5t176 53.5q83 0 130 -38q59 48 164 48q80 0 119 -34l86 28h26
v-295h4q39 60 134 60q81 0 131 -55t50 -157q0 -69 -25.5 -119t-68.5 -75.5t-89.5 -37t-98.5 -11.5q-115 0 -197 30v484zM844 346v-293q23 -10 47 -10q47 0 78 41.5t31 126.5q0 76 -31 107.5t-87 31.5q-27 0 -38 -4zM381 463q0 26 2 38q-39 17 -39 64q0 39 26 58l-8 4
t-16 5.5t-26 2.5q-82 0 -82 -151v-48h143v27z" />
    <glyph glyph-name="f_f_h" unicode="ffh" horiz-adv-x="1198" 
d="M684 47v458q-49 15 -49 68q0 47 33 64q-30 6 -39 6q-88 0 -88 -153v-54h82l-8 -55h-74v-333l52 -19l-13 -29h-236v28l37 19v334h-143v-333l52 -19l-13 -29h-236v28l37 19v334h-63v43l63 16v17q0 113 65 166.5t176 53.5q83 0 130 -38q59 48 164 48q80 0 119 -34l86 28h26
v-324h4q49 89 150 89q60 0 99.5 -38.5t39.5 -125.5v-234l51 -19l-13 -29h-235v28l37 19v200q0 44 -18.5 69t-50.5 25q-34 0 -64 -30v-263l51 -19l-13 -29h-235v28zM381 463q0 26 2 38q-39 17 -39 64q0 39 26 58l-8 4t-16 5.5t-26 2.5q-82 0 -82 -151v-48h143v27z" />
    <glyph glyph-name="f_f_j" unicode="ffj" horiz-adv-x="897" 
d="M684 -73v454h-143v-333l52 -19l-13 -29h-236v28l37 19v334h-143v-333l52 -19l-13 -29h-236v28l37 19v334h-63v43l63 16v17q0 113 65 166.5t176 53.5q87 0 134 -41q63 51 178 51q71 0 116.5 -24.5t45.5 -78.5q0 -35 -22 -57.5t-56 -22.5q-33 0 -53.5 18.5t-20.5 51.5
q0 53 41 68q-24 6 -39 6q-102 0 -102 -165v-47h209l68 10h26v-496q0 -83 -58.5 -126t-167.5 -43q-123 0 -123 84q0 33 21 52.5t54 19.5t49.5 -21.5t16.5 -51.5q0 -27 -15 -48q63 0 63 111zM381 456q0 31 2 45q-39 15 -39 64q0 39 26 58l-8 4t-16 5.5t-26 2.5q-82 0 -82 -151
v-48h143v20z" />
    <glyph glyph-name="f_f_k" unicode="ffk" horiz-adv-x="1181" 
d="M684 47v458q-49 15 -49 68q0 47 33 64q-30 6 -39 6q-88 0 -88 -153v-54h82l-8 -55h-74v-333l52 -19l-13 -29h-236v28l37 19v334h-143v-333l52 -19l-13 -29h-236v28l37 19v334h-63v43l63 16v17q0 113 65 166.5t176 53.5q83 0 130 -38q59 48 164 48q80 0 119 -34l86 28h26
v-418l52 8l102 100l-66 28l6 37h217l8 -34l-60 -15l-98 -92l135 -246l56 -21l-12 -28h-197l-112 215h-31v-167l52 -19l-13 -29h-236v28zM381 463q0 26 2 38q-39 17 -39 64q0 39 26 58l-8 4t-16 5.5t-26 2.5q-82 0 -82 -151v-48h143v27z" />
    <glyph glyph-name="f_h" unicode="fh" horiz-adv-x="895" 
d="M381 47v458q-49 15 -49 68q0 47 33 64q-30 6 -39 6q-88 0 -88 -153v-54h82l-8 -55h-74v-333l52 -19l-13 -29h-236v28l37 19v334h-63v43l63 16v23q0 224 232 224q80 0 119 -34l86 28h26v-324h4q49 89 150 89q60 0 99.5 -38.5t39.5 -125.5v-234l51 -19l-13 -29h-235v28
l37 19v200q0 44 -18.5 69t-50.5 25q-34 0 -64 -30v-263l51 -19l-13 -29h-235v28z" />
    <glyph glyph-name="f_j" unicode="fj" horiz-adv-x="594" 
d="M381 -73v454h-143v-333l52 -19l-13 -29h-236v28l37 19v334h-73v42l73 16v17q0 67 21.5 114.5t59 71.5t78.5 34.5t91 10.5q71 0 116.5 -24.5t45.5 -78.5q0 -35 -22 -57.5t-56 -22.5q-33 0 -53.5 18.5t-20.5 51.5q0 53 41 68q-24 6 -39 6q-102 0 -102 -165v-47h209l68 10
h26v-496q0 -83 -58.5 -126t-167.5 -43q-123 0 -123 84q0 33 21 52.5t54 19.5t49.5 -21.5t16.5 -51.5q0 -27 -15 -48q63 0 63 111z" />
    <glyph glyph-name="f_k" unicode="fk" horiz-adv-x="878" 
d="M381 47v458q-49 15 -49 68q0 47 33 64q-30 6 -39 6q-88 0 -88 -153v-54h82l-8 -55h-74v-333l52 -19l-13 -29h-236v28l37 19v334h-63v43l63 16v23q0 224 232 224q80 0 119 -34l86 28h26v-418l52 8l102 100l-66 28l6 37h217l8 -34l-60 -15l-98 -92l135 -246l56 -21l-12 -28
h-197l-112 215h-31v-167l52 -19l-13 -29h-236v28z" />
    <glyph glyph-name="ff" unicode="ff" horiz-adv-x="654" 
d="M381 47v334h-143v-333l52 -19l-13 -29h-236v28l37 19v334h-63v43l63 16v17q0 113 65 166.5t176 53.5q83 0 130 -39q63 49 172 49q64 0 98.5 -24t34.5 -71q0 -29 -20 -49.5t-50 -20.5q-32 0 -50.5 19.5t-18.5 49.5q0 39 26 58q-13 3 -22 3q-40 0 -59 -41t-19 -103v-72h122
l-8 -55h-114v-330l82 -20l-13 -31h-266v28zM381 483q0 13 1 19q-38 15 -38 63q0 39 26 58l-8 4t-16 5.5t-26 2.5q-82 0 -82 -151v-48h143v47z" />
    <glyph glyph-name="ffi" unicode="ffi" horiz-adv-x="915" 
d="M684 47v334h-143v-333l52 -19l-13 -29h-236v28l37 19v334h-143v-333l52 -19l-13 -29h-236v28l37 19v334h-63v43l63 16v17q0 113 65 166.5t176 53.5q87 0 134 -41q63 51 178 51q71 0 116.5 -24.5t45.5 -78.5q0 -35 -22 -57.5t-56 -22.5q-33 0 -53.5 18.5t-20.5 51.5
q0 53 41 68q-24 6 -39 6q-102 0 -102 -165v-47h209l68 10h26v-398l52 -19l-13 -29h-236v28zM381 456q0 31 2 45q-39 15 -39 64q0 39 26 58l-8 4t-16 5.5t-26 2.5q-82 0 -82 -151v-48h143v20z" />
    <glyph glyph-name="ffl" unicode="ffl" horiz-adv-x="911" 
d="M78 47v334h-63v43l63 16v17q0 113 65 166.5t176 53.5q83 0 130 -38q59 48 164 48q80 0 119 -34l86 28h26v-633l52 -19l-13 -29h-236v28l37 19v458q-49 15 -49 68q0 47 33 64q-30 6 -39 6q-88 0 -88 -153v-54h82l-8 -55h-74v-333l52 -19l-13 -29h-236v28l37 19v334h-143
v-333l52 -19l-13 -29h-236v28zM381 463q0 26 2 38q-39 17 -39 64q0 39 26 58l-8 4t-16 5.5t-26 2.5q-82 0 -82 -151v-48h143v27z" />
    <glyph glyph-name="fi" unicode="fi" horiz-adv-x="612" 
d="M541 48l52 -19l-13 -29h-236v28l37 19v334h-143v-333l52 -19l-13 -29h-236v28l37 19v334h-73v42l73 16v17q0 67 21.5 114.5t59 71.5t78.5 34.5t91 10.5q71 0 116.5 -24.5t45.5 -78.5q0 -35 -22 -57.5t-56 -22.5q-33 0 -53.5 18.5t-20.5 51.5q0 53 41 68q-24 6 -39 6
q-102 0 -102 -165v-47h209l68 10h26v-398z" />
    <glyph glyph-name="fl" unicode="fl" horiz-adv-x="608" 
d="M238 48l52 -19l-13 -29h-236v28l37 19v334h-63v43l63 16v23q0 224 232 224q80 0 119 -34l86 28h26v-633l52 -19l-13 -29h-236v28l37 19v458q-49 15 -49 68q0 47 33 64q-30 6 -39 6q-88 0 -88 -153v-54h82l-8 -55h-74v-333z" />
    <glyph glyph-name=".notdef" horiz-adv-x="262" 
 />
    <glyph glyph-name=".null" horiz-adv-x="0" 
 />
    <glyph glyph-name="nonmarkingreturn" horiz-adv-x="333" 
 />
    <glyph glyph-name="space" unicode=" " horiz-adv-x="180" 
 />
    <glyph glyph-name="exclam" unicode="!" horiz-adv-x="258" 
d="M100 211l-60 308v70h169v-70l-60 -308h-49zM39 79q0 36 25.5 62t61.5 26t62 -26t26 -62t-26 -61.5t-62 -25.5t-61.5 25.5t-25.5 61.5z" />
    <glyph glyph-name="quotedbl" unicode="&#x22;" horiz-adv-x="422" 
d="M135 348h-46l-54 231q0 31 22.5 52.5t54.5 21.5t54.5 -21.5t22.5 -52.5zM333 348h-46l-54 231q0 31 22.5 52.5t54.5 21.5t54.5 -21.5t22.5 -52.5z" />
    <glyph glyph-name="numbersign" unicode="#" horiz-adv-x="646" 
d="M78 338l20 68h132l51 180h73l-51 -180h97l51 180h73l-51 -180h133l-20 -68h-132l-26 -91h140l-20 -68h-139l-50 -179h-73l50 179h-97l-50 -179h-73l50 179h-126l20 68h125l26 91h-133zM284 338l-26 -91h97l26 91h-97z" />
    <glyph glyph-name="dollar" unicode="$" horiz-adv-x="542" 
d="M245 -110v101q-90 2 -142.5 34.5t-52.5 84.5q0 32 19 52.5t50 20.5q32 0 49 -16.5t17 -46.5q0 -20 -13.5 -33.5t-32.5 -15.5q43 -29 106 -30v180l-52 15q-135 37 -135 169q0 87 52 136t135 56v100h46v-100q80 -3 132.5 -32t52.5 -85q0 -28 -17 -46.5t-49 -18.5
q-28 0 -44.5 15.5t-16.5 40.5q0 19 12 33.5t30 18.5q-38 22 -100 25v-165l53 -14q79 -23 113.5 -69t34.5 -120q0 -84 -54 -132.5t-147 -55.5v-102h-46zM295 208l-4 1v-166q77 11 77 79q0 37 -18.5 56.5t-54.5 29.5zM174 472q0 -30 15.5 -47.5t55.5 -28.5v151
q-71 -12 -71 -75z" />
    <glyph glyph-name="percent" unicode="%" horiz-adv-x="930" 
d="M35 411q0 89 46 138t123 49q166 0 166 -187q0 -89 -43.5 -136.5t-122.5 -47.5t-124 46t-45 138zM174 410q0 -67 15 -98t50 -31q73 0 73 129t-73 129q-33 0 -49 -29t-16 -100zM215 -39l434 667h66l-435 -667h-65zM560 177q0 89 46 138t123 49q166 0 166 -187
q0 -89 -43.5 -136.5t-122.5 -47.5t-124 46t-45 138zM699 176q0 -67 15 -98t50 -31q73 0 73 129t-73 129q-33 0 -49 -29t-16 -100z" />
    <glyph glyph-name="ampersand" unicode="&#x26;" horiz-adv-x="609" 
d="M605 0h-193l-53 60q-65 -70 -183 -70q-81 0 -128.5 35t-47.5 101q0 64 42.5 104.5t110.5 55.5l-45 44q-48 47 -48 114q0 75 56 114.5t141 39.5q81 0 131 -36t50 -102q0 -48 -33 -81t-94 -42l109 -119q22 37 23 73l-45 19l6 30h175l4 -30l-60 -26q-6 -18 -31 -55.5
t-37 -49.5l111 -126l43 -22zM152 173q0 -43 25 -67t67 -24q51 0 80 17l-142 156q-30 -26 -30 -82zM257 543q-54 0 -54 -54q0 -8 1.5 -16t5.5 -16t7 -13.5t9 -13t9.5 -11.5t10 -11t8.5 -9l30 -34q31 41 31 107q0 29 -14.5 50t-43.5 21z" />
    <glyph glyph-name="quotesingle" unicode="'" horiz-adv-x="224" 
d="M135 348h-46l-54 231q0 31 22.5 52.5t54.5 21.5t54.5 -21.5t22.5 -52.5z" />
    <glyph glyph-name="parenleft" unicode="(" horiz-adv-x="358" 
d="M160 279q0 -129 36.5 -223.5t121.5 -196.5h-81q-177 177 -177 420t177 420h81q-85 -102 -121.5 -196.5t-36.5 -223.5z" />
    <glyph glyph-name="parenright" unicode=")" horiz-adv-x="358" 
d="M198 279q0 129 -36.5 223.5t-121.5 196.5h81q177 -177 177 -420t-177 -420h-81q85 102 121.5 196.5t36.5 223.5z" />
    <glyph glyph-name="asterisk" unicode="*" horiz-adv-x="388" 
d="M82 352l-54 34l-3 64q59 1 115 32q-57 31 -115 32l3 64l54 34q32 -53 85 -84q-2 66 -30 116l57 30l57 -30q-28 -49 -30 -116q54 33 85 84l54 -34l3 -64q-61 -1 -115 -33q56 -30 115 -31l-3 -64l-54 -34q-30 50 -85 83q2 -67 30 -115l-57 -30l-57 30q28 50 30 116
q-55 -33 -85 -84z" />
    <glyph glyph-name="plus" unicode="+" horiz-adv-x="496" 
d="M55 283h153v148h77v-148h156v-77h-156v-161h-77v161h-153v77z" />
    <glyph glyph-name="comma" unicode="," horiz-adv-x="296" 
d="M173 30h-8q-5 -19 -19 -28t-27 -9q-34 0 -53 23t-19 57q0 40 25 64t62 24q49 0 78 -33.5t29 -86.5q0 -75 -57 -125t-135 -67l-9 35q62 24 97.5 62t35.5 84z" />
    <glyph glyph-name="hyphen" unicode="-" horiz-adv-x="329" 
d="M40 188v101h249v-101h-249z" />
    <glyph glyph-name="period" unicode="." horiz-adv-x="265" 
d="M45 79q0 36 25.5 62t61.5 26t62 -26t26 -62t-26 -61.5t-62 -25.5t-61.5 25.5t-25.5 61.5z" />
    <glyph glyph-name="slash" unicode="/" horiz-adv-x="326" 
d="M10 -141l229 842h77l-230 -842h-76z" />
    <glyph glyph-name="zero" unicode="0" horiz-adv-x="602" 
d="M229 250q0 -83 32.5 -129.5t86.5 -46.5q58 0 95.5 47.5t37.5 128.5t-37.5 127.5t-95.5 46.5q-55 0 -87 -43.5t-32 -130.5zM301 -10q-115 0 -183 71.5t-68 188.5t68 187.5t183 70.5t183 -70.5t68 -187.5t-68 -188.5t-183 -71.5z" />
    <glyph glyph-name="one" unicode="1" horiz-adv-x="408" 
d="M290 485v-428l98 -25l-10 -32h-338l-10 32l100 25v336h-102l-8 29l247 86z" />
    <glyph glyph-name="two" unicode="2" horiz-adv-x="499" 
d="M180 115h279v-115h-405l-24 95l40 24t41.5 25.5t37 24.5t37 27t28.5 27t25 30.5t14 30.5t6 34q0 41 -21 66.5t-61 25.5q-39 0 -58.5 -21t-19.5 -54q0 -16 4 -26l-34 -10q-17 24 -17 60q0 66 50 107.5t139 41.5q90 0 138 -43.5t48 -121.5q0 -42 -21.5 -77.5t-61.5 -63
t-77 -46t-87 -37.5v-4z" />
    <glyph glyph-name="three" unicode="3" horiz-adv-x="493" 
d="M20 17q0 32 20.5 53.5t55.5 21.5q32 0 51 -20.5t19 -48.5q0 -25 -15 -41t-37 -19q22 -18 74 -18q51 0 79.5 29t28.5 85q0 110 -169 124l-9 30q138 31 138 116q0 82 -81 82q-33 0 -51.5 -20t-18.5 -49q0 -23 9 -41l-36 -12q-24 31 -24 75q0 65 46 104.5t139 39.5
q86 0 134.5 -37t48.5 -103q0 -62 -43 -96.5t-104 -43.5v-4q85 -3 131.5 -39.5t46.5 -106.5q0 -50 -24 -86t-64.5 -55t-83.5 -27.5t-89 -8.5q-77 0 -124.5 32t-47.5 84z" />
    <glyph glyph-name="four" unicode="4" horiz-adv-x="563" 
d="M447 128h101v-69h-101v-149h-165v149h-277v51l274 388h168v-370zM138 128h144v192l3 84h-4q-11 -30 -36 -65l-114 -162q-12 -16 -22.5 -28.5t-15.5 -16.5l-5 -5v-4q7 5 50 5z" />
    <glyph glyph-name="five" unicode="5" horiz-adv-x="482" 
d="M137 352l-5 -68q300 0 300 -193q0 -55 -20.5 -93.5t-56 -59t-75.5 -29t-88 -8.5q-73 0 -120 31.5t-47 84.5q0 34 21.5 54.5t54.5 20.5q32 0 51 -19.5t19 -49.5q0 -24 -15 -40.5t-37 -19.5q20 -18 62 -18q49 0 77.5 24.5t28.5 73.5q0 62 -52.5 93.5t-158.5 36.5l26 325
h307v-146h-272z" />
    <glyph glyph-name="six" unicode="6" horiz-adv-x="566" 
d="M225 329q-15 -58 -15 -110q0 -92 19.5 -136.5t64.5 -44.5q85 0 85 152q0 69 -26 107t-74 38q-34 0 -54 -6zM238 367q40 18 97 18q82 0 136.5 -48t54.5 -143q0 -87 -64.5 -145.5t-167.5 -58.5q-118 0 -181 59t-63 170q0 164 112.5 265t329.5 114l7 -35
q-107 -24 -165.5 -71.5t-95.5 -124.5z" />
    <glyph glyph-name="seven" unicode="7" horiz-adv-x="478" 
d="M163 87l117 193l53 78v4q-16 -10 -81 -10h-159l-45 -59l-18 6l22 199h421l5 -8l-291 -470h4q13 21 43 21q29 0 46.5 -19.5t17.5 -48.5q0 -35 -23 -53.5t-57 -18.5q-41 0 -64 23t-23 62q0 48 32 101z" />
    <glyph glyph-name="eight" unicode="8" horiz-adv-x="582" 
d="M291 38q80 0 80 118q0 117 -80 117t-80 -117q0 -118 80 -118zM291 317q76 0 76 119q0 111 -76 111t-76 -111q0 -119 76 -119zM291 -9q-241 0 -241 166q0 60 37.5 96.5t103.5 43.5v5q-65 10 -98.5 45t-33.5 89q0 76 61 119t171 43t171 -43t61 -119q0 -54 -33.5 -90
t-98.5 -44v-5q66 -7 103.5 -43.5t37.5 -96.5q0 -166 -241 -166z" />
    <glyph glyph-name="nine" unicode="9" horiz-adv-x="566" 
d="M341 169q15 58 15 110q0 92 -19.5 136.5t-64.5 44.5q-85 0 -85 -152q0 -69 26 -107t74 -38q34 0 54 6zM328 131q-40 -18 -97 -18q-82 0 -136.5 48t-54.5 143q0 87 64.5 145.5t167.5 58.5q118 0 181 -59t63 -170q0 -164 -112 -264.5t-330 -113.5l-7 35q107 24 166 71
t95 124z" />
    <glyph glyph-name="colon" unicode=":" horiz-adv-x="294" 
d="M45 79q0 36 25.5 62t61.5 26t62 -26t26 -62t-26 -61.5t-62 -25.5t-61.5 25.5t-25.5 61.5zM45 336q0 36 25.5 62t61.5 26t62 -26t26 -62t-26 -61.5t-62 -25.5t-61.5 25.5t-25.5 61.5z" />
    <glyph glyph-name="semicolon" unicode=";" horiz-adv-x="296" 
d="M173 30h-8q-5 -19 -19 -28t-27 -9q-34 0 -53 23t-19 57q0 40 25 64t62 24q49 0 78 -33.5t29 -86.5q0 -75 -57 -125t-135 -67l-9 35q62 24 97.5 62t35.5 84zM51 336q0 36 25.5 62t61.5 26t62 -26t26 -62t-26 -61.5t-62 -25.5t-61.5 25.5t-25.5 61.5z" />
    <glyph glyph-name="less" unicode="&#x3c;" horiz-adv-x="406" 
d="M351 381l-172 -137l167 -137l-56 -67l-235 204l240 200z" />
    <glyph glyph-name="equal" unicode="=" horiz-adv-x="496" 
d="M441 131h-386v78h386v-78zM441 277h-386v77h386v-77z" />
    <glyph glyph-name="greater" unicode="&#x3e;" horiz-adv-x="406" 
d="M228 244l-173 137l57 63l239 -200l-234 -204l-56 67z" />
    <glyph glyph-name="question" unicode="?" horiz-adv-x="418" 
d="M221 210h-39q-30 32 -30 67q0 26 9.5 40t29.5 30q22 16 32 32.5t10 45.5q0 31 -20.5 52.5t-55.5 21.5q-34 0 -54.5 -22.5t-20.5 -54.5q0 -34 28 -64l-30 -22q-55 34 -55 106q0 64 45 110t134 46q88 0 136 -40t48 -108q0 -62 -26.5 -92t-79.5 -55q-21 -10 -28.5 -14
t-17.5 -12t-12.5 -18t-2.5 -26v-23zM116 79q0 36 25.5 62t61.5 26t62 -26t26 -62t-26 -61.5t-62 -25.5t-61.5 25.5t-25.5 61.5z" />
    <glyph glyph-name="at" unicode="@" horiz-adv-x="802" 
d="M432 191h-19q-64 0 -64 -53q0 -22 13 -35t35 -13q15 0 35 5v96zM442 69h-4q-34 -61 -122 -61q-50 0 -83 27t-33 84q0 55 45 86.5t117 31.5q42 0 70 -8v15q0 79 -94 79q-65 0 -113 -18l-9 25q63 89 204 89q171 0 171 -168v-127q0 -53 33 -53t60 46t27 130
q0 135 -85.5 209.5t-215.5 74.5q-142 0 -230.5 -90.5t-88.5 -234.5q0 -139 83 -231.5t242 -92.5q146 0 277 63l13 -28q-117 -79 -290 -79q-100 0 -175 31t-117.5 84t-63 116.5t-20.5 136.5q0 173 104.5 271t265.5 98t256.5 -85.5t95.5 -242.5q0 -239 -201 -239
q-49 0 -74.5 13.5t-44.5 47.5z" />
    <glyph glyph-name="A" unicode="A" horiz-adv-x="613" 
d="M389 52l-35 95h-199l-33 -90l68 -22l-5 -35h-178l-7 30l46 29l198 529h125l197 -529l47 -29l-7 -30h-270l-6 38zM220 322l-44 -119h158l-43 120q-13 37 -21.5 70.5t-9.5 48.5l-2 15h-4q-4 -53 -34 -135z" />
    <glyph glyph-name="B" unicode="B" horiz-adv-x="598" 
d="M530 441q0 -57 -33.5 -93.5t-95.5 -41.5v-4q162 -16 162 -145q0 -157 -217 -157h-304l-7 32l57 23v478l-57 23l7 32h297q81 0 136 -38.5t55 -108.5zM289 274h-32v-207l24 -16h13q94 0 94 111q0 112 -99 112zM257 533v-210h31q44 0 63.5 25.5t19.5 85.5q0 99 -83 99h-31z
" />
    <glyph glyph-name="C" unicode="C" horiz-adv-x="560" 
d="M35 297q0 155 79.5 228t218.5 73q53 0 125 -19l61 19v-167l-21 -5l-50 52q-23 24 -35.5 35.5t-34.5 23t-45 11.5q-37 0 -61.5 -19t-41 -77t-16.5 -157q0 -224 141 -224q92 0 164 54l21 -33q-33 -48 -90 -75t-124 -27q-134 0 -212.5 73.5t-78.5 233.5z" />
    <glyph glyph-name="D" unicode="D" horiz-adv-x="648" 
d="M42 588h235q336 0 336 -285q0 -82 -26 -142.5t-72.5 -94.5t-102 -50t-121.5 -16h-249l-7 32l57 23v478l-57 23zM257 64l24 -16q93 4 127 61.5t34 187.5q0 127 -41.5 183.5t-131.5 56.5h-12v-473z" />
    <glyph glyph-name="E" unicode="E" horiz-adv-x="542" 
d="M337 267h-80v-194l24 -17h113l102 132l26 -6l-20 -182h-460l-7 32l57 23v478l-57 23l7 32h451v-157l-21 -5l-91 106h-124v-209h79l47 79l22 -4v-208l-21 -4z" />
    <glyph glyph-name="F" unicode="F" horiz-adv-x="503" 
d="M361 35l-8 -35h-311l-7 32l57 23v478l-57 23l7 32h451v-157l-21 -5l-74 106h-141v-209h78l48 79l22 -4v-208l-21 -4l-48 81h-79v-202z" />
    <glyph glyph-name="G" unicode="G" horiz-adv-x="617" 
d="M214 295q0 -251 110 -251q51 0 80 24v164l-54 23l7 32h237l8 -32l-46 -23v-241h-40l-46 52q-70 -53 -156 -53q-57 0 -105.5 17t-88 52t-62.5 96t-23 142q0 154 83 227.5t224 73.5q53 0 125 -19l61 19v-167l-21 -5l-50 52q-23 24 -35.5 35.5t-34.5 23t-45 11.5
q-28 0 -49 -11t-40 -37t-29 -78t-10 -127z" />
    <glyph glyph-name="H" unicode="H" horiz-adv-x="714" 
d="M407 588h265l7 -32l-57 -23v-478l57 -23l-7 -32h-265l-7 32l57 23v212h-200v-212l57 -23l-7 -32h-265l-7 32l57 23v478l-57 23l7 32h265l7 -32l-57 -23v-210h200v210l-57 23z" />
    <glyph glyph-name="I" unicode="I" horiz-adv-x="349" 
d="M42 588h265l7 -32l-57 -23v-478l57 -23l-7 -32h-265l-7 32l57 23v478l-57 23z" />
    <glyph glyph-name="J" unicode="J" horiz-adv-x="317" 
d="M75 -57v590l-57 23l7 32h265l7 -32l-57 -23v-532q0 -192 -229 -192q-121 0 -121 82q0 38 22 57.5t53 19.5q35 0 53 -21t18 -53q0 -30 -19 -49q32 1 45 22t13 76z" />
    <glyph glyph-name="K" unicode="K" horiz-adv-x="662" 
d="M257 321l49 8l165 201l-59 26l5 32h213l5 -32l-73 -17l-135 -161l176 -327l69 -18l-7 -33h-229l-135 274h-44v-219l57 -23l-7 -32h-265l-7 32l57 23v478l-57 23l7 32h265l7 -32l-57 -23v-212z" />
    <glyph glyph-name="L" unicode="L" horiz-adv-x="525" 
d="M315 556l-58 -23v-460l25 -17h112l105 151l26 -6l-23 -201h-460l-7 32l57 23v478l-57 23l7 32h265z" />
    <glyph glyph-name="M" unicode="M" horiz-adv-x="853" 
d="M550 338l-124 -338h-88l-131 338q-12 32 -23.5 67.5t-16.5 54.5l-5 20h-4q6 -84 6 -142v-283l77 -23l-7 -32h-192l-7 32l57 23v478l-57 23l7 32h244l111 -292q12 -31 20 -60t10 -43l2 -14h4q8 46 32 116l106 293h240l7 -32l-57 -23v-478l57 -23l-7 -32h-265l-7 32l57 23
v283l6 142h-4q-21 -68 -48 -142z" />
    <glyph glyph-name="N" unicode="N" horiz-adv-x="643" 
d="M164 291v-236l77 -23l-7 -32h-192l-7 32l57 23v478l-57 23l7 32h206l191 -266q20 -27 36 -56t22 -44l6 -16h4q-6 84 -6 159v168l-77 23l7 32h185l7 -32l-57 -23v-533h-93l-247 334q-20 27 -36 56t-22 44l-6 16h-4q6 -84 6 -159z" />
    <glyph glyph-name="O" unicode="O" horiz-adv-x="646" 
d="M323 40q57 0 83 56t26 198t-26 198t-83 56t-83 -56t-26 -198t26 -198t83 -56zM323 -10q-139 0 -213.5 79.5t-74.5 224.5q0 146 74.5 225t213.5 79t213.5 -79t74.5 -225q0 -145 -74.5 -224.5t-213.5 -79.5z" />
    <glyph glyph-name="P" unicode="P" horiz-adv-x="574" 
d="M310 209h-53v-144l104 -30l-8 -35h-311l-7 32l57 23v478l-57 23l7 32h267q48 0 89.5 -9.5t77.5 -30t57 -57.5t21 -87q0 -52 -21 -91t-56.5 -61t-77.5 -32.5t-89 -10.5zM257 535v-273h31q54 0 76.5 31.5t22.5 110.5q0 67 -26.5 99t-71.5 32h-32z" />
    <glyph glyph-name="Q" unicode="Q" horiz-adv-x="646" 
d="M322 -82q-32 50 -79 80q-101 21 -154.5 97.5t-53.5 198.5q0 146 74.5 225t213.5 79t213.5 -79t74.5 -225q0 -121 -52 -197t-151 -98v-4q51 -6 84 -49l48 -64l57 -22l-7 -30h-212zM323 40q57 0 83 56t26 198t-26 198t-83 56t-83 -56t-26 -198t26 -198t83 -56z" />
    <glyph glyph-name="R" unicode="R" horiz-adv-x="633" 
d="M257 535v-228h51q89 0 89 116q0 112 -90 112h-50zM581 52l62 -21l-7 -31h-219l-86 208q-11 26 -26.5 37t-47.5 12v-202l57 -23l-7 -32h-265l-7 32l57 23v478l-57 23l7 32h334q50 0 92 -13t73.5 -50t31.5 -93q0 -70 -45.5 -110t-109.5 -48v-6q32 -3 57.5 -21t38.5 -46z
" />
    <glyph glyph-name="S" unicode="S" horiz-adv-x="499" 
d="M250 40q37 0 57 19t20 53q0 35 -21 58t-73 43l-74 28q-117 44 -117 177q0 87 57.5 133.5t141.5 46.5q72 0 132 -24l51 24l15 -168l-28 -6l-62 69q-50 56 -112 56q-31 0 -50 -18t-19 -48q0 -31 18.5 -51.5t60.5 -36.5l72 -26q78 -28 111.5 -73t33.5 -117q0 -90 -59 -139.5
t-151 -49.5q-86 0 -143 35l-59 -35l-17 192l32 6l60 -79q52 -69 123 -69z" />
    <glyph glyph-name="T" unicode="T" horiz-adv-x="559" 
d="M102 35l95 26v475h-79l-87 -110l-21 5v157h539v-157l-21 -5l-87 110h-79v-475l95 -26l-8 -35h-339z" />
    <glyph glyph-name="U" unicode="U" horiz-adv-x="624" 
d="M552 533v-326q0 -101 -61 -159t-170 -58q-113 0 -181 53.5t-68 164.5v325l-57 23l7 32h265l7 -32l-57 -23v-331q0 -139 119 -139q59 0 92 35t33 103v332l-77 23l7 32h191l7 -32z" />
    <glyph glyph-name="V" unicode="V" horiz-adv-x="603" 
d="M388 266l93 265l-68 22l5 35h178l7 -30l-46 -29l-193 -529h-125l-192 529l-47 29l7 30h270l6 -38l-59 -14l93 -271q12 -34 19.5 -67.5t9.5 -49.5l2 -17h4q7 53 36 135z" />
    <glyph glyph-name="W" unicode="W" horiz-adv-x="856" 
d="M522 0l-70 253q-9 32 -15 67t-8 54l-2 20h-4q-8 -68 -26 -140l-63 -254h-148l-134 529l-47 29l7 30h270l6 -38l-59 -14l58 -267q7 -32 11.5 -64.5t5.5 -48.5v-17h4q7 53 26 130l78 319h121l88 -317q9 -33 14.5 -66t6.5 -49l1 -17h4q4 54 22 132l59 260l-69 22l5 35h180
l7 -30l-48 -29l-133 -529h-148z" />
    <glyph glyph-name="X" unicode="X" horiz-adv-x="601" 
d="M327 389l95 143l-61 22l7 34h195l6 -36l-61 -17l-142 -201l184 -279l51 -23l-8 -32h-288l-7 32l64 23l-103 165l-109 -161l68 -28l-7 -31h-203l-8 32l65 23l156 216l-171 259l-40 26l7 32h271l8 -38l-57 -12z" />
    <glyph glyph-name="Y" unicode="Y" 
d="M224 536l77 -155q14 -28 22 -52t9 -34l1 -10h4q4 30 40 95l81 151l-70 22l5 35h180l7 -30l-46 -29l-161 -301v-167l95 -26l-8 -35h-339l-8 35l95 26v167l-161 301l-47 29l7 30h270l6 -38z" />
    <glyph glyph-name="Z" unicode="Z" horiz-adv-x="542" 
d="M20 12l246 448q13 24 25 41.5t18 23.5l6 6v4q-13 -3 -62 -3h-90l-97 -108l-22 4l14 160h441l5 -14l-241 -446q-13 -24 -26 -42t-19 -24l-7 -6v-4q16 4 65 4h112l105 134l24 -7l-34 -183h-457z" />
    <glyph glyph-name="bracketleft" unicode="[" horiz-adv-x="355" 
d="M100 -141v842h215v-42l-117 -20v-717l117 -20v-43h-215z" />
    <glyph glyph-name="backslash" unicode="\" horiz-adv-x="326" 
d="M87 701l229 -842h-76l-230 842h77z" />
    <glyph glyph-name="bracketright" unicode="]" horiz-adv-x="355" 
d="M255 701v-842h-215v43l117 20v717l-117 20v42h215z" />
    <glyph glyph-name="asciicircum" unicode="^" horiz-adv-x="425" 
d="M20 290l162 298h60l163 -298l-100 -5l-93 171l-92 -171z" />
    <glyph glyph-name="underscore" unicode="_" horiz-adv-x="382" 
d="M40 -103v63h302v-63h-302z" />
    <glyph glyph-name="grave" unicode="`" horiz-adv-x="348" 
d="M247 484l-127 74q-34 20 -38.5 52t23.5 58q27 24 60 14t48 -46l55 -132z" />
    <glyph glyph-name="a" unicode="a" horiz-adv-x="491" 
d="M428 270v-171q0 -33 12 -43t43 -7l3 -19q-40 -40 -117 -40q-85 0 -96 67l-3 1q-31 -68 -126 -68q-51 0 -85 30t-34 89q0 65 48.5 97.5t133.5 32.5q31 0 61 -8v28q0 42 -26 64t-72 22q-57 0 -119 -22l-10 28q66 95 210 95q177 0 177 -176zM268 192h-20q-73 0 -73 -57
q0 -25 14 -41.5t36 -16.5q25 0 43 12v103z" />
    <glyph glyph-name="b" unicode="b" horiz-adv-x="569" 
d="M60 569l-40 59v11l174 42h26v-295h4q39 60 134 60q81 0 131 -55t50 -157q0 -56 -17.5 -99.5t-45 -70.5t-65.5 -44t-75.5 -23.5t-78.5 -6.5q-115 0 -197 30v549zM220 346v-294q23 -10 47 -10q47 0 78 42t31 127q0 76 -31 107.5t-87 31.5q-27 0 -38 -4z" />
    <glyph glyph-name="c" unicode="c" horiz-adv-x="449" 
d="M319 392q-12 7 -32 7q-97 0 -97 -165q0 -69 31 -108.5t86 -39.5q31 0 52 8.5t48 29.5l22 -21q-23 -59 -68 -86t-119 -27q-95 0 -153.5 58.5t-58.5 161.5q0 118 71 177t172 59q71 0 113 -28.5t42 -81.5q0 -33 -19.5 -53.5t-50.5 -20.5q-30 0 -49.5 19.5t-19.5 47.5
q0 40 30 63z" />
    <glyph glyph-name="d" unicode="d" horiz-adv-x="575" 
d="M193 238q0 -80 31 -118t103 -38q10 0 22 2v276q-23 35 -66 35q-41 0 -65.5 -40t-24.5 -117zM361 55l-3 1q-50 -66 -136 -66q-92 0 -142 56.5t-50 156.5q0 121 66.5 182t165.5 61q51 0 87 -17v139l-40 60v11l174 42h26v-590l46 -46v-20l-186 -31z" />
    <glyph glyph-name="e" unicode="e" horiz-adv-x="468" 
d="M187 221q5 -134 122 -134q30 0 50.5 8t47.5 29l22 -21q-39 -113 -187 -113q-93 0 -152.5 57t-59.5 163q0 110 67 173t167 63q80 0 127 -43t47 -122q0 -31 -6 -60h-245zM258 398q-62 0 -70 -128h114q4 18 4 43q0 85 -48 85z" />
    <glyph glyph-name="f" unicode="f" horiz-adv-x="351" 
d="M238 51l82 -20l-13 -31h-266v28l37 19v334h-63v43l63 16v43q0 60 22.5 102.5t60.5 63.5t76 29.5t81 8.5q64 0 98.5 -24t34.5 -71q0 -29 -20 -49.5t-50 -20.5q-32 0 -50.5 19.5t-18.5 49.5q0 39 26 58q-14 3 -22 3q-40 0 -59 -41t-19 -103v-72h122l-8 -55h-114v-330z" />
    <glyph glyph-name="g" unicode="g" horiz-adv-x="509" 
d="M180 99h164q165 0 165 -151q0 -46 -22 -80t-60 -53t-83.5 -28t-98.5 -9q-225 0 -225 98q0 77 120 84v3q-48 5 -74 31t-26 69q0 41 27.5 66.5t72.5 35.5q-97 32 -97 125q0 70 53 113t151 43q103 0 164 -31q-6 9 -6 24q0 25 16.5 40.5t42.5 15.5t43 -16.5t17 -44.5
q0 -31 -18 -47t-45 -16q-25 0 -80 22v-11q61 -26 61 -94q0 -67 -58.5 -102.5t-137.5 -35.5q-37 0 -65 7q-31 -9 -31 -32q0 -26 30 -26zM183 -46q-37 -18 -37 -56q0 -75 105 -75q132 0 132 74q0 57 -78 57h-122zM293 298q0 56 -9 79.5t-41 23.5q-31 0 -40 -23.5t-9 -79.5
q0 -55 9 -78.5t40 -23.5q32 0 41 23.5t9 78.5z" />
    <glyph glyph-name="h" unicode="h" horiz-adv-x="579" 
d="M358 47v200q0 44 -18.5 69t-50.5 25q-34 0 -64 -30v-263l51 -19l-13 -29h-235v28l37 19v521l-40 60v11l174 42h26v-324h4q49 89 150 89q60 0 99.5 -38.5t39.5 -125.5v-234l51 -19l-13 -29h-235v28z" />
    <glyph glyph-name="i" unicode="i" horiz-adv-x="304" 
d="M59 581q0 40 27 67t66 27q40 0 67 -27t27 -67q0 -39 -27 -66t-67 -27q-39 0 -66 27t-27 66zM233 48l51 -19l-13 -29h-235v28l37 19v263l-38 74v11l172 51h26v-398z" />
    <glyph glyph-name="j" unicode="j" horiz-adv-x="282" 
d="M55 581q0 40 27 67t66 27q40 0 67 -27t27 -67q0 -39 -27 -66t-67 -27q-39 0 -66 27t-27 66zM229 446v-496q0 -83 -58.5 -126t-167.5 -43q-123 0 -123 84q0 33 21 52.5t54 19.5t49.5 -21.5t16.5 -51.5q0 -27 -15 -48q63 0 63 111v382l-48 74v11l182 52h26z" />
    <glyph glyph-name="k" unicode="k" horiz-adv-x="562" 
d="M225 48l52 -19l-13 -29h-236v28l37 19v521l-40 60v11l174 42h26v-437l45 8l119 119l-66 28l6 37h217l8 -34l-60 -15l-106 -105l133 -233l56 -21l-12 -28h-197l-105 196h-38v-148z" />
    <glyph glyph-name="l" unicode="l" horiz-adv-x="292" 
d="M225 48l52 -19l-13 -29h-236v28l37 19v521l-40 60v11l174 42h26v-633z" />
    <glyph glyph-name="m" unicode="m" horiz-adv-x="874" 
d="M522 312v-264l52 -19l-13 -29h-228v28l29 17v211q0 84 -63 84q-34 0 -66 -29v-263l52 -19l-13 -29h-236v28l37 16v266l-38 74v11l174 51h23l-3 -89h4q54 89 149 89q104 0 128 -93h4q29 49 65 71t89 22q62 0 103 -35.5t41 -116.5v-246l52 -19l-13 -29h-228v28l29 17v210
q0 85 -63 85q-36 0 -67 -28z" />
    <glyph glyph-name="n" unicode="n" horiz-adv-x="588" 
d="M526 48l52 -19l-13 -29h-236v28l37 20v199q0 47 -19.5 70.5t-50.5 23.5q-33 0 -63 -30v-263l52 -19l-13 -29h-236v28l37 19v263l-38 74v11l172 51h25l-3 -89h4q28 43 64 66t93 23q63 0 99.5 -43.5t36.5 -119.5v-235z" />
    <glyph glyph-name="o" unicode="o" horiz-adv-x="534" 
d="M504 218q0 -111 -63.5 -169.5t-173.5 -58.5t-173.5 58.5t-63.5 169.5q0 112 63.5 170t173.5 58t173.5 -58t63.5 -170zM197 218q0 -96 14.5 -137.5t55.5 -41.5t55.5 41.5t14.5 137.5t-14.5 137.5t-55.5 41.5t-55.5 -41.5t-14.5 -137.5z" />
    <glyph glyph-name="p" unicode="p" horiz-adv-x="576" 
d="M289 -10q-40 0 -62 8v-160l70 -19l-13 -29h-264v28l47 17v474l-38 75v11l185 51h16l-3 -70h4q19 29 53.5 49.5t80.5 20.5q81 0 131 -55t50 -157q0 -56 -17 -100t-43.5 -70t-62 -43.5t-68.5 -24t-66 -6.5zM227 336v-279q23 -10 47 -10q47 0 78 39.5t31 124.5
q0 72 -29.5 102t-85.5 30q-22 0 -41 -7z" />
    <glyph glyph-name="q" unicode="q" horiz-adv-x="559" 
d="M349 49h-3q-40 -59 -124 -59q-92 0 -142 56.5t-50 156.5q0 121 66.5 182t165.5 61q69 0 95 -26l152 26v-608l70 -19l-13 -29h-264v28l47 17v214zM193 238q0 -80 31 -118t103 -38q10 0 22 2v276q-23 35 -66 35q-41 0 -65.5 -40t-24.5 -117z" />
    <glyph glyph-name="r" unicode="r" horiz-adv-x="449" 
d="M233 51l82 -20l-13 -31h-266v28l37 19v262l-38 74v11l172 52h25l-3 -101h4q14 42 44.5 71.5t78.5 29.5q43 0 68 -24.5t25 -65.5q0 -36 -22 -59t-55 -23q-35 0 -55.5 21t-20.5 55q-27 -12 -63 -53v-246z" />
    <glyph glyph-name="s" unicode="s" horiz-adv-x="438" 
d="M35 139l29 6q44 -64 76.5 -86.5t76.5 -22.5q66 0 66 46q0 21 -14 34t-46 23l-70 21q-112 33 -112 138q0 74 45 111t120 37q60 0 104 -21l60 20v-133l-27 -5q-61 91 -132 91q-24 0 -37.5 -10.5t-13.5 -28.5q0 -31 39 -44l82 -27q68 -22 97.5 -58t29.5 -94
q0 -146 -191 -146q-60 0 -113 23l-56 -23z" />
    <glyph glyph-name="t" unicode="t" horiz-adv-x="361" 
d="M5 381v36l183 136h37v-117h123l-7 -55h-114v-221q0 -80 59 -80q33 0 69 21l11 -23q-23 -41 -63.5 -64.5t-88.5 -23.5q-68 0 -107.5 36.5t-39.5 115.5v239h-62z" />
    <glyph glyph-name="u" unicode="u" horiz-adv-x="558" 
d="M332 310l-38 74v11l172 51h26v-347l46 -52v-21l-189 -31l-13 67h-4q-46 -72 -132 -72q-64 0 -105.5 37.5t-41.5 122.5v160l-38 74v11l172 51h26v-286q0 -79 56 -79q27 0 63 18v211z" />
    <glyph glyph-name="v" unicode="v" horiz-adv-x="503" 
d="M327 213l58 168l-61 17l5 38h173l6 -35l-46 -15l-146 -386h-133l-141 369l-47 32l7 35h263l6 -38l-64 -15l55 -171q10 -32 17 -60t9 -40l2 -12h4q8 43 33 113z" />
    <glyph glyph-name="w" unicode="w" horiz-adv-x="759" 
d="M2 436h264l5 -38l-58 -14l45 -172q7 -26 11.5 -51t5.5 -37l1 -11h4q5 40 21 100l59 223h131l60 -224q7 -26 12 -50.5t7 -36.5l1 -12h4q4 41 21 100l49 168l-62 17l5 38h171l5 -35l-45 -13l-122 -388h-145l-51 187q-6 21 -10.5 46.5t-6.5 40.5l-1 14h-4q-7 -54 -20 -101
l-50 -187h-152l-115 371l-47 30z" />
    <glyph glyph-name="x" unicode="x" horiz-adv-x="521" 
d="M61 56l123 149l-127 168l-59 28l7 35h263l6 -38l-38 -9l56 -88h4l70 85l-50 13l6 37h176l7 -33l-64 -24l-111 -128l149 -202l52 -19l-5 -30h-262l-10 30l45 13l-77 111h-5l-86 -104l73 -20l-11 -30h-198l-5 28z" />
    <glyph glyph-name="y" unicode="y" horiz-adv-x="503" 
d="M225 -56l-183 425l-47 32l7 35h263l6 -38l-64 -15l61 -150q12 -31 19.5 -59t8.5 -40l2 -13h4q6 43 31 113l52 147l-61 17l5 38h173l6 -35l-46 -15l-152 -403q-37 -99 -86.5 -150.5t-128.5 -51.5q-50 0 -74.5 25t-24.5 65q0 35 20 55.5t54 20.5q36 0 53 -20.5t17 -49.5
q0 -26 -21 -47q33 4 62.5 37t43.5 77z" />
    <glyph glyph-name="z" unicode="z" horiz-adv-x="486" 
d="M190 393h-36l-93 -111l-23 4l9 150h390l5 -14l-183 -304q-14 -23 -26.5 -41t-18.5 -25l-6 -6v-4q11 4 60 4h66l97 117l25 -7l-25 -156h-400l-6 12l178 309q13 24 25.5 41.5t17.5 23.5l6 6v4q-13 -3 -62 -3z" />
    <glyph glyph-name="braceleft" unicode="{" horiz-adv-x="407" 
d="M127 280v-4q60 -14 97.5 -51t37.5 -99v-91q0 -57 28 -94.5t77 -48.5v-35q-207 0 -207 183v78q0 72 -32 102t-108 40v36q76 10 108 40t32 102v78q0 183 207 183v-35q-49 -11 -77 -48.5t-28 -94.5v-91q0 -62 -37.5 -99t-97.5 -51z" />
    <glyph glyph-name="bar" unicode="|" horiz-adv-x="132" 
d="M30 -141v842h72v-842h-72z" />
    <glyph glyph-name="braceright" unicode="}" horiz-adv-x="407" 
d="M280 276v4q-60 14 -97.5 51t-37.5 99v91q0 57 -28 94.5t-77 48.5v35q207 0 207 -183v-78q0 -72 32 -102t108 -40v-36q-76 -10 -108 -40t-32 -102v-78q0 -183 -207 -183v35q49 11 77 48.5t28 94.5v91q0 62 37.5 99t97.5 51z" />
    <glyph glyph-name="asciitilde" unicode="~" horiz-adv-x="427" 
d="M226 189l-58 25q-23 10 -42 10q-47 0 -49 -59l-29 5q-8 27 -8 48q0 46 29 74t74 28q29 0 57 -12l57 -22q32 -13 50 -13q38 0 43 51l29 -4q8 -32 8 -54q0 -44 -25 -68.5t-66 -24.5q-34 0 -70 16z" />
    <glyph glyph-name="nbspace" unicode="&#xa0;" horiz-adv-x="170" 
 />
    <glyph glyph-name="exclamdown" unicode="&#xa1;" horiz-adv-x="228" 
d="M28 359q0 36 25.5 61.5t61.5 25.5t62 -25.5t26 -61.5t-26 -62t-62 -26t-61.5 26t-25.5 62zM25 -81l60 308h49l60 -308v-70h-169v70z" />
    <glyph glyph-name="cent" unicode="&#xa2;" horiz-adv-x="529" 
d="M270 -114v105q-104 3 -162 61.5t-58 166.5q0 105 63 162t157 64v107h46v-107q73 -5 118 -38t45 -81q0 -29 -17 -47t-45 -18t-46 17t-18 41q0 36 28 55q-30 21 -65 24v-324h4q63 0 128 60l27 -20q-49 -106 -159 -120v-108h-46zM193 234q0 -121 77 -152v311
q-77 -28 -77 -159z" />
    <glyph glyph-name="sterling" unicode="&#xa3;" horiz-adv-x="645" 
d="M116 285v47h68v26q0 240 245 240q69 0 109 -24.5t40 -73.5q0 -31 -18.5 -50.5t-47.5 -19.5q-27 0 -45 17t-18 43q0 39 29 54q-14 10 -44 10q-58 0 -65 -76l-15 -146h121v-47h-126l-7 -77q-4 -37 -15 -70q92 -24 138 -24q50 0 68.5 13t22.5 56l26 7q13 -24 13 -63
q0 -66 -42.5 -101t-105.5 -35q-86 0 -169 62q-57 -62 -158 -62q-53 0 -81.5 25.5t-28.5 72.5q0 45 29.5 69t81.5 24q23 0 63 -7v110h-68zM119 40q59 0 64 79q-32 15 -64 15q-51 0 -51 -46q0 -48 51 -48z" />
    <glyph glyph-name="currency" unicode="&#xa4;" horiz-adv-x="541" 
d="M514 482l-72 -73q31 -50 31 -104q0 -56 -29 -105l72 -72l-64 -64l-69 69q-52 -35 -113 -35q-59 0 -110 30l-70 -71l-65 66l70 70q-32 52 -32 112q0 63 36 112l-70 71l64 64l72 -73q48 28 106 28q55 0 107 -33l71 71zM175 303q0 -40 28 -68t68 -28q39 0 67.5 28t28.5 68
t-28.5 68t-67.5 28q-40 0 -68 -28t-28 -68z" />
    <glyph glyph-name="yen" unicode="&#xa5;" horiz-adv-x="620" 
d="M244 536l77 -155q14 -28 22 -52t9 -34l1 -10h4q4 30 40 95l81 151l-70 22l5 35h180l7 -30l-46 -29l-106 -198h85v-47h-110l-30 -56v-17h141v-47h-141v-103l95 -26l-8 -35h-339l-8 35l95 26v103h-143v47h143v17l-30 56h-114v47h89l-106 198l-47 29l7 30h270l6 -38z" />
    <glyph glyph-name="brokenbar" unicode="&#xa6;" horiz-adv-x="132" 
d="M30 317v384h72v-384h-72zM30 -141v384h72v-384h-72z" />
    <glyph glyph-name="section" unicode="&#xa7;" horiz-adv-x="513" 
d="M230 -121q81 0 81 53q0 36 -54 56l-79 29q-60 22 -89 55t-29 97q0 58 33.5 97.5t87.5 53.5l-25 11q-86 39 -86 124q0 71 50.5 107t133.5 36q156 0 156 -87q0 -27 -16 -44t-42 -17t-42 13.5t-16 36.5q0 33 29 45q-25 11 -68 11q-29 0 -44 -12t-15 -31q0 -30 44 -50l83 -39
q67 -32 98.5 -65t31.5 -96q0 -50 -29.5 -85.5t-84.5 -50.5q56 -25 80 -57.5t24 -84.5q0 -73 -61 -109.5t-158 -36.5q-69 0 -111.5 24t-42.5 67q0 26 15.5 44t43.5 18q56 0 56 -51q0 -14 -10 -26.5t-22 -15.5q18 -20 77 -20zM266 282l-35 15q-29 -2 -46 -18.5t-17 -42.5
q0 -24 13.5 -39t44.5 -26l56 -22q38 15 38 63q0 29 -13 43.5t-41 26.5z" />
    <glyph glyph-name="dieresis" unicode="&#xa8;" horiz-adv-x="514" 
d="M80 566q0 35 22 54t55 19q36 0 57.5 -18.5t21.5 -54.5q0 -34 -21.5 -52.5t-57.5 -18.5q-33 0 -55 18.5t-22 52.5zM277 565q0 35 22 54t55 19q36 0 58 -18.5t22 -54.5q0 -34 -22 -52.5t-58 -18.5q-33 0 -55 19t-22 52z" />
    <glyph glyph-name="copyright" unicode="&#xa9;" horiz-adv-x="676" 
d="M45 294q0 132 89 219.5t217 87.5q129 0 218 -87.5t89 -219.5t-89 -219t-218 -87q-128 0 -217 87t-89 219zM78 294q0 -121 79.5 -200t195.5 -79q115 0 195.5 79.5t80.5 199.5t-80.5 199.5t-195.5 79.5t-195 -79.5t-80 -199.5zM486 200l15 -21q-49 -57 -140 -57
q-84 0 -130.5 45t-46.5 124q0 85 52 128.5t136 43.5q28 0 74 -11l38 11v-108l-16 -3l-29 34q-33 38 -69 38q-37 0 -52 -31t-15 -102q0 -120 83 -120q56 0 100 29z" />
    <glyph glyph-name="ordfeminine" unicode="&#xaa;" horiz-adv-x="439" 
d="M362 481v-127q0 -13 3 -21.5t10.5 -12t13 -4.5t18.5 -3l2 -15q-38 -33 -100 -33q-69 0 -78 53l-2 1q-40 -56 -102 -56q-41 0 -69 23.5t-28 67.5q0 34 17.5 58.5t48 37t62.5 18t69 5.5v8q0 35 -20.5 55t-55.5 20q-49 0 -97 -24l-11 24q54 77 166 77q29 0 53.5 -6.5t48 -22
t37.5 -47t14 -76.5zM160 382q0 -18 10 -30.5t26 -12.5q17 0 31 9v95q-67 -1 -67 -61z" />
    <glyph glyph-name="guillemotleft" unicode="&#xab;" horiz-adv-x="485" 
d="M185 46l-155 173l155 174l76 -9l-104 -165l104 -164zM379 46l-155 173l155 174l76 -9l-104 -165l104 -164z" />
    <glyph glyph-name="logicalnot" unicode="&#xac;" horiz-adv-x="553" 
d="M417 269h-367v81h453v-216h-86v135z" />
    <glyph glyph-name="uni00AD" unicode="&#xad;" horiz-adv-x="329" 
d="M40 188v101h249v-101h-249z" />
    <glyph glyph-name="registered" unicode="&#xae;" horiz-adv-x="676" 
d="M31 294q0 132 89 219.5t217 87.5q129 0 218 -87.5t89 -219.5t-89 -219t-218 -87q-128 0 -217 87t-89 219zM64 294q0 -121 79.5 -200t195.5 -79q115 0 195.5 79.5t80.5 199.5t-80.5 199.5t-195.5 79.5t-195 -79.5t-80 -199.5zM309 429v-122h16q35 0 49 12.5t14 50.5
q0 59 -60 59h-19zM503 169l36 -14l-4 -20h-131l-45 107q-14 32 -50 32v-103l40 -15l-4 -21h-174l-5 21l37 15v255l-37 15l5 21h158q38 0 61.5 -2.5t52 -10.5t42.5 -28t14 -51q0 -25 -8.5 -41.5t-26.5 -25t-31.5 -11.5t-38.5 -6q64 -7 79 -48z" />
    <glyph glyph-name="macron" unicode="&#xaf;" horiz-adv-x="449" 
d="M369 507h-289v81h289v-81z" />
    <glyph glyph-name="degree" unicode="&#xb0;" horiz-adv-x="323" 
d="M30 528q0 53 37 89t97 36q57 0 93 -36.5t36 -88.5q0 -56 -36 -93t-93 -37q-63 0 -98.5 36.5t-35.5 93.5zM107 524q0 -23 15 -39t41 -16q25 0 40.5 16t15.5 39q0 25 -15.5 42t-40.5 17t-40.5 -17t-15.5 -42z" />
    <glyph glyph-name="plusminus" unicode="&#xb1;" horiz-adv-x="496" 
d="M55 357h153v113h77v-113h156v-78h-156v-126h-77v126h-153v78zM441 28h-386v77h386v-77z" />
    <glyph glyph-name="twosuperior" unicode="&#xb2;" horiz-adv-x="369" 
d="M136 320h193v-86h-288l-16 68q168 60 168 155q0 65 -55 65q-49 0 -54 -55q-1 -8 1 -24l-35 -7q-10 27 -10 50q-1 49 35 80.5t106 31.5q63 0 99.5 -32.5t36.5 -92.5q0 -35 -17 -62t-47.5 -44t-56.5 -26t-60 -17v-4z" />
    <glyph glyph-name="threesuperior" unicode="&#xb3;" horiz-adv-x="363" 
d="M30 334l45 4q4 -61 63 -61t59 52q0 33 -21.5 48.5t-73.5 15.5l-5 30q81 9 81 64q0 45 -45 45q-20 0 -31 -11t-11 -29q0 -8 2 -18l-33 -9q-13 14 -13 38q0 39 31 67t100 28q62 0 97 -24t35 -70q0 -72 -101 -83v-4q114 -5 114 -92q0 -100 -163 -100q-130 0 -130 109z" />
    <glyph glyph-name="acute" unicode="&#xb4;" horiz-adv-x="348" 
d="M228 558l-127 -74l-21 20l55 132q15 36 48 46t60 -14q28 -26 23.5 -58t-38.5 -52z" />
    <glyph glyph-name="mu" unicode="&#xb5;" horiz-adv-x="558" 
d="M332 418l134 28h26v-347l46 -52v-21l-189 -31l-13 67h-4q-45 -71 -125 -71q-36 0 -59 29l65 -184l-24 -29l-136 28v583l134 28h26v-286q0 -79 56 -79q27 0 63 18v319z" />
    <glyph glyph-name="paragraph" unicode="&#xb6;" horiz-adv-x="493" 
d="M387 521v-490q0 -86 -38.5 -133.5t-133.5 -47.5q-61 0 -94 27.5t-33 72.5q0 34 21 54t54 20q34 0 51.5 -19.5t17.5 -48.5q0 -40 -22 -62q105 0 105 123v173h-70q-97 0 -156 49.5t-59 142.5q0 206 235 206h188v-51z" />
    <glyph glyph-name="periodcentered" unicode="&#xb7;" horiz-adv-x="255" 
d="M40 249q0 36 25.5 62t61.5 26t62 -26t26 -62t-26 -61.5t-62 -25.5t-61.5 25.5t-25.5 61.5z" />
    <glyph glyph-name="periodcentered" unicode="&#x22c5;" horiz-adv-x="255" 
d="M40 249q0 36 25.5 62t61.5 26t62 -26t26 -62t-26 -61.5t-62 -25.5t-61.5 25.5t-25.5 61.5z" />
    <glyph glyph-name="cedilla" unicode="&#xb8;" horiz-adv-x="378" 
d="M80 -171l18 25q21 -21 53 -21q39 0 39 33q0 16 -8.5 26.5t-19.5 15t-34 11.5l42 103h46l-28 -62q42 -4 76 -25.5t34 -63.5q0 -46 -33 -67.5t-88 -21.5q-65 0 -97 47z" />
    <glyph glyph-name="onesuperior" unicode="&#xb9;" horiz-adv-x="352" 
d="M253 577v-290l89 -21l-10 -32h-287l-10 32l91 21v200h-93l-8 29l205 82z" />
    <glyph glyph-name="ordmasculine" unicode="&#xba;" horiz-adv-x="454" 
d="M230 633q88 0 141 -47t53 -141q0 -95 -54 -140.5t-146 -45.5q-194 0 -194 186q0 92 55 140t145 48zM227 298q57 0 57 147t-58 147q-55 0 -55 -147q0 -72 12.5 -109.5t43.5 -37.5z" />
    <glyph glyph-name="guillemotright" unicode="&#xbb;" horiz-adv-x="485" 
d="M261 219l-155 -173l-76 9l104 164l-104 165l76 9zM455 219l-155 -173l-76 9l104 164l-104 165l76 9z" />
    <glyph glyph-name="onequarter" unicode="&#xbc;" horiz-adv-x="888" 
d="M253 577v-290l89 -21l-10 -32h-287l-10 32l91 21v200h-93l-8 29l205 82zM212 -39l434 667h66l-435 -667h-65zM798 123h70v-49h-70v-74h-127v74h-189v32l174 248h142v-231zM671 123v106l4 72h-4q-10 -23 -26 -48l-58 -85q-7 -12 -16.5 -23.5t-15.5 -16.5l-6 -6v-4
q14 5 47 5h75z" />
    <glyph glyph-name="onehalf" unicode="&#xbd;" horiz-adv-x="891" 
d="M253 577v-290l89 -21l-10 -32h-287l-10 32l91 21v200h-93l-8 29l205 82zM212 -39l434 667h66l-435 -667h-65zM653 86h198v-86h-288l-16 68q168 60 168 155q0 65 -55 65q-49 0 -54 -55q-1 -8 1 -24l-35 -7q-10 27 -10 50q-1 49 35 80.5t106 31.5q63 0 99.5 -32.5
t36.5 -92.5q0 -110 -186 -153z" />
    <glyph glyph-name="threequarters" unicode="&#xbe;" horiz-adv-x="849" 
d="M30 334l45 4q4 -61 63 -61t59 52q0 33 -21.5 48.5t-73.5 15.5l-5 30q81 9 81 64q0 45 -45 45q-20 0 -31 -11t-11 -29q0 -8 2 -18l-33 -9q-13 14 -13 38q0 39 31 67t100 28q62 0 97 -24t35 -70q0 -72 -101 -83v-4q114 -5 114 -92q0 -100 -163 -100q-130 0 -130 109z
M173 -39l434 667h66l-435 -667h-65zM759 123h70v-49h-70v-74h-127v74h-189v32l174 248h142v-231zM632 123v106l4 72h-4q-10 -23 -26 -48l-58 -85q-7 -12 -16.5 -23.5t-15.5 -16.5l-6 -6v-4q14 5 47 5h75z" />
    <glyph glyph-name="questiondown" unicode="&#xbf;" horiz-adv-x="418" 
d="M192 228h39q30 -32 30 -67q0 -26 -9.5 -40t-29.5 -30q-22 -16 -32 -32.5t-10 -45.5q0 -31 20.5 -52.5t55.5 -21.5q34 0 54.5 22.5t20.5 54.5q0 34 -28 64l30 22q55 -34 55 -106q0 -64 -45 -110t-134 -46q-88 0 -136 40t-48 108q0 62 26.5 92t79.5 55q21 10 28.5 14
t17.5 12t12.5 18t2.5 26v23zM297 359q0 -36 -25.5 -62t-61.5 -26t-62 26t-26 62t26 61.5t62 25.5t61.5 -25.5t25.5 -61.5z" />
    <glyph glyph-name="Agrave" unicode="&#xc0;" horiz-adv-x="613" 
d="M389 52l-35 95h-199l-33 -90l68 -22l-5 -35h-178l-7 30l46 29l198 529h125l197 -529l47 -29l-7 -30h-270l-6 38zM376 614l-145 57q-37 14 -50.5 41t5.5 57q20 29 52 27.5t56 -33.5l98 -125zM220 322l-44 -119h158l-43 120q-13 37 -21.5 70.5t-9.5 48.5l-2 15h-4
q-4 -53 -34 -135z" />
    <glyph glyph-name="Aacute" unicode="&#xc1;" horiz-adv-x="613" 
d="M389 52l-35 95h-199l-33 -90l68 -22l-5 -35h-178l-7 30l46 29l198 529h125l197 -529l47 -29l-7 -30h-270l-6 38zM382 680l-145 -57l-16 24l98 125q24 32 56 33.5t52 -27.5q19 -30 5.5 -57t-50.5 -41zM220 322l-44 -119h158l-43 120q-13 37 -21.5 70.5t-9.5 48.5l-2 15h-4
q-4 -53 -34 -135z" />
    <glyph glyph-name="Acircumflex" unicode="&#xc2;" horiz-adv-x="613" 
d="M389 52l-35 95h-199l-33 -90l68 -22l-5 -35h-178l-7 30l46 29l198 529h125l197 -529l47 -29l-7 -30h-270l-6 38zM292 774h40l156 -156h-152l-65 69l-71 -69h-64zM220 322l-44 -119h158l-43 120q-13 37 -21.5 70.5t-9.5 48.5l-2 15h-4q-4 -53 -34 -135z" />
    <glyph glyph-name="Atilde" unicode="&#xc3;" horiz-adv-x="613" 
d="M389 52l-35 95h-199l-33 -90l68 -22l-5 -35h-178l-7 30l46 29l198 529h125l197 -529l47 -29l-7 -30h-270l-6 38zM317 650l-62 25q-24 10 -44 10q-50 0 -53 -59l-30 5q-9 25 -9 48q0 46 31 74t79 28q29 0 61 -12l60 -22q35 -13 54 -13q39 0 46 51l30 -4q9 -30 9 -54
q0 -44 -26.5 -68.5t-70.5 -24.5q-36 0 -75 16zM220 322l-44 -119h158l-43 120q-13 37 -21.5 70.5t-9.5 48.5l-2 15h-4q-4 -53 -34 -135z" />
    <glyph glyph-name="Adieresis" unicode="&#xc4;" horiz-adv-x="613" 
d="M389 52l-35 95h-199l-33 -90l68 -22l-5 -35h-178l-7 30l46 29l198 529h125l197 -529l47 -29l-7 -30h-270l-6 38zM323 692q0 35 22 54t55 19q36 0 58 -18.5t22 -54.5q0 -34 -22 -52.5t-58 -18.5q-33 0 -55 19t-22 52zM126 693q0 35 22 54t55 19q36 0 57.5 -18.5
t21.5 -54.5q0 -34 -21.5 -52.5t-57.5 -18.5q-33 0 -55 18.5t-22 52.5zM220 322l-44 -119h158l-43 120q-13 37 -21.5 70.5t-9.5 48.5l-2 15h-4q-4 -53 -34 -135z" />
    <glyph glyph-name="Aring" unicode="&#xc5;" horiz-adv-x="613" 
d="M389 52l-35 95h-199l-33 -90l68 -22l-5 -35h-178l-7 30l46 29l198 529h125l197 -529l47 -29l-7 -30h-270l-6 38zM184 740q0 46 33 78t86 32q51 0 85.5 -32t34.5 -78q0 -48 -34.5 -81t-85.5 -33q-55 0 -87 32t-32 82zM220 322l-44 -119h158l-43 120q-13 37 -21.5 70.5
t-9.5 48.5l-2 15h-4q-4 -53 -34 -135zM240 737q0 -24 16.5 -40.5t46.5 -16.5q26 0 42.5 16.5t16.5 40.5q0 27 -16 44t-43 17q-29 0 -46 -17t-17 -44z" />
    <glyph glyph-name="AE" unicode="&#xc6;" horiz-adv-x="847" 
d="M272 588h526v-157l-21 -5l-91 106h-125v-209h80l47 79l22 -4v-208l-21 -4l-47 81h-81v-194l24 -17h114l102 132l26 -6l-20 -182h-460l-7 32l56 23v132h-189l-74 -131l69 -20l-5 -36h-190l-7 30l57 28l265 475l-57 23zM357 452l-119 -210h158v297h-4q-8 -39 -35 -87z" />
    <glyph glyph-name="Ccedilla" unicode="&#xc7;" horiz-adv-x="560" 
d="M200 -171l18 25q21 -21 53 -21q39 0 39 33q0 16 -8.5 26.5t-19.5 15t-34 11.5l30 74q-113 11 -178 85t-65 219q0 155 79.5 228t218.5 73q53 0 125 -19l61 19v-167l-21 -5l-50 52q-23 24 -35.5 35.5t-34.5 23t-45 11.5q-37 0 -61.5 -19t-41 -77t-16.5 -157
q0 -224 141 -224q92 0 164 54l21 -33q-33 -48 -90 -75t-124 -27h-5l-13 -30q42 -4 76 -25.5t34 -63.5q0 -46 -33 -67.5t-88 -21.5q-65 0 -97 47z" />
    <glyph glyph-name="Egrave" unicode="&#xc8;" horiz-adv-x="542" 
d="M337 267h-80v-194l24 -17h113l102 132l26 -6l-20 -182h-460l-7 32l57 23v478l-57 23l7 32h451v-157l-21 -5l-91 106h-124v-209h79l47 79l22 -4v-208l-21 -4zM368 614l-145 57q-37 14 -50.5 41t5.5 57q20 29 52 27.5t56 -33.5l98 -125z" />
    <glyph glyph-name="Eacute" unicode="&#xc9;" horiz-adv-x="542" 
d="M337 267h-80v-194l24 -17h113l102 132l26 -6l-20 -182h-460l-7 32l57 23v478l-57 23l7 32h451v-157l-21 -5l-91 106h-124v-209h79l47 79l22 -4v-208l-21 -4zM331 680l-145 -57l-16 24l98 125q24 32 56 33.5t52 -27.5q19 -30 5.5 -57t-50.5 -41z" />
    <glyph glyph-name="Ecircumflex" unicode="&#xca;" horiz-adv-x="542" 
d="M337 267h-80v-194l24 -17h113l102 132l26 -6l-20 -182h-460l-7 32l57 23v478l-57 23l7 32h451v-157l-21 -5l-91 106h-124v-209h79l47 79l22 -4v-208l-21 -4zM258 784h40l156 -156h-152l-65 69l-71 -69h-64z" />
    <glyph glyph-name="Edieresis" unicode="&#xcb;" horiz-adv-x="542" 
d="M337 267h-80v-194l24 -17h113l102 132l26 -6l-20 -182h-460l-7 32l57 23v478l-57 23l7 32h451v-157l-21 -5l-91 106h-124v-209h79l47 79l22 -4v-208l-21 -4zM107 693q0 35 22 54t55 19q36 0 57.5 -18.5t21.5 -54.5q0 -34 -21.5 -52.5t-57.5 -18.5q-33 0 -55 18.5
t-22 52.5zM304 692q0 35 22 54t55 19q36 0 58 -18.5t22 -54.5q0 -34 -22 -52.5t-58 -18.5q-33 0 -55 19t-22 52z" />
    <glyph glyph-name="Igrave" unicode="&#xcc;" horiz-adv-x="349" 
d="M42 588h265l7 -32l-57 -23v-478l57 -23l-7 -32h-265l-7 32l57 23v478l-57 23zM235 614l-145 57q-37 14 -50.5 41t5.5 57q20 29 52 27.5t56 -33.5l98 -125z" />
    <glyph glyph-name="Iacute" unicode="&#xcd;" horiz-adv-x="349" 
d="M42 588h265l7 -32l-57 -23v-478l57 -23l-7 -32h-265l-7 32l57 23v478l-57 23zM240 680l-145 -57l-16 24l98 125q24 32 56 33.5t52 -27.5q19 -30 5.5 -57t-50.5 -41z" />
    <glyph glyph-name="Icircumflex" unicode="&#xce;" horiz-adv-x="349" 
d="M42 588h269l8 -32l-62 -23v-478l62 -23l-8 -32h-269l-7 32l57 23v478l-57 23zM157 784h40l136 -156h-152l-43 59l-53 -59h-64z" />
    <glyph glyph-name="Idieresis" unicode="&#xcf;" horiz-adv-x="349" 
d="M6 693q0 35 22 54t55 19q36 0 57.5 -18.5t21.5 -54.5q0 -34 -21.5 -52.5t-57.5 -18.5q-33 0 -55 18.5t-22 52.5zM193 692q0 35 22 54t55 19q36 0 58 -18.5t22 -54.5q0 -34 -22 -52.5t-58 -18.5q-33 0 -55 19t-22 52zM42 588h265l7 -32l-57 -23v-478l57 -23l-7 -32h-265
l-7 32l57 23v478l-57 23z" />
    <glyph glyph-name="Eth" unicode="&#xd0;" horiz-adv-x="648" 
d="M35 267v56h57v210l-57 23l7 32h235q336 0 336 -285q0 -82 -26 -142.5t-72.5 -94.5t-102 -50t-121.5 -16h-249l-7 32l57 23v212h-57zM257 64l24 -16q93 4 127 61.5t34 187.5q0 127 -41.5 183.5t-131.5 56.5h-12v-214h99v-56h-99v-203z" />
    <glyph glyph-name="Ntilde" unicode="&#xd1;" horiz-adv-x="643" 
d="M164 291v-236l77 -23l-7 -32h-192l-7 32l57 23v478l-57 23l7 32h206l191 -266q20 -27 36 -56t22 -44l6 -16h4q-6 84 -6 159v168l-77 23l7 32h185l7 -32l-57 -23v-533h-93l-247 334q-20 27 -36 56t-22 44l-6 16h-4q6 -84 6 -159zM350 650l-62 25q-24 10 -44 10
q-50 0 -53 -59l-30 5q-9 25 -9 48q0 46 31 74t79 28q30 0 61 -12l60 -22q35 -13 54 -13q39 0 46 51l30 -4q9 -30 9 -54q0 -44 -26.5 -68.5t-70.5 -24.5q-36 0 -75 16z" />
    <glyph glyph-name="Ograve" unicode="&#xd2;" horiz-adv-x="646" 
d="M323 40q57 0 83 56t26 198t-26 198t-83 56t-83 -56t-26 -198t26 -198t83 -56zM323 -10q-139 0 -213.5 79.5t-74.5 224.5q0 146 74.5 225t213.5 79t213.5 -79t74.5 -225q0 -145 -74.5 -224.5t-213.5 -79.5zM396 614l-145 57q-37 14 -50.5 41t5.5 57q20 29 52 27.5
t56 -33.5l98 -125z" />
    <glyph glyph-name="Oacute" unicode="&#xd3;" horiz-adv-x="646" 
d="M323 40q57 0 83 56t26 198t-26 198t-83 56t-83 -56t-26 -198t26 -198t83 -56zM323 -10q-139 0 -213.5 79.5t-74.5 224.5q0 146 74.5 225t213.5 79t213.5 -79t74.5 -225q0 -145 -74.5 -224.5t-213.5 -79.5zM389 680l-145 -57l-16 24l98 125q24 32 56 33.5t52 -27.5
q19 -30 5.5 -57t-50.5 -41z" />
    <glyph glyph-name="Ocircumflex" unicode="&#xd4;" horiz-adv-x="646" 
d="M323 40q57 0 83 56t26 198t-26 198t-83 56t-83 -56t-26 -198t26 -198t83 -56zM323 -10q-139 0 -213.5 79.5t-74.5 224.5q0 146 74.5 225t213.5 79t213.5 -79t74.5 -225q0 -145 -74.5 -224.5t-213.5 -79.5zM310 784h40l156 -156h-152l-65 69l-71 -69h-64z" />
    <glyph glyph-name="Otilde" unicode="&#xd5;" horiz-adv-x="646" 
d="M323 40q57 0 83 56t26 198t-26 198t-83 56t-83 -56t-26 -198t26 -198t83 -56zM323 -10q-139 0 -213.5 79.5t-74.5 224.5q0 146 74.5 225t213.5 79t213.5 -79t74.5 -225q0 -145 -74.5 -224.5t-213.5 -79.5zM337 650l-62 25q-24 10 -44 10q-50 0 -53 -59l-30 5q-9 25 -9 48
q0 46 31 74t79 28q29 0 61 -12l60 -22q35 -13 54 -13q39 0 46 51l30 -4q9 -30 9 -54q0 -44 -26.5 -68.5t-70.5 -24.5q-36 0 -75 16z" />
    <glyph glyph-name="Odieresis" unicode="&#xd6;" horiz-adv-x="646" 
d="M323 40q57 0 83 56t26 198t-26 198t-83 56t-83 -56t-26 -198t26 -198t83 -56zM323 -10q-139 0 -213.5 79.5t-74.5 224.5q0 146 74.5 225t213.5 79t213.5 -79t74.5 -225q0 -145 -74.5 -224.5t-213.5 -79.5zM146 693q0 35 22 54t55 19q36 0 57.5 -18.5t21.5 -54.5
q0 -34 -21.5 -52.5t-57.5 -18.5q-33 0 -55 18.5t-22 52.5zM343 692q0 35 22 54t55 19q36 0 58 -18.5t22 -54.5q0 -34 -22 -52.5t-58 -18.5q-33 0 -55 19t-22 52z" />
    <glyph glyph-name="multiply" unicode="&#xd7;" horiz-adv-x="465" 
d="M55 127l119 119l-115 117l54 54l117 -116l121 122l56 -55l-123 -122l126 -126l-55 -54l-125 126l-120 -120z" />
    <glyph glyph-name="Oslash" unicode="&#xd8;" horiz-adv-x="646" 
d="M323 -9q-102 0 -168 36l-41 -56h-66l64 89q-77 74 -77 236q0 145 74.5 223.5t213.5 78.5q92 0 156 -35l41 55h67l-63 -86q87 -79 87 -236q0 -154 -71 -229.5t-217 -75.5zM432 296q0 55 -5 103l-197 -269q26 -88 93 -88q55 0 82 59.5t27 194.5zM323 548q-54 0 -81.5 -56.5
t-27.5 -195.5q0 -56 4 -92l194 267q-24 77 -89 77z" />
    <glyph glyph-name="Ugrave" unicode="&#xd9;" horiz-adv-x="624" 
d="M552 533v-326q0 -101 -61 -159t-170 -58q-113 0 -181 53.5t-68 164.5v325l-57 23l7 32h265l7 -32l-57 -23v-331q0 -139 119 -139q59 0 92 35t33 103v332l-77 23l7 32h191l7 -32zM388 614l-145 57q-37 14 -50.5 41t5.5 57q20 29 52 27.5t56 -33.5l98 -125z" />
    <glyph glyph-name="Uacute" unicode="&#xda;" horiz-adv-x="624" 
d="M552 533v-326q0 -101 -61 -159t-170 -58q-113 0 -181 53.5t-68 164.5v325l-57 23l7 32h265l7 -32l-57 -23v-331q0 -139 119 -139q59 0 92 35t33 103v332l-77 23l7 32h191l7 -32zM401 680l-145 -57l-16 24l98 125q24 32 56 33.5t52 -27.5q19 -30 5.5 -57t-50.5 -41z" />
    <glyph glyph-name="Ucircumflex" unicode="&#xdb;" horiz-adv-x="624" 
d="M552 533v-326q0 -101 -61 -159t-170 -58q-113 0 -181 53.5t-68 164.5v325l-57 23l7 32h265l7 -32l-57 -23v-331q0 -139 119 -139q59 0 92 35t33 103v332l-77 23l7 32h191l7 -32zM319 784h40l156 -156h-152l-65 69l-71 -69h-64z" />
    <glyph glyph-name="Udieresis" unicode="&#xdc;" horiz-adv-x="624" 
d="M552 533v-326q0 -101 -61 -159t-170 -58q-113 0 -181 53.5t-68 164.5v325l-57 23l7 32h265l7 -32l-57 -23v-331q0 -139 119 -139q59 0 92 35t33 103v332l-77 23l7 32h191l7 -32zM152 693q0 35 22 54t55 19q36 0 57.5 -18.5t21.5 -54.5q0 -34 -21.5 -52.5t-57.5 -18.5
q-33 0 -55 18.5t-22 52.5zM349 692q0 35 22 54t55 19q36 0 58 -18.5t22 -54.5q0 -34 -22 -52.5t-58 -18.5q-33 0 -55 19t-22 52z" />
    <glyph glyph-name="Yacute" unicode="&#xdd;" 
d="M224 536l77 -155q14 -28 22 -52t9 -34l1 -10h4q4 30 40 95l81 151l-70 22l5 35h180l7 -30l-46 -29l-161 -301v-167l95 -26l-8 -35h-339l-8 35l95 26v167l-161 301l-47 29l7 30h270l6 -38zM373 680l-145 -57l-16 24l98 125q24 32 56 33.5t52 -27.5q19 -30 5.5 -57
t-50.5 -41z" />
    <glyph glyph-name="Thorn" unicode="&#xde;" horiz-adv-x="573" 
d="M256 467h52q51 0 90.5 -6.5t76.5 -23t57.5 -50.5t20.5 -84q0 -175 -244 -175h-53v-63l105 -30l-8 -35h-311l-7 32l56 23v478l-56 23l7 32h269l8 -32l-63 -23v-66zM256 414v-233h31q55 0 77 27t22 95q0 57 -26.5 84t-71.5 27h-32z" />
    <glyph glyph-name="germandbls" unicode="&#xdf;" horiz-adv-x="656" 
d="M440 534q0 104 -93 104q-60 0 -82 -39t-22 -125v-474h-207v28l47 20v333h-63v43l63 16v25q0 60 23.5 104.5t64 69.5t88 36.5t102.5 11.5q95 0 155 -32.5t60 -104.5q0 -14 -2 -26.5t-8.5 -24t-10 -18t-16.5 -18t-17 -15t-21.5 -17t-21.5 -16.5q-24 -18 -31 -25.5t-7 -18.5
q0 -14 18 -29.5t76 -54.5q56 -38 81 -73t25 -84q0 -68 -48 -104t-136 -36q-47 0 -96 23l-55 -23l-14 159l25 6q46 -70 78.5 -97.5t66.5 -27.5q49 0 49 34q0 24 -18 44.5t-74 63.5q-39 30 -55 43.5t-30 36.5t-14 49q0 14 3.5 27.5t7 22t13.5 20t14 15.5t17.5 16.5t15.5 14.5
q29 27 39 53t10 64z" />
    <glyph glyph-name="agrave" unicode="&#xe0;" horiz-adv-x="491" 
d="M428 270v-171q0 -33 12 -43t43 -7l3 -19q-40 -40 -117 -40q-85 0 -96 67l-3 1q-31 -68 -126 -68q-51 0 -85 30t-34 89q0 65 48.5 97.5t133.5 32.5q31 0 61 -8v28q0 42 -26 64t-72 22q-57 0 -119 -22l-10 28q66 95 210 95q177 0 177 -176zM268 192h-20q-73 0 -73 -57
q0 -25 14 -41.5t36 -16.5q25 0 43 12v103zM287 484l-127 74q-34 20 -38.5 52t23.5 58q27 24 60 14t48 -46l55 -132z" />
    <glyph glyph-name="aacute" unicode="&#xe1;" horiz-adv-x="491" 
d="M428 270v-171q0 -33 12 -43t43 -7l3 -19q-40 -40 -117 -40q-85 0 -96 67l-3 1q-31 -68 -126 -68q-51 0 -85 30t-34 89q0 65 48.5 97.5t133.5 32.5q31 0 61 -8v28q0 42 -26 64t-72 22q-57 0 -119 -22l-10 28q66 95 210 95q177 0 177 -176zM268 192h-20q-73 0 -73 -57
q0 -25 14 -41.5t36 -16.5q25 0 43 12v103zM316 558l-127 -74l-21 20l55 132q15 36 48 46t60 -14q28 -26 23.5 -58t-38.5 -52z" />
    <glyph glyph-name="acircumflex" unicode="&#xe2;" horiz-adv-x="491" 
d="M428 270v-171q0 -33 12 -43t43 -7l3 -19q-40 -40 -117 -40q-85 0 -96 67l-3 1q-31 -68 -126 -68q-51 0 -85 30t-34 89q0 65 48.5 97.5t133.5 32.5q31 0 61 -8v28q0 42 -26 64t-72 22q-57 0 -119 -22l-10 28q66 95 210 95q177 0 177 -176zM268 192h-20q-73 0 -73 -57
q0 -25 14 -41.5t36 -16.5q25 0 43 12v103zM216 672h40l156 -190h-143l-69 93l-74 -93h-66z" />
    <glyph glyph-name="atilde" unicode="&#xe3;" horiz-adv-x="491" 
d="M428 270v-171q0 -33 12 -43t43 -7l3 -19q-40 -40 -117 -40q-85 0 -96 67l-3 1q-31 -68 -126 -68q-51 0 -85 30t-34 89q0 65 48.5 97.5t133.5 32.5q31 0 61 -8v28q0 42 -26 64t-72 22q-57 0 -119 -22l-10 28q66 95 210 95q177 0 177 -176zM268 192h-20q-73 0 -73 -57
q0 -25 14 -41.5t36 -16.5q25 0 43 12v103zM253 508l-58 25q-23 10 -42 10q-47 0 -49 -59l-29 5q-8 27 -8 48q0 46 29 74t74 28q28 0 57 -12l57 -22q32 -13 50 -13q38 0 43 51l29 -4q8 -32 8 -54q0 -44 -25 -68.5t-66 -24.5q-34 0 -70 16z" />
    <glyph glyph-name="adieresis" unicode="&#xe4;" horiz-adv-x="491" 
d="M428 270v-171q0 -33 12 -43t43 -7l3 -19q-40 -40 -117 -40q-85 0 -96 67l-3 1q-31 -68 -126 -68q-51 0 -85 30t-34 89q0 65 48.5 97.5t133.5 32.5q31 0 61 -8v28q0 42 -26 64t-72 22q-57 0 -119 -22l-10 28q66 95 210 95q177 0 177 -176zM268 192h-20q-73 0 -73 -57
q0 -25 14 -41.5t36 -16.5q25 0 43 12v103zM66 566q0 35 22 54t55 19q36 0 57.5 -18.5t21.5 -54.5q0 -34 -21.5 -52.5t-57.5 -18.5q-33 0 -55 18.5t-22 52.5zM263 565q0 35 22 54t55 19q36 0 58 -18.5t22 -54.5q0 -34 -22 -52.5t-58 -18.5q-33 0 -55 19t-22 52z" />
    <glyph glyph-name="aring" unicode="&#xe5;" horiz-adv-x="491" 
d="M428 270v-171q0 -33 12 -43t43 -7l3 -19q-40 -40 -117 -40q-85 0 -96 67l-3 1q-31 -68 -126 -68q-51 0 -85 30t-34 89q0 65 48.5 97.5t133.5 32.5q31 0 61 -8v28q0 42 -26 64t-72 22q-57 0 -119 -22l-10 28q66 95 210 95q177 0 177 -176zM268 192h-20q-73 0 -73 -57
q0 -25 14 -41.5t36 -16.5q25 0 43 12v103zM125 596q0 46 33 78t86 32q51 0 85.5 -32t34.5 -78q0 -48 -34.5 -81t-85.5 -33q-55 0 -87 32t-32 82zM181 593q0 -24 16.5 -40.5t46.5 -16.5q26 0 42.5 16.5t16.5 40.5q0 27 -16 44t-43 17q-29 0 -46 -17t-17 -44z" />
    <glyph glyph-name="ae" unicode="&#xe6;" horiz-adv-x="696" 
d="M415 212q5 -124 122 -124q30 0 50.5 8t47.5 29l22 -21q-39 -113 -187 -113q-110 0 -167 73q-47 -73 -144 -73q-64 0 -99 30.5t-35 87.5q0 78 56 109.5t180 35.5q0 4 1 9t2.5 11.5t2.5 9.5q-5 30 -30 48.5t-62 18.5q-61 0 -120 -29l-13 29q31 46 85 70.5t120 24.5
q69 0 108 -39q61 39 137 39q80 0 127 -43t47 -122q0 -29 -6 -57zM486 398q-62 0 -70 -137l114 9q4 18 4 43q0 85 -48 85zM223 78q34 0 60 16q-25 48 -25 114q-48 -4 -69.5 -20t-21.5 -52q0 -26 15 -42t41 -16z" />
    <glyph glyph-name="ccedilla" unicode="&#xe7;" horiz-adv-x="449" 
d="M127 -171l18 25q21 -21 53 -21q39 0 39 33q0 16 -8.5 26.5t-19.5 15t-34 11.5l30 74q-80 11 -127.5 67.5t-47.5 149.5q0 118 71 177t172 59q71 0 113 -28.5t42 -81.5q0 -33 -19.5 -53.5t-50.5 -20.5q-30 0 -49.5 19.5t-19.5 47.5q0 40 30 63q-12 7 -32 7q-97 0 -97 -165
q0 -69 31 -108.5t86 -39.5q31 0 52 8.5t48 29.5l22 -21q-23 -58 -66.5 -84.5t-114.5 -28.5l-13 -30q42 -4 76 -25.5t34 -63.5q0 -46 -33 -67.5t-88 -21.5q-65 0 -97 47z" />
    <glyph glyph-name="egrave" unicode="&#xe8;" horiz-adv-x="468" 
d="M187 221q5 -134 122 -134q30 0 50.5 8t47.5 29l22 -21q-39 -113 -187 -113q-93 0 -152.5 57t-59.5 163q0 110 67 173t167 63q80 0 127 -43t47 -122q0 -31 -6 -60h-245zM258 398q-62 0 -70 -128h114q4 18 4 43q0 85 -48 85zM296 484l-127 74q-34 20 -38.5 52t23.5 58
q27 24 60 14t48 -46l55 -132z" />
    <glyph glyph-name="eacute" unicode="&#xe9;" horiz-adv-x="468" 
d="M187 221q5 -134 122 -134q30 0 50.5 8t47.5 29l22 -21q-39 -113 -187 -113q-93 0 -152.5 57t-59.5 163q0 110 67 173t167 63q80 0 127 -43t47 -122q0 -31 -6 -60h-245zM258 398q-62 0 -70 -128h114q4 18 4 43q0 85 -48 85zM330 558l-127 -74l-21 20l55 132q15 36 48 46
t60 -14q28 -26 23.5 -58t-38.5 -52z" />
    <glyph glyph-name="ecircumflex" unicode="&#xea;" horiz-adv-x="468" 
d="M187 221q5 -134 122 -134q30 0 50.5 8t47.5 29l22 -21q-39 -113 -187 -113q-93 0 -152.5 57t-59.5 163q0 110 67 173t167 63q80 0 127 -43t47 -122q0 -31 -6 -60h-245zM258 398q-62 0 -70 -128h114q4 18 4 43q0 85 -48 85zM231 672h40l156 -190h-143l-69 93l-74 -93h-66z
" />
    <glyph glyph-name="edieresis" unicode="&#xeb;" horiz-adv-x="468" 
d="M187 221q5 -134 122 -134q30 0 50.5 8t47.5 29l22 -21q-39 -113 -187 -113q-93 0 -152.5 57t-59.5 163q0 110 67 173t167 63q80 0 127 -43t47 -122q0 -31 -6 -60h-245zM258 398q-62 0 -70 -128h114q4 18 4 43q0 85 -48 85zM79 566q0 35 22 54t55 19q36 0 57.5 -18.5
t21.5 -54.5q0 -34 -21.5 -52.5t-57.5 -18.5q-33 0 -55 18.5t-22 52.5zM276 565q0 35 22 54t55 19q36 0 58 -18.5t22 -54.5q0 -34 -22 -52.5t-58 -18.5q-33 0 -55 19t-22 52z" />
    <glyph glyph-name="igrave" unicode="&#xec;" horiz-adv-x="304" 
d="M233 48l51 -19l-13 -29h-235v28l37 20v262l-38 74v11l172 51h26v-398zM201 484l-127 74q-34 20 -38.5 52t23.5 58q27 24 60 14t48 -46l55 -132z" />
    <glyph glyph-name="iacute" unicode="&#xed;" horiz-adv-x="304" 
d="M233 48l51 -19l-13 -29h-235v28l37 20v262l-38 74v11l172 51h26v-398zM221 558l-127 -74l-21 20l55 132q15 36 48 46t60 -14q28 -26 23.5 -58t-38.5 -52z" />
    <glyph glyph-name="icircumflex" unicode="&#xee;" horiz-adv-x="304" 
d="M138 672h40l146 -190h-143l-57 82l-66 -82h-66zM233 48l51 -19l-13 -29h-235v28l37 20v262l-38 74v11l172 51h26v-398z" />
    <glyph glyph-name="idieresis" unicode="&#xef;" horiz-adv-x="304" 
d="M233 48l51 -19l-13 -29h-235v28l37 20v262l-38 74v11l172 51h26v-398zM-17 566q0 35 22 54t55 19q36 0 57.5 -18.5t21.5 -54.5q0 -34 -21.5 -52.5t-57.5 -18.5q-33 0 -55 18.5t-22 52.5zM180 565q0 35 22 54t55 19q36 0 58 -18.5t22 -54.5q0 -34 -22 -52.5t-58 -18.5
q-33 0 -55 19t-22 52z" />
    <glyph glyph-name="eth" unicode="&#xf0;" horiz-adv-x="539" 
d="M86 532l141 51q-44 37 -120 78l18 33q115 -29 192 -79l114 41l16 -47l-82 -29q144 -121 144 -317q0 -140 -65.5 -206t-177.5 -66q-111 0 -173.5 57t-62.5 179q0 108 61 163.5t152 55.5q54 0 87 -27q-17 74 -64 126l-164 -57zM344 262q0 59 -4 99q-23 30 -66 30
q-38 0 -57.5 -38t-19.5 -126q0 -190 70 -190q41 0 59 52t18 173z" />
    <glyph glyph-name="ntilde" unicode="&#xf1;" horiz-adv-x="588" 
d="M526 48l52 -19l-13 -29h-236v28l37 20v199q0 47 -19.5 70.5t-50.5 23.5q-33 0 -63 -30v-263l52 -19l-13 -29h-236v28l37 19v263l-38 74v11l172 51h25l-3 -89h4q28 43 64 66t93 23q63 0 99.5 -43.5t36.5 -119.5v-235zM315 508l-58 25q-23 10 -42 10q-47 0 -49 -59l-29 5
q-8 27 -8 48q0 46 29 74t74 28q28 0 57 -12l57 -22q32 -13 50 -13q38 0 43 51l29 -4q8 -32 8 -54q0 -44 -25 -68.5t-66 -24.5q-34 0 -70 16z" />
    <glyph glyph-name="ograve" unicode="&#xf2;" horiz-adv-x="534" 
d="M504 218q0 -111 -63.5 -169.5t-173.5 -58.5t-173.5 58.5t-63.5 169.5q0 112 63.5 170t173.5 58t173.5 -58t63.5 -170zM197 218q0 -96 14.5 -137.5t55.5 -41.5t55.5 41.5t14.5 137.5t-14.5 137.5t-55.5 41.5t-55.5 -41.5t-14.5 -137.5zM321 484l-127 74q-34 20 -38.5 52
t23.5 58q27 24 60 14t48 -46l55 -132z" />
    <glyph glyph-name="oacute" unicode="&#xf3;" horiz-adv-x="534" 
d="M504 218q0 -111 -63.5 -169.5t-173.5 -58.5t-173.5 58.5t-63.5 169.5q0 112 63.5 170t173.5 58t173.5 -58t63.5 -170zM197 218q0 -96 14.5 -137.5t55.5 -41.5t55.5 41.5t14.5 137.5t-14.5 137.5t-55.5 41.5t-55.5 -41.5t-14.5 -137.5zM333 558l-127 -74l-21 20l55 132
q15 36 48 46t60 -14q28 -26 23.5 -58t-38.5 -52z" />
    <glyph glyph-name="ocircumflex" unicode="&#xf4;" horiz-adv-x="534" 
d="M504 218q0 -111 -63.5 -169.5t-173.5 -58.5t-173.5 58.5t-63.5 169.5q0 112 63.5 170t173.5 58t173.5 -58t63.5 -170zM197 218q0 -96 14.5 -137.5t55.5 -41.5t55.5 41.5t14.5 137.5t-14.5 137.5t-55.5 41.5t-55.5 -41.5t-14.5 -137.5zM257 672h40l156 -190h-143l-69 93
l-74 -93h-66z" />
    <glyph glyph-name="otilde" unicode="&#xf5;" horiz-adv-x="534" 
d="M504 218q0 -111 -63.5 -169.5t-173.5 -58.5t-173.5 58.5t-63.5 169.5q0 112 63.5 170t173.5 58t173.5 -58t63.5 -170zM197 218q0 -96 14.5 -137.5t55.5 -41.5t55.5 41.5t14.5 137.5t-14.5 137.5t-55.5 41.5t-55.5 -41.5t-14.5 -137.5zM282 508l-58 25q-23 10 -42 10
q-47 0 -49 -59l-29 5q-8 27 -8 48q0 46 29 74t74 28q29 0 57 -12l57 -22q32 -13 50 -13q38 0 43 51l29 -4q8 -32 8 -54q0 -44 -25 -68.5t-66 -24.5q-34 0 -70 16z" />
    <glyph glyph-name="odieresis" unicode="&#xf6;" horiz-adv-x="534" 
d="M504 218q0 -111 -63.5 -169.5t-173.5 -58.5t-173.5 58.5t-63.5 169.5q0 112 63.5 170t173.5 58t173.5 -58t63.5 -170zM197 218q0 -96 14.5 -137.5t55.5 -41.5t55.5 41.5t14.5 137.5t-14.5 137.5t-55.5 41.5t-55.5 -41.5t-14.5 -137.5zM92 566q0 35 22 54t55 19
q36 0 57.5 -18.5t21.5 -54.5q0 -34 -21.5 -52.5t-57.5 -18.5q-33 0 -55 18.5t-22 52.5zM289 565q0 35 22 54t55 19q36 0 58 -18.5t22 -54.5q0 -34 -22 -52.5t-58 -18.5q-33 0 -55 19t-22 52z" />
    <glyph glyph-name="divide" unicode="&#xf7;" horiz-adv-x="496" 
d="M441 206h-386v77h386v-77zM188 95q0 23 16.5 40t38.5 17q24 0 40.5 -17t16.5 -40t-16.5 -39t-40.5 -16q-23 0 -39 16t-16 39zM188 390q0 23 16.5 40t38.5 17q24 0 40.5 -17t16.5 -40t-16.5 -39.5t-40.5 -16.5q-23 0 -39 16.5t-16 39.5z" />
    <glyph glyph-name="oslash" unicode="&#xf8;" horiz-adv-x="539" 
d="M273 446q73 0 124 -25l35 45h67l-57 -73q67 -61 67 -176t-65.5 -170.5t-177.5 -55.5q-71 0 -122 21l-32 -41h-66l52 67q-68 56 -68 179q0 113 64.5 171t178.5 58zM195 216q0 -36 1 -52l135 173q-16 59 -64 59q-42 0 -57 -42t-15 -138zM268 37q40 0 57.5 44t17.5 135
q0 18 -2 48l-134 -171q17 -56 61 -56z" />
    <glyph glyph-name="ugrave" unicode="&#xf9;" horiz-adv-x="558" 
d="M332 310l-38 74v11l172 51h26v-347l46 -52v-21l-189 -31l-13 67h-4q-46 -72 -132 -72q-64 0 -105.5 37.5t-41.5 122.5v160l-38 74v11l172 51h26v-286q0 -79 56 -79q27 0 63 18v211zM316 484l-127 74q-34 20 -38.5 52t23.5 58q27 24 60 14t48 -46l55 -132z" />
    <glyph glyph-name="uacute" unicode="&#xfa;" horiz-adv-x="558" 
d="M332 310l-38 74v11l172 51h26v-347l46 -52v-21l-189 -31l-13 67h-4q-46 -72 -132 -72q-64 0 -105.5 37.5t-41.5 122.5v160l-38 74v11l172 51h26v-286q0 -79 56 -79q27 0 63 18v211zM377 558l-127 -74l-21 20l55 132q15 36 48 46t60 -14q28 -26 23.5 -58t-38.5 -52z" />
    <glyph glyph-name="ucircumflex" unicode="&#xfb;" horiz-adv-x="558" 
d="M332 310l-38 74v11l172 51h26v-347l46 -52v-21l-189 -31l-13 67h-4q-46 -72 -132 -72q-64 0 -105.5 37.5t-41.5 122.5v160l-38 74v11l172 51h26v-286q0 -79 56 -79q27 0 63 18v211zM262 672h40l156 -190h-143l-69 93l-74 -93h-66z" />
    <glyph glyph-name="udieresis" unicode="&#xfc;" horiz-adv-x="558" 
d="M332 310l-38 74v11l172 51h26v-347l46 -52v-21l-189 -31l-13 67h-4q-46 -72 -132 -72q-64 0 -105.5 37.5t-41.5 122.5v160l-38 74v11l172 51h26v-286q0 -79 56 -79q27 0 63 18v211zM99 566q0 35 22 54t55 19q36 0 57.5 -18.5t21.5 -54.5q0 -34 -21.5 -52.5t-57.5 -18.5
q-33 0 -55 18.5t-22 52.5zM296 565q0 35 22 54t55 19q36 0 58 -18.5t22 -54.5q0 -34 -22 -52.5t-58 -18.5q-33 0 -55 19t-22 52z" />
    <glyph glyph-name="yacute" unicode="&#xfd;" horiz-adv-x="503" 
d="M225 -56l-183 425l-47 32l7 35h263l6 -38l-64 -15l61 -150q12 -31 19.5 -59t8.5 -40l2 -13h4q6 43 31 113l52 147l-61 17l5 38h173l6 -35l-46 -15l-152 -403q-37 -99 -86.5 -150.5t-128.5 -51.5q-50 0 -74.5 25t-24.5 65q0 35 20 55.5t54 20.5q36 0 53 -20.5t17 -49.5
q0 -26 -21 -47q33 4 62.5 37t43.5 77zM339 558l-127 -74l-21 20l55 132q15 36 48 46t60 -14q28 -26 23.5 -58t-38.5 -52z" />
    <glyph glyph-name="thorn" unicode="&#xfe;" horiz-adv-x="566" 
d="M279 -9q-40 0 -62 8v-161l70 -19l-13 -29h-264v28l47 17v733l-40 60v11l174 42h26v-305h4q19 29 53.5 49.5t80.5 20.5q81 0 131 -55t50 -157q0 -56 -17 -99.5t-43.5 -70t-62 -43.5t-68.5 -23.5t-66 -6.5zM217 336v-278q23 -10 47 -10q48 0 78.5 39t30.5 124
q0 72 -29.5 102t-85.5 30q-22 0 -41 -7z" />
    <glyph glyph-name="ydieresis" unicode="&#xff;" horiz-adv-x="503" 
d="M225 -56l-183 425l-47 32l7 35h263l6 -38l-64 -15l61 -150q12 -31 19.5 -59t8.5 -40l2 -13h4q6 43 31 113l52 147l-61 17l5 38h173l6 -35l-46 -15l-152 -403q-37 -99 -86.5 -150.5t-128.5 -51.5q-50 0 -74.5 25t-24.5 65q0 35 20 55.5t54 20.5q36 0 53 -20.5t17 -49.5
q0 -26 -21 -47q33 4 62.5 37t43.5 77zM89 566q0 35 22 54t55 19q36 0 57.5 -18.5t21.5 -54.5q0 -34 -21.5 -52.5t-57.5 -18.5q-33 0 -55 18.5t-22 52.5zM286 565q0 35 22 54t55 19q36 0 58 -18.5t22 -54.5q0 -34 -22 -52.5t-58 -18.5q-33 0 -55 19t-22 52z" />
    <glyph glyph-name="Amacron" unicode="&#x100;" horiz-adv-x="613" 
d="M389 52l-35 95h-199l-33 -90l68 -22l-5 -35h-178l-7 30l46 29l198 529h125l197 -529l47 -29l-7 -30h-270l-6 38zM461 654h-319v81h319v-81zM220 322l-44 -119h158l-43 120q-13 37 -21.5 70.5t-9.5 48.5l-2 15h-4q-4 -53 -34 -135z" />
    <glyph glyph-name="amacron" unicode="&#x101;" horiz-adv-x="491" 
d="M428 270v-171q0 -33 12 -43t43 -7l3 -19q-40 -40 -117 -40q-85 0 -96 67l-3 1q-31 -68 -126 -68q-51 0 -85 30t-34 89q0 65 48.5 97.5t133.5 32.5q31 0 61 -8v28q0 42 -26 64t-72 22q-57 0 -119 -22l-10 28q66 95 210 95q177 0 177 -176zM268 192h-20q-73 0 -73 -57
q0 -25 14 -41.5t36 -16.5q25 0 43 12v103zM380 507h-289v81h289v-81z" />
    <glyph glyph-name="Abreve" unicode="&#x102;" horiz-adv-x="613" 
d="M389 52l-35 95h-199l-33 -90l68 -22l-5 -35h-178l-7 30l46 29l198 529h125l197 -529l47 -29l-7 -30h-270l-6 38zM300 717q77 0 91 66h52q0 -73 -37.5 -114t-105.5 -41t-105.5 41t-37.5 114h52q14 -66 91 -66zM220 322l-44 -119h158l-43 120q-13 37 -21.5 70.5t-9.5 48.5
l-2 15h-4q-4 -53 -34 -135z" />
    <glyph glyph-name="abreve" unicode="&#x103;" horiz-adv-x="491" 
d="M428 270v-171q0 -33 12 -43t43 -7l3 -19q-40 -40 -117 -40q-85 0 -96 67l-3 1q-31 -68 -126 -68q-51 0 -85 30t-34 89q0 65 48.5 97.5t133.5 32.5q31 0 61 -8v28q0 42 -26 64t-72 22q-57 0 -119 -22l-10 28q66 95 210 95q177 0 177 -176zM268 192h-20q-73 0 -73 -57
q0 -25 14 -41.5t36 -16.5q25 0 43 12v103zM235 579q44 0 71 24t27 61h47q1 -8 1 -23q0 -66 -39.5 -108.5t-106.5 -42.5t-106.5 42.5t-39.5 108.5q0 15 1 23h47q0 -37 27 -61t71 -24z" />
    <glyph glyph-name="Aogonek" unicode="&#x104;" horiz-adv-x="613" 
d="M191 -113q0 50 36.5 83t104.5 60l57 22l-35 95h-199l-33 -90l68 -22l-5 -35h-178l-7 30l46 29l198 529h125l197 -529l47 -29l-7 -30h-233q-62 -30 -62 -85q0 -24 12.5 -36t33.5 -12q34 0 66 29l16 -21q-32 -90 -132 -90q-47 0 -81.5 24t-34.5 78zM220 322l-44 -119h158
l-43 120q-13 37 -21.5 70.5t-9.5 48.5l-2 15h-4q-4 -53 -34 -135z" />
    <glyph glyph-name="aogonek" unicode="&#x105;" horiz-adv-x="491" 
d="M240 -113q0 72 87 111q-47 12 -54 59l-3 1q-31 -68 -126 -68q-51 0 -85 30t-34 89q0 65 48.5 97.5t133.5 32.5q31 0 61 -8v28q0 42 -26 64t-72 22q-57 0 -119 -22l-10 28q66 95 210 95q177 0 177 -176v-168q0 -33 12 -43t43 -7l3 -19q-13 -8 -42.5 -23.5t-43.5 -24.5
t-27 -27.5t-13 -42.5t12.5 -36t33.5 -12q34 0 66 29l16 -21q-32 -90 -132 -90q-47 0 -81.5 24t-34.5 78zM268 192h-20q-73 0 -73 -57q0 -25 14 -41.5t36 -16.5q25 0 43 12v103z" />
    <glyph glyph-name="Cacute" unicode="&#x106;" horiz-adv-x="560" 
d="M35 297q0 155 79.5 228t218.5 73q53 0 125 -19l61 19v-167l-21 -5l-50 52q-23 24 -35.5 35.5t-34.5 23t-45 11.5q-37 0 -61.5 -19t-41 -77t-16.5 -157q0 -224 141 -224q92 0 164 54l21 -33q-33 -48 -90 -75t-124 -27q-134 0 -212.5 73.5t-78.5 233.5zM378 680l-145 -57
l-16 24l98 125q24 32 56 33.5t52 -27.5q19 -30 5.5 -57t-50.5 -41z" />
    <glyph glyph-name="cacute" unicode="&#x107;" horiz-adv-x="449" 
d="M319 392q-12 7 -32 7q-97 0 -97 -165q0 -69 31 -108.5t86 -39.5q31 0 52 8.5t48 29.5l22 -21q-23 -59 -68 -86t-119 -27q-95 0 -153.5 58.5t-58.5 161.5q0 118 71 177t172 59q71 0 113 -28.5t42 -81.5q0 -33 -19.5 -53.5t-50.5 -20.5q-30 0 -49.5 19.5t-19.5 47.5
q0 40 30 63zM349 558l-127 -74l-21 20l55 132q15 36 48 46t60 -14q28 -26 23.5 -58t-38.5 -52z" />
    <glyph glyph-name="Ccircumflex" unicode="&#x108;" horiz-adv-x="560" 
d="M35 297q0 155 79.5 228t218.5 73q53 0 125 -19l61 19v-167l-21 -5l-50 52q-23 24 -35.5 35.5t-34.5 23t-45 11.5q-37 0 -61.5 -19t-41 -77t-16.5 -157q0 -224 141 -224q92 0 164 54l21 -33q-33 -48 -90 -75t-124 -27q-134 0 -212.5 73.5t-78.5 233.5zM314 784h40
l156 -156h-152l-65 69l-71 -69h-64z" />
    <glyph glyph-name="ccircumflex" unicode="&#x109;" horiz-adv-x="449" 
d="M319 392q-12 7 -32 7q-97 0 -97 -165q0 -69 31 -108.5t86 -39.5q31 0 52 8.5t48 29.5l22 -21q-23 -59 -68 -86t-119 -27q-95 0 -153.5 58.5t-58.5 161.5q0 118 71 177t172 59q71 0 113 -28.5t42 -81.5q0 -33 -19.5 -53.5t-50.5 -20.5q-30 0 -49.5 19.5t-19.5 47.5
q0 40 30 63zM239 672h40l156 -190h-143l-69 93l-74 -93h-66z" />
    <glyph glyph-name="Cdotaccent" unicode="&#x10a;" horiz-adv-x="560" 
d="M35 297q0 155 79.5 228t218.5 73q53 0 125 -19l61 19v-167l-21 -5l-50 52q-23 24 -35.5 35.5t-34.5 23t-45 11.5q-37 0 -61.5 -19t-41 -77t-16.5 -157q0 -224 141 -224q92 0 164 54l21 -33q-33 -48 -90 -75t-124 -27q-134 0 -212.5 73.5t-78.5 233.5zM227 714
q0 39 25 59.5t62 20.5q39 0 64 -20.5t25 -59.5t-25 -59.5t-64 -20.5q-37 0 -62 20.5t-25 59.5z" />
    <glyph glyph-name="cdotaccent" unicode="&#x10b;" horiz-adv-x="449" 
d="M319 392q-12 7 -32 7q-97 0 -97 -165q0 -69 31 -108.5t86 -39.5q31 0 52 8.5t48 29.5l22 -21q-23 -59 -68 -86t-119 -27q-95 0 -153.5 58.5t-58.5 161.5q0 118 71 177t172 59q71 0 113 -28.5t42 -81.5q0 -33 -19.5 -53.5t-50.5 -20.5q-30 0 -49.5 19.5t-19.5 47.5
q0 40 30 63zM171 577q0 39 25 59.5t62 20.5q39 0 64 -20.5t25 -59.5t-25 -59.5t-64 -20.5q-37 0 -62 20.5t-25 59.5z" />
    <glyph glyph-name="Ccaron" unicode="&#x10c;" horiz-adv-x="560" 
d="M35 297q0 155 79.5 228t218.5 73q53 0 125 -19l61 19v-167l-21 -5l-50 52q-23 24 -35.5 35.5t-34.5 23t-45 11.5q-37 0 -61.5 -19t-41 -77t-16.5 -157q0 -224 141 -224q92 0 164 54l21 -33q-33 -48 -90 -75t-124 -27q-134 0 -212.5 73.5t-78.5 233.5zM333 620h-40
l-156 156h152l59 -71l75 71h66z" />
    <glyph glyph-name="ccaron" unicode="&#x10d;" horiz-adv-x="449" 
d="M319 392q-12 7 -32 7q-97 0 -97 -165q0 -69 31 -108.5t86 -39.5q31 0 52 8.5t48 29.5l22 -21q-23 -59 -68 -86t-119 -27q-95 0 -153.5 58.5t-58.5 161.5q0 118 71 177t172 59q71 0 113 -28.5t42 -81.5q0 -33 -19.5 -53.5t-50.5 -20.5q-30 0 -49.5 19.5t-19.5 47.5
q0 40 30 63zM277 482h-40l-156 190h143l69 -93l74 93h66z" />
    <glyph glyph-name="Dcaron" unicode="&#x10e;" horiz-adv-x="648" 
d="M42 588h235q336 0 336 -285q0 -82 -26 -142.5t-72.5 -94.5t-102 -50t-121.5 -16h-249l-7 32l57 23v478l-57 23zM257 64l24 -16q93 4 127 61.5t34 187.5q0 127 -41.5 183.5t-131.5 56.5h-12v-473zM318 620h-40l-156 156h152l59 -71l75 71h66z" />
    <glyph glyph-name="dcaron" unicode="&#x10f;" horiz-adv-x="575" 
d="M193 238q0 -80 31 -118t103 -38q10 0 22 2v276q-23 35 -66 35q-41 0 -65.5 -40t-24.5 -117zM361 55l-3 1q-50 -66 -136 -66q-92 0 -142 56.5t-50 156.5q0 121 66.5 182t165.5 61q51 0 87 -17v139l-40 60v11l174 42h26v-590l46 -46v-20l-186 -31zM559 467l9 145
q2 34 14 49t37 13q26 0 47.5 -17t17.5 -43q-3 -17 -13 -32l-72 -124z" />
    <glyph glyph-name="Dcroat" unicode="&#x110;" horiz-adv-x="648" 
d="M35 267v56h57v210l-57 23l7 32h235q336 0 336 -285q0 -82 -26 -142.5t-72.5 -94.5t-102 -50t-121.5 -16h-249l-7 32l57 23v212h-57zM257 64l24 -16q93 4 127 61.5t34 187.5q0 127 -41.5 183.5t-131.5 56.5h-12v-214h99v-56h-99v-203z" />
    <glyph glyph-name="dcroat" unicode="&#x111;" horiz-adv-x="575" 
d="M361 55l-3 1q-50 -66 -136 -66q-92 0 -142 56.5t-50 156.5q0 121 66.5 182t165.5 61q51 0 87 -17v76h-153v51h153v12l-40 60v11l174 42h26v-125h56v-51h-56v-414l46 -46v-20l-186 -31zM193 238q0 -80 31 -118t103 -38q10 0 22 2v276q-23 35 -66 35q-41 0 -65.5 -40
t-24.5 -117z" />
    <glyph glyph-name="Emacron" unicode="&#x112;" horiz-adv-x="542" 
d="M337 267h-80v-194l24 -17h113l102 132l26 -6l-20 -182h-460l-7 32l57 23v478l-57 23l7 32h451v-157l-21 -5l-91 106h-124v-209h79l47 79l22 -4v-208l-21 -4zM442 654h-319v81h319v-81z" />
    <glyph glyph-name="emacron" unicode="&#x113;" horiz-adv-x="468" 
d="M187 221q5 -134 122 -134q30 0 50.5 8t47.5 29l22 -21q-39 -113 -187 -113q-93 0 -152.5 57t-59.5 163q0 110 67 173t167 63q80 0 127 -43t47 -122q0 -31 -6 -60h-245zM258 398q-62 0 -70 -128h114q4 18 4 43q0 85 -48 85zM390 507h-289v81h289v-81z" />
    <glyph glyph-name="Ebreve" unicode="&#x114;" horiz-adv-x="542" 
d="M337 267h-80v-194l24 -17h113l102 132l26 -6l-20 -182h-460l-7 32l57 23v478l-57 23l7 32h451v-157l-21 -5l-91 106h-124v-209h79l47 79l22 -4v-208l-21 -4zM288 717q77 0 91 66h52q0 -73 -37.5 -114t-105.5 -41t-105.5 41t-37.5 114h52q14 -66 91 -66z" />
    <glyph glyph-name="ebreve" unicode="&#x115;" horiz-adv-x="468" 
d="M187 221q5 -134 122 -134q30 0 50.5 8t47.5 29l22 -21q-39 -113 -187 -113q-93 0 -152.5 57t-59.5 163q0 110 67 173t167 63q80 0 127 -43t47 -122q0 -31 -6 -60h-245zM258 398q-62 0 -70 -128h114q4 18 4 43q0 85 -48 85zM246 579q44 0 71 24t27 61h47q1 -8 1 -23
q0 -66 -39.5 -108.5t-106.5 -42.5t-106.5 42.5t-39.5 108.5q0 15 1 23h47q0 -37 27 -61t71 -24z" />
    <glyph glyph-name="Edotaccent" unicode="&#x116;" horiz-adv-x="542" 
d="M337 267h-80v-194l24 -17h113l102 132l26 -6l-20 -182h-460l-7 32l57 23v478l-57 23l7 32h451v-157l-21 -5l-91 106h-124v-209h79l47 79l22 -4v-208l-21 -4zM201 714q0 39 25 59.5t62 20.5q39 0 64 -20.5t25 -59.5t-25 -59.5t-64 -20.5q-37 0 -62 20.5t-25 59.5z" />
    <glyph glyph-name="edotaccent" unicode="&#x117;" horiz-adv-x="468" 
d="M187 221q5 -134 122 -134q30 0 50.5 8t47.5 29l22 -21q-39 -113 -187 -113q-93 0 -152.5 57t-59.5 163q0 110 67 173t167 63q80 0 127 -43t47 -122q0 -31 -6 -60h-245zM258 398q-62 0 -70 -128h114q4 18 4 43q0 85 -48 85zM169 577q0 39 25 59.5t62 20.5q39 0 64 -20.5
t25 -59.5t-25 -59.5t-64 -20.5q-37 0 -62 20.5t-25 59.5z" />
    <glyph glyph-name="Eogonek" unicode="&#x118;" horiz-adv-x="542" 
d="M259 -113q0 74 92 113h-309l-7 32l57 23v478l-57 23l7 32h451v-157l-21 -5l-91 106h-124v-209h79l47 79l22 -4v-208l-21 -4l-47 81h-80v-194l24 -17h113l102 132l26 -6l-20 -182h-61q-62 -30 -62 -85q0 -24 12.5 -36t33.5 -12q34 0 66 29l16 -21q-32 -90 -132 -90
q-47 0 -81.5 24t-34.5 78z" />
    <glyph glyph-name="eogonek" unicode="&#x119;" horiz-adv-x="468" 
d="M146 -113q0 72 65 105q-81 9 -131 65t-50 153q0 110 67 173t167 63q80 0 127 -43t47 -122q0 -31 -6 -60h-245q5 -134 122 -134q30 0 50.5 8t47.5 29l22 -21q-15 -41 -43.5 -65t-71.5 -40q-48 -18 -48 -83q0 -24 12.5 -36t33.5 -12q34 0 66 29l16 -21q-32 -90 -132 -90
q-47 0 -81.5 24t-34.5 78zM258 398q-62 0 -70 -128h114q4 18 4 43q0 85 -48 85z" />
    <glyph glyph-name="Ecaron" unicode="&#x11a;" horiz-adv-x="542" 
d="M337 267h-80v-194l24 -17h113l102 132l26 -6l-20 -182h-460l-7 32l57 23v478l-57 23l7 32h451v-157l-21 -5l-91 106h-124v-209h79l47 79l22 -4v-208l-21 -4zM300 620h-40l-156 156h152l59 -71l75 71h66z" />
    <glyph glyph-name="ecaron" unicode="&#x11b;" horiz-adv-x="468" 
d="M187 221q5 -134 122 -134q30 0 50.5 8t47.5 29l22 -21q-39 -113 -187 -113q-93 0 -152.5 57t-59.5 163q0 110 67 173t167 63q80 0 127 -43t47 -122q0 -31 -6 -60h-245zM258 398q-62 0 -70 -128h114q4 18 4 43q0 85 -48 85zM264 482h-40l-156 190h143l69 -93l74 93h66z
" />
    <glyph glyph-name="Gcircumflex" unicode="&#x11c;" horiz-adv-x="617" 
d="M214 295q0 -251 110 -251q51 0 80 24v164l-54 23l7 32h237l8 -32l-46 -23v-241h-40l-46 52q-70 -53 -156 -53q-57 0 -105.5 17t-88 52t-62.5 96t-23 142q0 154 83 227.5t224 73.5q53 0 125 -19l61 19v-167l-21 -5l-50 52q-23 24 -35.5 35.5t-34.5 23t-45 11.5
q-28 0 -49 -11t-40 -37t-29 -78t-10 -127zM325 784h40l156 -156h-152l-65 69l-71 -69h-64z" />
    <glyph glyph-name="gcircumflex" unicode="&#x11d;" horiz-adv-x="509" 
d="M249 692h40l156 -180h-143l-69 83l-74 -83h-66zM180 99h164q165 0 165 -151q0 -46 -22 -80t-60 -53t-83.5 -28t-98.5 -9q-225 0 -225 98q0 77 120 84v3q-48 5 -74 31t-26 69q0 41 27.5 66.5t72.5 35.5q-97 32 -97 125q0 70 53 113t151 43q103 0 164 -31q-6 9 -6 24
q0 25 16.5 40.5t42.5 15.5t43 -16.5t17 -44.5q0 -31 -18 -47t-45 -16q-25 0 -80 22v-11q61 -26 61 -94q0 -67 -58.5 -102.5t-137.5 -35.5q-37 0 -65 7q-31 -9 -31 -32q0 -26 30 -26zM183 -46q-37 -18 -37 -56q0 -75 105 -75q132 0 132 74q0 57 -78 57h-122zM293 298
q0 56 -9 79.5t-41 23.5q-31 0 -40 -23.5t-9 -79.5q0 -55 9 -78.5t40 -23.5q32 0 41 23.5t9 78.5z" />
    <glyph glyph-name="Gbreve" unicode="&#x11e;" horiz-adv-x="617" 
d="M214 295q0 -251 110 -251q51 0 80 24v164l-54 23l7 32h237l8 -32l-46 -23v-241h-40l-46 52q-70 -53 -156 -53q-57 0 -105.5 17t-88 52t-62.5 96t-23 142q0 154 83 227.5t224 73.5q53 0 125 -19l61 19v-167l-21 -5l-50 52q-23 24 -35.5 35.5t-34.5 23t-45 11.5
q-28 0 -49 -11t-40 -37t-29 -78t-10 -127zM326 717q77 0 91 66h52q0 -73 -37.5 -114t-105.5 -41t-105.5 41t-37.5 114h52q14 -66 91 -66z" />
    <glyph glyph-name="gbreve" unicode="&#x11f;" horiz-adv-x="509" 
d="M180 99h164q165 0 165 -151q0 -46 -22 -80t-60 -53t-83.5 -28t-98.5 -9q-225 0 -225 98q0 77 120 84v3q-48 5 -74 31t-26 69q0 41 27.5 66.5t72.5 35.5q-97 32 -97 125q0 70 53 113t151 43q103 0 164 -31q-6 9 -6 24q0 25 16.5 40.5t42.5 15.5t43 -16.5t17 -44.5
q0 -31 -18 -47t-45 -16q-25 0 -80 22v-11q61 -26 61 -94q0 -67 -58.5 -102.5t-137.5 -35.5q-37 0 -65 7q-31 -9 -31 -32q0 -26 30 -26zM183 -46q-37 -18 -37 -56q0 -75 105 -75q132 0 132 74q0 57 -78 57h-122zM293 298q0 56 -9 79.5t-41 23.5q-31 0 -40 -23.5t-9 -79.5
q0 -55 9 -78.5t40 -23.5q32 0 41 23.5t9 78.5zM260 578q44 0 71 24t27 61h47q1 -8 1 -23q0 -66 -39.5 -108.5t-106.5 -42.5t-106.5 42.5t-39.5 108.5q0 15 1 23h47q0 -37 27 -61t71 -24z" />
    <glyph glyph-name="Gdotaccent" unicode="&#x120;" horiz-adv-x="617" 
d="M214 295q0 -251 110 -251q51 0 80 24v164l-54 23l7 32h237l8 -32l-46 -23v-241h-40l-46 52q-70 -53 -156 -53q-57 0 -105.5 17t-88 52t-62.5 96t-23 142q0 154 83 227.5t224 73.5q53 0 125 -19l61 19v-167l-21 -5l-50 52q-23 24 -35.5 35.5t-34.5 23t-45 11.5
q-28 0 -49 -11t-40 -37t-29 -78t-10 -127zM240 714q0 39 25 59.5t62 20.5q39 0 64 -20.5t25 -59.5t-25 -59.5t-64 -20.5q-37 0 -62 20.5t-25 59.5z" />
    <glyph glyph-name="gdotaccent" unicode="&#x121;" horiz-adv-x="509" 
d="M180 99h164q165 0 165 -151q0 -46 -22 -80t-60 -53t-83.5 -28t-98.5 -9q-225 0 -225 98q0 77 120 84v3q-48 5 -74 31t-26 69q0 41 27.5 66.5t72.5 35.5q-97 32 -97 125q0 70 53 113t151 43q103 0 164 -31q-6 9 -6 24q0 25 16.5 40.5t42.5 15.5t43 -16.5t17 -44.5
q0 -31 -18 -47t-45 -16q-25 0 -80 22v-11q61 -26 61 -94q0 -67 -58.5 -102.5t-137.5 -35.5q-37 0 -65 7q-31 -9 -31 -32q0 -26 30 -26zM183 -46q-37 -18 -37 -56q0 -75 105 -75q132 0 132 74q0 57 -78 57h-122zM293 298q0 56 -9 79.5t-41 23.5q-31 0 -40 -23.5t-9 -79.5
q0 -55 9 -78.5t40 -23.5q32 0 41 23.5t9 78.5zM179 577q0 39 25 59.5t62 20.5q39 0 64 -20.5t25 -59.5t-25 -59.5t-64 -20.5q-37 0 -62 20.5t-25 59.5z" />
    <glyph glyph-name="Gcommaaccent" unicode="&#x122;" horiz-adv-x="617" 
d="M214 295q0 -251 110 -251q51 0 80 24v164l-54 23l7 32h237l8 -32l-46 -23v-241h-40l-46 52q-70 -53 -156 -53q-57 0 -105.5 17t-88 52t-62.5 96t-23 142q0 154 83 227.5t224 73.5q53 0 125 -19l61 19v-167l-21 -5l-50 52q-23 24 -35.5 35.5t-34.5 23t-45 11.5
q-28 0 -49 -11t-40 -37t-29 -78t-10 -127zM372 -139h-8q-3 -16 -16 -23.5t-25 -7.5q-31 0 -48 19.5t-17 47.5q0 34 22.5 54t56.5 20q45 0 71 -28t26 -72q0 -63 -50.5 -96.5t-123.5 -35.5l-9 20q64 19 92.5 41.5t28.5 60.5z" />
    <glyph glyph-name="gcommaaccent" unicode="&#x123;" horiz-adv-x="509" 
d="M180 99h164q165 0 165 -151q0 -46 -22 -80t-60 -53t-83.5 -28t-98.5 -9q-225 0 -225 98q0 77 120 84v3q-48 5 -74 31t-26 69q0 41 27.5 66.5t72.5 35.5q-97 32 -97 125q0 70 53 113t151 43q103 0 164 -31q-6 9 -6 24q0 25 16.5 40.5t42.5 15.5t43 -16.5t17 -44.5
q0 -31 -18 -47t-45 -16q-25 0 -80 22v-11q61 -26 61 -94q0 -67 -58.5 -102.5t-137.5 -35.5q-37 0 -65 7q-31 -9 -31 -32q0 -26 30 -26zM183 -46q-37 -18 -37 -56q0 -75 105 -75q132 0 132 74q0 57 -78 57h-122zM293 298q0 56 -9 79.5t-41 23.5q-31 0 -40 -23.5t-9 -79.5
q0 -55 9 -78.5t40 -23.5q32 0 41 23.5t9 78.5zM237 591h8q3 16 16 23.5t25 7.5q31 0 48 -19.5t17 -47.5q0 -34 -22.5 -54t-56.5 -20q-45 0 -71 28t-26 72q0 63 50.5 96.5t123.5 35.5l9 -20q-64 -19 -92.5 -41.5t-28.5 -60.5z" />
    <glyph glyph-name="Hcircumflex" unicode="&#x124;" horiz-adv-x="714" 
d="M407 588h265l7 -32l-57 -23v-478l57 -23l-7 -32h-265l-7 32l57 23v212h-200v-212l57 -23l-7 -32h-265l-7 32l57 23v478l-57 23l7 32h265l7 -32l-57 -23v-210h200v210l-57 23zM357 784h40l156 -156h-152l-65 69l-71 -69h-64z" />
    <glyph glyph-name="hcircumflex" unicode="&#x125;" horiz-adv-x="579" 
d="M358 47v200q0 44 -18.5 69t-50.5 25q-34 0 -64 -30v-263l51 -19l-13 -29h-235v28l37 19v521l-40 60v11l174 42h26v-324h4q49 89 150 89q60 0 99.5 -38.5t39.5 -125.5v-234l51 -19l-13 -29h-235v28zM139 873h40l156 -156h-152l-65 69l-71 -69h-64z" />
    <glyph glyph-name="Hbar" unicode="&#x126;" horiz-adv-x="718" 
d="M407 588h265l7 -32l-57 -23v-58h59v-56h-59v-364l57 -23l-7 -32h-265l-7 32l57 23v212h-200v-212l57 -23l-7 -32h-265l-7 32l57 23v364h-61v56h61v58l-57 23l7 32h265l7 -32l-57 -23v-58h200v58l-57 23zM257 323h200v96h-200v-96z" />
    <glyph glyph-name="hbar" unicode="&#x127;" horiz-adv-x="579" 
d="M358 47v200q0 44 -18.5 69t-50.5 25q-34 0 -64 -30v-263l51 -19l-13 -29h-235v28l37 19v458h-60v51h60v12l-40 60v11l174 42h26v-125h159v-51h-159v-148h4q49 89 150 89q60 0 99.5 -38.5t39.5 -125.5v-234l51 -19l-13 -29h-235v28z" />
    <glyph glyph-name="Itilde" unicode="&#x128;" horiz-adv-x="349" 
d="M190 640l-55 35q-22 14 -40 14q-41 -1 -44 -63l-29 5q-9 22 -9 60q1 41 27 67.5t63 26.5t63 -16l53 -32q32 -18 46 -18q16 0 25.5 11.5t15.5 44.5l29 -4q8 -28 8 -58q0 -42 -25 -67.5t-64 -25.5q-29 0 -64 20zM42 588h265l7 -32l-57 -23v-478l57 -23l-7 -32h-265l-7 32
l57 23v478l-57 23z" />
    <glyph glyph-name="itilde" unicode="&#x129;" horiz-adv-x="304" 
d="M167 508l-55 35q-22 14 -40 14q-41 -1 -44 -63l-29 5q-9 22 -9 60q1 41 27 67.5t63 26.5t63 -16l53 -32q32 -18 46 -18q16 0 25.5 11.5t15.5 44.5l29 -4q8 -28 8 -58q0 -42 -25 -67.5t-64 -25.5q-29 0 -64 20zM233 48l51 -19l-13 -29h-235v28l37 20v262l-38 74v11l172 51
h26v-398z" />
    <glyph glyph-name="Imacron" unicode="&#x12a;" horiz-adv-x="349" 
d="M312 643h-268v81h268v-81zM42 588h265l7 -32l-57 -23v-478l57 -23l-7 -32h-265l-7 32l57 23v478l-57 23z" />
    <glyph glyph-name="imacron" unicode="&#x12b;" horiz-adv-x="304" 
d="M280 507h-259v81h259v-81zM233 48l51 -19l-13 -29h-235v28l37 20v262l-38 74v11l172 51h26v-398z" />
    <glyph glyph-name="Ibreve" unicode="&#x12c;" horiz-adv-x="349" 
d="M174 717q77 0 91 66h52q0 -73 -37.5 -114t-105.5 -41t-105.5 41t-37.5 114h52q14 -66 91 -66zM42 588h265l7 -32l-57 -23v-478l57 -23l-7 -32h-265l-7 32l57 23v478l-57 23z" />
    <glyph glyph-name="Iogonek" unicode="&#x12e;" horiz-adv-x="349" 
d="M48 -113q0 71 90 109v4h-96l-7 32l57 23v478l-57 23l7 32h269l8 -32l-62 -23v-478l62 -23l-8 -32h-81q-62 -30 -62 -85q0 -24 12.5 -36t33.5 -12q34 0 66 29l16 -21q-32 -90 -132 -90q-47 0 -81.5 24t-34.5 78z" />
    <glyph glyph-name="iogonek" unicode="&#x12f;" horiz-adv-x="304" 
d="M35 -113q0 74 92 113h-91v28l37 19v263l-38 74v11l172 51h26v-398l51 -19l-13 -29h-54q-62 -30 -62 -85q0 -24 12.5 -36t33.5 -12q34 0 66 29l16 -21q-32 -90 -132 -90q-47 0 -81.5 24t-34.5 78zM59 581q0 40 27 67t66 27q40 0 67 -27t27 -67q0 -39 -27 -66t-67 -27
q-39 0 -66 27t-27 66z" />
    <glyph glyph-name="Idotaccent" unicode="&#x130;" horiz-adv-x="349" 
d="M42 588h265l7 -32l-57 -23v-478l57 -23l-7 -32h-265l-7 32l57 23v478l-57 23zM86 714q0 39 25 59.5t62 20.5q39 0 64 -20.5t25 -59.5t-25 -59.5t-64 -20.5q-37 0 -62 20.5t-25 59.5z" />
    <glyph glyph-name="dotlessi" unicode="&#x131;" horiz-adv-x="304" 
d="M233 48l51 -19l-13 -29h-235v28l37 20v262l-38 74v11l172 51h26v-398z" />
    <glyph glyph-name="IJ" unicode="&#x132;" horiz-adv-x="678" 
d="M42 588h265l7 -32l-57 -23v-478l57 -23l-7 -32h-265l-7 32l57 23v478l-57 23zM432 -57v590l-57 23l7 32h265l7 -32l-57 -23v-532q0 -192 -229 -192q-121 0 -121 82q0 38 22 57.5t53 19.5q35 0 53 -21t18 -53q0 -30 -19 -49q32 1 45 22t13 76z" />
    <glyph glyph-name="ij" unicode="&#x133;" horiz-adv-x="581" 
d="M59 581q0 40 27 67t66 27q40 0 67 -27t27 -67q0 -39 -27 -66t-67 -27q-39 0 -66 27t-27 66zM233 48l51 -19l-13 -29h-235v28l37 19v263l-38 74v11l172 51h26v-398zM354 581q0 40 27 67t66 27q40 0 67 -27t27 -67q0 -39 -27 -66t-67 -27q-39 0 -66 27t-27 66zM528 446
v-496q0 -83 -58.5 -126t-167.5 -43q-123 0 -123 84q0 33 21 52.5t54 19.5t49.5 -21.5t16.5 -51.5q0 -27 -15 -48q63 0 63 111v382l-48 74v11l182 52h26z" />
    <glyph glyph-name="Jcircumflex" unicode="&#x134;" horiz-adv-x="317" 
d="M141 776h40l136 -156h-152l-43 59l-53 -59h-64zM75 -57v590l-57 23l7 32h265l7 -32l-57 -23v-532q0 -192 -229 -192q-121 0 -121 82q0 38 22 57.5t53 19.5q35 0 53 -21t18 -53q0 -30 -19 -49q32 1 45 22t13 76z" />
    <glyph glyph-name="jcircumflex" unicode="&#x135;" horiz-adv-x="282" 
d="M229 446v-496q0 -72 -61 -120.5t-165 -48.5q-123 0 -123 84q0 33 21 52.5t54 19.5t49.5 -21.5t16.5 -51.5q0 -27 -15 -48q63 0 63 111v382l-48 74v11l182 52h26zM127 672h40l156 -190h-143l-69 93l-74 -93h-66z" />
    <glyph glyph-name="Kcommaaccent" unicode="&#x136;" horiz-adv-x="662" 
d="M257 321l49 8l165 201l-59 26l5 32h213l5 -32l-73 -17l-135 -161l176 -327l69 -18l-7 -33h-229l-135 274h-44v-219l57 -23l-7 -32h-265l-7 32l57 23v478l-57 23l7 32h265l7 -32l-57 -23v-212zM362 -139h-8q-3 -16 -16 -23.5t-25 -7.5q-31 0 -48 19.5t-17 47.5
q0 34 22.5 54t56.5 20q45 0 71 -28t26 -72q0 -63 -50.5 -96.5t-123.5 -35.5l-9 20q64 19 92.5 41.5t28.5 60.5z" />
    <glyph glyph-name="kcommaaccent" unicode="&#x137;" horiz-adv-x="562" 
d="M225 48l52 -19l-13 -29h-236v28l37 19v521l-40 60v11l174 42h26v-437l45 8l119 119l-66 28l6 37h217l8 -34l-60 -15l-106 -105l133 -233l56 -21l-12 -28h-197l-105 196h-38v-148zM312 -139h-8q-3 -16 -16 -23.5t-25 -7.5q-31 0 -48 19.5t-17 47.5q0 34 22.5 54t56.5 20
q45 0 71 -28t26 -72q0 -63 -50.5 -96.5t-123.5 -35.5l-9 20q64 19 92.5 41.5t28.5 60.5z" />
    <glyph glyph-name="kgreenlandic" unicode="&#x138;" horiz-adv-x="570" 
d="M233 48l52 -19l-13 -29h-236v28l37 19v263l-38 74v11l172 51h26v-202l45 8l119 119l-66 28l6 37h217l8 -34l-60 -15l-106 -105l133 -233l56 -21l-12 -28h-197l-105 196h-38v-148z" />
    <glyph glyph-name="Lacute" unicode="&#x139;" horiz-adv-x="525" 
d="M315 556l-58 -23v-460l25 -17h112l105 151l26 -6l-23 -201h-460l-7 32l57 23v478l-57 23l7 32h265zM282 680l-145 -57l-16 24l98 125q24 32 56 33.5t52 -27.5q19 -30 5.5 -57t-50.5 -41z" />
    <glyph glyph-name="lacute" unicode="&#x13a;" horiz-adv-x="292" 
d="M225 48l52 -19l-13 -29h-236v28l37 19v521l-40 60v11l174 42h26v-633zM202 754l-145 -57l-16 24l98 125q24 32 56 33.5t52 -27.5q19 -30 5.5 -57t-50.5 -41z" />
    <glyph glyph-name="Lcommaaccent" unicode="&#x13b;" horiz-adv-x="525" 
d="M315 556l-58 -23v-460l25 -17h112l105 151l26 -6l-23 -201h-460l-7 32l57 23v478l-57 23l7 32h265zM307 -139h-8q-3 -16 -16 -23.5t-25 -7.5q-31 0 -48 19.5t-17 47.5q0 34 22.5 54t56.5 20q45 0 71 -28t26 -72q0 -63 -50.5 -96.5t-123.5 -35.5l-9 20q64 19 92.5 41.5
t28.5 60.5z" />
    <glyph glyph-name="lcommaaccent" unicode="&#x13c;" horiz-adv-x="292" 
d="M225 48l52 -19l-13 -29h-236v28l37 19v521l-40 60v11l174 42h26v-633zM171 -139h-8q-3 -16 -16 -23.5t-25 -7.5q-31 0 -48 19.5t-17 47.5q0 34 22.5 54t56.5 20q45 0 71 -28t26 -72q0 -63 -50.5 -96.5t-123.5 -35.5l-9 20q64 19 92.5 41.5t28.5 60.5z" />
    <glyph glyph-name="Lcaron" unicode="&#x13d;" horiz-adv-x="525" 
d="M315 556l-58 -23v-460l25 -17h112l105 151l26 -6l-23 -201h-460l-7 32l57 23v478l-57 23l7 32h265zM371 444l9 145q2 34 14 49t37 13q26 0 47.5 -17t17.5 -43q-3 -17 -13 -32l-72 -124z" />
    <glyph glyph-name="lcaron" unicode="&#x13e;" horiz-adv-x="291" 
d="M225 48l52 -19l-13 -29h-236v28l37 19v521l-40 60v11l174 42h26v-633zM280 467l9 145q2 34 14 49t37 13q26 0 47.5 -17t17.5 -43q-3 -17 -13 -32l-72 -124z" />
    <glyph glyph-name="Ldot" unicode="&#x13f;" horiz-adv-x="525" 
d="M315 556l-58 -23v-460l25 -17h112l105 151l26 -6l-23 -201h-460l-7 32l57 23v478l-57 23l7 32h265zM364 339q0 36 25.5 62t61.5 26t62 -26t26 -62t-26 -61.5t-62 -25.5t-61.5 25.5t-25.5 61.5z" />
    <glyph glyph-name="ldot" unicode="&#x140;" horiz-adv-x="457" 
d="M225 48l52 -19l-13 -29h-236v28l37 19v521l-40 60v11l174 42h26v-633zM267 316q0 36 25.5 62t61.5 26t62 -26t26 -62t-26 -61.5t-62 -25.5t-61.5 25.5t-25.5 61.5z" />
    <glyph glyph-name="Lslash" unicode="&#x141;" horiz-adv-x="525" 
d="M331 556l-75 -23v-199l139 75v-64l-139 -74v-198l25 -17h113l105 151l26 -6l-23 -201h-460l-7 32l56 23v145l-56 -29v61l56 30v271l-56 23l7 32h281z" />
    <glyph glyph-name="lslash" unicode="&#x142;" horiz-adv-x="291" 
d="M-2 269l67 51v248l-40 60v11l174 42h26v-270l71 55v-64l-71 -54v-300l51 -19l-13 -29h-235v28l37 19v212l-67 -51v61z" />
    <glyph glyph-name="Nacute" unicode="&#x143;" horiz-adv-x="643" 
d="M164 291v-236l77 -23l-7 -32h-192l-7 32l57 23v478l-57 23l7 32h206l191 -266q20 -27 36 -56t22 -44l6 -16h4q-6 84 -6 159v168l-77 23l7 32h185l7 -32l-57 -23v-533h-93l-247 334q-20 27 -36 56t-22 44l-6 16h-4q6 -84 6 -159zM408 680l-145 -57l-16 24l98 125
q24 32 56 33.5t52 -27.5q19 -30 5.5 -57t-50.5 -41z" />
    <glyph glyph-name="nacute" unicode="&#x144;" horiz-adv-x="588" 
d="M526 48l52 -19l-13 -29h-236v28l37 20v199q0 47 -19.5 70.5t-50.5 23.5q-33 0 -63 -30v-263l52 -19l-13 -29h-236v28l37 19v263l-38 74v11l172 51h25l-3 -89h4q28 43 64 66t93 23q63 0 99.5 -43.5t36.5 -119.5v-235zM388 558l-127 -74l-21 20l55 132q15 36 48 46t60 -14
q28 -26 23.5 -58t-38.5 -52z" />
    <glyph glyph-name="Ncommaaccent" unicode="&#x145;" horiz-adv-x="643" 
d="M164 291v-236l77 -23l-7 -32h-192l-7 32l57 23v478l-57 23l7 32h206l191 -266q20 -27 36 -56t22 -44l6 -16h4q-6 84 -6 159v168l-77 23l7 32h185l7 -32l-57 -23v-533h-93l-247 334q-20 27 -36 56t-22 44l-6 16h-4q6 -84 6 -159zM355 -139h-8q-3 -16 -16 -23.5t-25 -7.5
q-31 0 -48 19.5t-17 47.5q0 34 22.5 54t56.5 20q45 0 71 -28t26 -72q0 -63 -50.5 -96.5t-123.5 -35.5l-9 20q64 19 92.5 41.5t28.5 60.5z" />
    <glyph glyph-name="ncommaaccent" unicode="&#x146;" horiz-adv-x="588" 
d="M526 48l52 -19l-13 -29h-236v28l37 20v199q0 47 -19.5 70.5t-50.5 23.5q-33 0 -63 -30v-263l52 -19l-13 -29h-236v28l37 19v263l-38 74v11l172 51h25l-3 -89h4q28 43 64 66t93 23q63 0 99.5 -43.5t36.5 -119.5v-235zM323 -139h-8q-3 -16 -16 -23.5t-25 -7.5
q-31 0 -48 19.5t-17 47.5q0 34 22.5 54t56.5 20q45 0 71 -28t26 -72q0 -63 -50.5 -96.5t-123.5 -35.5l-9 20q64 19 92.5 41.5t28.5 60.5z" />
    <glyph glyph-name="Ncaron" unicode="&#x147;" horiz-adv-x="643" 
d="M164 291v-236l77 -23l-7 -32h-192l-7 32l57 23v478l-57 23l7 32h206l191 -266q20 -27 36 -56t22 -44l6 -16h4q-6 84 -6 159v168l-77 23l7 32h185l7 -32l-57 -23v-533h-93l-247 334q-20 27 -36 56t-22 44l-6 16h-4q6 -84 6 -159zM346 620h-40l-156 156h152l59 -71l75 71
h66z" />
    <glyph glyph-name="ncaron" unicode="&#x148;" horiz-adv-x="588" 
d="M526 48l52 -19l-13 -29h-236v28l37 20v199q0 47 -19.5 70.5t-50.5 23.5q-33 0 -63 -30v-263l52 -19l-13 -29h-236v28l37 19v263l-38 74v11l172 51h25l-3 -89h4q28 43 64 66t93 23q63 0 99.5 -43.5t36.5 -119.5v-235zM320 482h-40l-156 190h143l69 -93l74 93h66z" />
    <glyph glyph-name="Eng" unicode="&#x14a;" horiz-adv-x="643" 
d="M501 -36l-275 370q-20 27 -36 56t-22 44l-6 16h-4q6 -84 6 -159v-236l77 -23l-7 -32h-192l-7 32l57 23v478l-57 23l7 32h206l191 -266q20 -27 36 -56t22 -44l6 -16h4q-6 84 -6 159v168l-77 23l7 32h185l7 -32l-57 -23v-533q0 -93 -33.5 -142.5t-109.5 -49.5
q-105 0 -105 80q0 36 20.5 54.5t50.5 18.5t47.5 -18.5t17.5 -45.5q0 -21 -11 -43q24 2 41 28.5t17 81.5z" />
    <glyph glyph-name="eng" unicode="&#x14b;" horiz-adv-x="566" 
d="M366 -73v320q0 47 -19.5 70.5t-50.5 23.5q-33 0 -63 -30v-263l52 -19l-13 -29h-236v28l37 19v263l-38 74v11l172 51h25l-3 -89h4q28 43 64 66t93 23q63 0 99.5 -43.5t36.5 -119.5v-333q0 -72 -61 -120.5t-165 -48.5q-123 0 -123 84q0 33 21 52.5t54 19.5t49.5 -21.5
t16.5 -51.5q0 -27 -15 -48q63 0 63 111z" />
    <glyph glyph-name="Omacron" unicode="&#x14c;" horiz-adv-x="646" 
d="M323 40q57 0 83 56t26 198t-26 198t-83 56t-83 -56t-26 -198t26 -198t83 -56zM323 -10q-139 0 -213.5 79.5t-74.5 224.5q0 146 74.5 225t213.5 79t213.5 -79t74.5 -225q0 -145 -74.5 -224.5t-213.5 -79.5zM482 654h-319v81h319v-81z" />
    <glyph glyph-name="omacron" unicode="&#x14d;" horiz-adv-x="534" 
d="M504 218q0 -111 -63.5 -169.5t-173.5 -58.5t-173.5 58.5t-63.5 169.5q0 112 63.5 170t173.5 58t173.5 -58t63.5 -170zM197 218q0 -96 14.5 -137.5t55.5 -41.5t55.5 41.5t14.5 137.5t-14.5 137.5t-55.5 41.5t-55.5 -41.5t-14.5 -137.5zM406 507h-289v81h289v-81z" />
    <glyph glyph-name="Obreve" unicode="&#x14e;" horiz-adv-x="646" 
d="M323 40q57 0 83 56t26 198t-26 198t-83 56t-83 -56t-26 -198t26 -198t83 -56zM323 -10q-139 0 -213.5 79.5t-74.5 224.5q0 146 74.5 225t213.5 79t213.5 -79t74.5 -225q0 -145 -74.5 -224.5t-213.5 -79.5zM323 717q77 0 91 66h52q0 -73 -37.5 -114t-105.5 -41t-105.5 41
t-37.5 114h52q14 -66 91 -66z" />
    <glyph glyph-name="obreve" unicode="&#x14f;" horiz-adv-x="534" 
d="M504 218q0 -111 -63.5 -169.5t-173.5 -58.5t-173.5 58.5t-63.5 169.5q0 112 63.5 170t173.5 58t173.5 -58t63.5 -170zM197 218q0 -96 14.5 -137.5t55.5 -41.5t55.5 41.5t14.5 137.5t-14.5 137.5t-55.5 41.5t-55.5 -41.5t-14.5 -137.5zM269 579q44 0 71 24t27 61h47
q1 -8 1 -23q0 -66 -39.5 -108.5t-106.5 -42.5t-106.5 42.5t-39.5 108.5q0 15 1 23h47q0 -37 27 -61t71 -24z" />
    <glyph glyph-name="Ohungarumlaut" unicode="&#x150;" horiz-adv-x="646" 
d="M323 40q57 0 83 56t26 198t-26 198t-83 56t-83 -56t-26 -198t26 -198t83 -56zM323 -10q-139 0 -213.5 79.5t-74.5 224.5q0 146 74.5 225t213.5 79t213.5 -79t74.5 -225q0 -145 -74.5 -224.5t-213.5 -79.5zM494 682l-129 -64l-24 32l85 116q21 30 46 32t47 -27
q45 -56 -25 -89zM313 699l-120 -81l-28 29l69 127q18 33 41.5 38t50.5 -21q51 -49 -13 -92z" />
    <glyph glyph-name="ohungarumlaut" unicode="&#x151;" horiz-adv-x="534" 
d="M504 218q0 -111 -63.5 -169.5t-173.5 -58.5t-173.5 58.5t-63.5 169.5q0 112 63.5 170t173.5 58t173.5 -58t63.5 -170zM197 218q0 -96 14.5 -137.5t55.5 -41.5t55.5 41.5t14.5 137.5t-14.5 137.5t-55.5 41.5t-55.5 -41.5t-14.5 -137.5zM438 565l-117 -85l-29 28l65 128
q16 33 40 39t51 -18q53 -47 -10 -92zM258 565l-117 -85l-29 28l65 128q16 33 40 39t51 -18q53 -47 -10 -92z" />
    <glyph glyph-name="OE" unicode="&#x152;" horiz-adv-x="863" 
d="M323 -10q-139 0 -213.5 79.5t-74.5 224.5q0 146 74.5 225t213.5 79q43 0 90 -10h401v-157l-21 -5l-91 106h-179q79 -72 87 -209h47l47 79l22 -4v-208l-21 -4l-47 81h-48q-8 -140 -88 -211h193l102 132l26 -6l-20 -182h-410q-47 -10 -90 -10zM323 40q57 0 83 56t26 198
t-26 198t-83 56t-83 -56t-26 -198t26 -198t83 -56z" />
    <glyph glyph-name="oe" unicode="&#x153;" horiz-adv-x="790" 
d="M506 221q5 -134 122 -134q30 0 50.5 8t47.5 29l22 -21q-39 -113 -187 -113q-40 0 -79 15.5t-59 40.5q-54 -56 -156 -56q-110 0 -173.5 58.5t-63.5 169.5q0 112 63.5 170t173.5 58q50 0 94.5 -16t69.5 -44q55 60 152 60q80 0 127 -43t47 -122q0 -31 -6 -60h-245zM197 218
q0 -96 14.5 -137.5t55.5 -41.5t55.5 41.5t14.5 137.5t-14.5 137.5t-55.5 41.5t-55.5 -41.5t-14.5 -137.5zM577 398q-62 0 -70 -128h114q4 18 4 43q0 85 -48 85z" />
    <glyph glyph-name="Racute" unicode="&#x154;" horiz-adv-x="633" 
d="M257 535v-228h51q89 0 89 116q0 112 -90 112h-50zM581 52l62 -21l-7 -31h-219l-86 208q-11 26 -26.5 37t-47.5 12v-202l57 -23l-7 -32h-265l-7 32l57 23v478l-57 23l7 32h334q50 0 92 -13t73.5 -50t31.5 -93q0 -70 -45.5 -110t-109.5 -48v-6q32 -3 57.5 -21t38.5 -46z
M353 680l-145 -57l-16 24l98 125q24 32 56 33.5t52 -27.5q19 -30 5.5 -57t-50.5 -41z" />
    <glyph glyph-name="racute" unicode="&#x155;" horiz-adv-x="449" 
d="M233 51l82 -20l-13 -31h-266v28l37 19v262l-38 74v11l172 52h25l-3 -101h4q14 42 44.5 71.5t78.5 29.5q43 0 68 -24.5t25 -65.5q0 -36 -22 -59t-55 -23q-35 0 -55.5 21t-20.5 55q-27 -12 -63 -53v-246zM303 558l-127 -74l-21 20l55 132q15 36 48 46t60 -14
q28 -26 23.5 -58t-38.5 -52z" />
    <glyph glyph-name="Rcommaaccent" unicode="&#x156;" horiz-adv-x="633" 
d="M257 535v-228h51q89 0 89 116q0 112 -90 112h-50zM581 52l62 -21l-7 -31h-219l-86 208q-11 26 -26.5 37t-47.5 12v-202l57 -23l-7 -32h-265l-7 32l57 23v478l-57 23l7 32h334q50 0 92 -13t73.5 -50t31.5 -93q0 -70 -45.5 -110t-109.5 -48v-6q32 -3 57.5 -21t38.5 -46z
M336 -139h-8q-3 -16 -16 -23.5t-25 -7.5q-31 0 -48 19.5t-17 47.5q0 34 22.5 54t56.5 20q45 0 71 -28t26 -72q0 -63 -50.5 -96.5t-123.5 -35.5l-9 20q64 19 92.5 41.5t28.5 60.5z" />
    <glyph glyph-name="rcommaaccent" unicode="&#x157;" horiz-adv-x="449" 
d="M233 51l82 -20l-13 -31h-266v28l37 19v262l-38 74v11l172 52h25l-3 -101h4q14 42 44.5 71.5t78.5 29.5q43 0 68 -24.5t25 -65.5q0 -36 -22 -59t-55 -23q-35 0 -55.5 21t-20.5 55q-27 -12 -63 -53v-246zM189 -139h-8q-3 -16 -16 -23.5t-25 -7.5q-31 0 -48 19.5t-17 47.5
q0 34 22.5 54t56.5 20q45 0 71 -28t26 -72q0 -63 -50.5 -96.5t-123.5 -35.5l-9 20q64 19 92.5 41.5t28.5 60.5z" />
    <glyph glyph-name="Rcaron" unicode="&#x158;" horiz-adv-x="633" 
d="M257 535v-228h51q89 0 89 116q0 112 -90 112h-50zM581 52l62 -21l-7 -31h-219l-86 208q-11 26 -26.5 37t-47.5 12v-202l57 -23l-7 -32h-265l-7 32l57 23v478l-57 23l7 32h334q50 0 92 -13t73.5 -50t31.5 -93q0 -70 -45.5 -110t-109.5 -48v-6q32 -3 57.5 -21t38.5 -46z
M316 620h-40l-156 156h152l59 -71l75 71h66z" />
    <glyph glyph-name="rcaron" unicode="&#x159;" horiz-adv-x="449" 
d="M233 51l82 -20l-13 -31h-266v28l37 19v262l-38 74v11l172 52h25l-3 -101h4q14 42 44.5 71.5t78.5 29.5q43 0 68 -24.5t25 -65.5q0 -36 -22 -59t-55 -23q-35 0 -55.5 21t-20.5 55q-27 -12 -63 -53v-246zM256 482h-40l-156 190h143l69 -93l74 93h66z" />
    <glyph glyph-name="Sacute" unicode="&#x15a;" horiz-adv-x="499" 
d="M250 40q37 0 57 19t20 53q0 35 -21 58t-73 43l-74 28q-117 44 -117 177q0 87 57.5 133.5t141.5 46.5q72 0 132 -24l51 24l15 -168l-28 -6l-62 69q-50 56 -112 56q-31 0 -50 -18t-19 -48q0 -31 18.5 -51.5t60.5 -36.5l72 -26q78 -28 111.5 -73t33.5 -117q0 -90 -59 -139.5
t-151 -49.5q-86 0 -143 35l-59 -35l-17 192l32 6l60 -79q52 -69 123 -69zM306 680l-145 -57l-16 24l98 125q24 32 56 33.5t52 -27.5q19 -30 5.5 -57t-50.5 -41z" />
    <glyph glyph-name="sacute" unicode="&#x15b;" horiz-adv-x="438" 
d="M35 139l29 6q44 -64 76.5 -86.5t76.5 -22.5q66 0 66 46q0 21 -14 34t-46 23l-70 21q-112 33 -112 138q0 74 45 111t120 37q60 0 104 -21l60 20v-133l-27 -5q-61 91 -132 91q-24 0 -37.5 -10.5t-13.5 -28.5q0 -31 39 -44l82 -27q68 -22 97.5 -58t29.5 -94
q0 -146 -191 -146q-60 0 -113 23l-56 -23zM341 558l-127 -74l-21 20l55 132q15 36 48 46t60 -14q28 -26 23.5 -58t-38.5 -52z" />
    <glyph glyph-name="Scircumflex" unicode="&#x15c;" horiz-adv-x="499" 
d="M250 40q37 0 57 19t20 53q0 35 -21 58t-73 43l-74 28q-117 44 -117 177q0 87 57.5 133.5t141.5 46.5q72 0 132 -24l51 24l15 -168l-28 -6l-62 69q-50 56 -112 56q-31 0 -50 -18t-19 -48q0 -31 18.5 -51.5t60.5 -36.5l72 -26q78 -28 111.5 -73t33.5 -117q0 -90 -59 -139.5
t-151 -49.5q-86 0 -143 35l-59 -35l-17 192l32 6l60 -79q52 -69 123 -69zM232 784h40l156 -156h-152l-65 69l-71 -69h-64z" />
    <glyph glyph-name="scircumflex" unicode="&#x15d;" horiz-adv-x="438" 
d="M35 139l29 6q44 -64 76.5 -86.5t76.5 -22.5q66 0 66 46q0 21 -14 34t-46 23l-70 21q-112 33 -112 138q0 74 45 111t120 37q60 0 104 -21l60 20v-133l-27 -5q-61 91 -132 91q-24 0 -37.5 -10.5t-13.5 -28.5q0 -31 39 -44l82 -27q68 -22 97.5 -58t29.5 -94
q0 -146 -191 -146q-60 0 -113 23l-56 -23zM200 672h40l156 -190h-143l-69 93l-74 -93h-66z" />
    <glyph glyph-name="Scedilla" unicode="&#x15e;" horiz-adv-x="499" 
d="M130 -171l18 25q21 -21 53 -21q39 0 39 33q0 16 -8.5 26.5t-19.5 15t-34 11.5l30 74q-59 7 -97 32l-59 -35l-17 192l32 6l60 -79q52 -69 123 -69q37 0 57 19t20 53q0 35 -21 58t-73 43l-74 28q-117 44 -117 177q0 87 57.5 133.5t141.5 46.5q72 0 132 -24l51 24l15 -168
l-28 -6l-62 69q-50 56 -112 56q-31 0 -50 -18t-19 -48q0 -31 18.5 -51.5t60.5 -36.5l72 -26q78 -28 111.5 -73t33.5 -117q0 -90 -59 -139.5t-151 -49.5h-3l-13 -30q42 -4 76 -25.5t34 -63.5q0 -46 -33 -67.5t-88 -21.5q-65 0 -97 47z" />
    <glyph glyph-name="scedilla" unicode="&#x15f;" horiz-adv-x="438" 
d="M108 -171l18 25q21 -21 53 -21q39 0 39 33q0 16 -8.5 26.5t-19.5 15t-34 11.5l29 73q-49 7 -81 21l-56 -23l-13 149l29 6q44 -64 76.5 -86.5t76.5 -22.5q66 0 66 46q0 21 -14 34t-46 23l-70 21q-112 33 -112 138q0 74 45 111t120 37q60 0 104 -21l60 20v-133l-27 -5
q-61 91 -132 91q-24 0 -37.5 -10.5t-13.5 -28.5q0 -31 39 -44l82 -27q68 -22 97.5 -58t29.5 -94q0 -141 -179 -146l-13 -30q42 -4 76 -25.5t34 -63.5q0 -46 -33 -67.5t-88 -21.5q-65 0 -97 47z" />
    <glyph glyph-name="Scaron" unicode="&#x160;" horiz-adv-x="499" 
d="M250 40q37 0 57 19t20 53q0 35 -21 58t-73 43l-74 28q-117 44 -117 177q0 87 57.5 133.5t141.5 46.5q72 0 132 -24l51 24l15 -168l-28 -6l-62 69q-50 56 -112 56q-31 0 -50 -18t-19 -48q0 -31 18.5 -51.5t60.5 -36.5l72 -26q78 -28 111.5 -73t33.5 -117q0 -90 -59 -139.5
t-151 -49.5q-86 0 -143 35l-59 -35l-17 192l32 6l60 -79q52 -69 123 -69zM268 621h-40l-156 156h152l59 -71l75 71h66z" />
    <glyph glyph-name="scaron" unicode="&#x161;" horiz-adv-x="438" 
d="M35 139l29 6q44 -64 76.5 -86.5t76.5 -22.5q66 0 66 46q0 21 -14 34t-46 23l-70 21q-112 33 -112 138q0 74 45 111t120 37q60 0 104 -21l60 20v-133l-27 -5q-61 91 -132 91q-24 0 -37.5 -10.5t-13.5 -28.5q0 -31 39 -44l82 -27q68 -22 97.5 -58t29.5 -94
q0 -146 -191 -146q-60 0 -113 23l-56 -23zM239 482h-40l-156 190h143l69 -93l74 93h66z" />
    <glyph glyph-name="Tcommaaccent" unicode="&#x162;" horiz-adv-x="559" 
d="M102 35l95 26v475h-79l-87 -110l-21 5v157h539v-157l-21 -5l-87 110h-79v-475l95 -26l-8 -35h-339zM304 -139h-8q-3 -16 -16 -23.5t-25 -7.5q-31 0 -48 19.5t-17 47.5q0 34 22.5 54t56.5 20q45 0 71 -28t26 -72q0 -63 -50.5 -96.5t-123.5 -35.5l-9 20q64 19 92.5 41.5
t28.5 60.5z" />
    <glyph glyph-name="tcommaaccent" unicode="&#x163;" horiz-adv-x="361" 
d="M5 381v36l183 136h37v-117h123l-7 -55h-114v-221q0 -80 59 -80q33 0 69 21l11 -23q-23 -41 -63.5 -64.5t-88.5 -23.5q-68 0 -107.5 36.5t-39.5 115.5v239h-62zM223 -139h-8q-3 -16 -16 -23.5t-25 -7.5q-31 0 -48 19.5t-17 47.5q0 34 22.5 54t56.5 20q45 0 71 -28t26 -72
q0 -63 -50.5 -96.5t-123.5 -35.5l-9 20q64 19 92.5 41.5t28.5 60.5z" />
    <glyph glyph-name="Tcaron" unicode="&#x164;" horiz-adv-x="559" 
d="M102 35l95 26v475h-79l-87 -110l-21 5v157h539v-157l-21 -5l-87 110h-79v-475l95 -26l-8 -35h-339zM307 620h-40l-156 156h152l59 -71l75 71h66z" />
    <glyph glyph-name="tcaron" unicode="&#x165;" horiz-adv-x="361" 
d="M5 381v36l183 136h37v-117h123l-7 -55h-114v-221q0 -80 59 -80q33 0 69 21l11 -23q-23 -41 -63.5 -64.5t-88.5 -23.5q-68 0 -107.5 36.5t-39.5 115.5v239h-62zM277 489l9 145q2 34 14 49t37 13q26 0 47.5 -17t17.5 -43q-3 -17 -13 -32l-72 -124z" />
    <glyph glyph-name="Tbar" unicode="&#x166;" horiz-adv-x="559" 
d="M111 267v56h86v209h-79l-87 -106l-21 5v157h539v-157l-21 -5l-87 106h-79v-209h90v-56h-90v-206l95 -26l-8 -35h-339l-8 35l95 26v206h-86z" />
    <glyph glyph-name="tbar" unicode="&#x167;" horiz-adv-x="361" 
d="M5 381v36l183 136h37v-117h123l-7 -55h-114v-98h117l-10 -55h-107v-68q0 -80 59 -80q33 0 69 21l11 -23q-23 -41 -63.5 -64.5t-88.5 -23.5q-68 0 -107.5 36.5t-39.5 115.5v86h-62v55h62v98h-62z" />
    <glyph glyph-name="Utilde" unicode="&#x168;" horiz-adv-x="624" 
d="M552 533v-326q0 -101 -61 -159t-170 -58q-113 0 -181 53.5t-68 164.5v325l-57 23l7 32h265l7 -32l-57 -23v-331q0 -139 119 -139q59 0 92 35t33 103v332l-77 23l7 32h191l7 -32zM331 650l-62 25q-24 10 -44 10q-50 0 -53 -59l-30 5q-9 25 -9 48q0 46 31 74t79 28
q29 0 61 -12l60 -22q35 -13 54 -13q39 0 46 51l30 -4q9 -30 9 -54q0 -44 -26.5 -68.5t-70.5 -24.5q-36 0 -75 16z" />
    <glyph glyph-name="utilde" unicode="&#x169;" horiz-adv-x="558" 
d="M332 310l-38 74v11l172 51h26v-347l46 -52v-21l-189 -31l-13 67h-4q-46 -72 -132 -72q-64 0 -105.5 37.5t-41.5 122.5v160l-38 74v11l172 51h26v-286q0 -79 56 -79q27 0 63 18v211zM289 508l-58 25q-23 10 -42 10q-47 0 -49 -59l-29 5q-8 27 -8 48q0 46 29 74t74 28
q28 0 57 -12l57 -22q32 -13 50 -13q38 0 43 51l29 -4q8 -32 8 -54q0 -44 -25 -68.5t-66 -24.5q-34 0 -70 16z" />
    <glyph glyph-name="Umacron" unicode="&#x16a;" horiz-adv-x="624" 
d="M552 533v-326q0 -101 -61 -159t-170 -58q-113 0 -181 53.5t-68 164.5v325l-57 23l7 32h265l7 -32l-57 -23v-331q0 -139 119 -139q59 0 92 35t33 103v332l-77 23l7 32h191l7 -32zM479 654h-319v81h319v-81z" />
    <glyph glyph-name="umacron" unicode="&#x16b;" horiz-adv-x="558" 
d="M332 310l-38 74v11l172 51h26v-347l46 -52v-21l-189 -31l-13 67h-4q-46 -72 -132 -72q-64 0 -105.5 37.5t-41.5 122.5v160l-38 74v11l172 51h26v-286q0 -79 56 -79q27 0 63 18v211zM413 507h-289v81h289v-81z" />
    <glyph glyph-name="Ubreve" unicode="&#x16c;" horiz-adv-x="624" 
d="M552 533v-326q0 -101 -61 -159t-170 -58q-113 0 -181 53.5t-68 164.5v325l-57 23l7 32h265l7 -32l-57 -23v-331q0 -139 119 -139q59 0 92 35t33 103v332l-77 23l7 32h191l7 -32zM319 717q77 0 91 66h52q0 -73 -37.5 -114t-105.5 -41t-105.5 41t-37.5 114h52
q14 -66 91 -66z" />
    <glyph glyph-name="ubreve" unicode="&#x16d;" horiz-adv-x="558" 
d="M332 310l-38 74v11l172 51h26v-347l46 -52v-21l-189 -31l-13 67h-4q-46 -72 -132 -72q-64 0 -105.5 37.5t-41.5 122.5v160l-38 74v11l172 51h26v-286q0 -79 56 -79q27 0 63 18v211zM276 579q44 0 71 24t27 61h47q1 -8 1 -23q0 -66 -39.5 -108.5t-106.5 -42.5t-106.5 42.5
t-39.5 108.5q0 15 1 23h47q0 -37 27 -61t71 -24z" />
    <glyph glyph-name="Uring" unicode="&#x16e;" horiz-adv-x="624" 
d="M552 533v-326q0 -101 -61 -159t-170 -58q-113 0 -181 53.5t-68 164.5v325l-57 23l7 32h265l7 -32l-57 -23v-331q0 -139 119 -139q59 0 92 35t33 103v332l-77 23l7 32h191l7 -32zM205 730q0 46 33 78t86 32q51 0 85.5 -32t34.5 -78q0 -48 -34.5 -81t-85.5 -33
q-55 0 -87 32t-32 82zM261 727q0 -24 16.5 -40.5t46.5 -16.5q26 0 42.5 16.5t16.5 40.5q0 27 -16 44t-43 17q-29 0 -46 -17t-17 -44z" />
    <glyph glyph-name="uring" unicode="&#x16f;" horiz-adv-x="558" 
d="M332 310l-38 74v11l172 51h26v-347l46 -52v-21l-189 -31l-13 67h-4q-46 -72 -132 -72q-64 0 -105.5 37.5t-41.5 122.5v160l-38 74v11l172 51h26v-286q0 -79 56 -79q27 0 63 18v211zM157 596q0 46 33 78t86 32q51 0 85.5 -32t34.5 -78q0 -48 -34.5 -81t-85.5 -33
q-55 0 -87 32t-32 82zM213 593q0 -24 16.5 -40.5t46.5 -16.5q26 0 42.5 16.5t16.5 40.5q0 27 -16 44t-43 17q-29 0 -46 -17t-17 -44z" />
    <glyph glyph-name="Uhungarumlaut" unicode="&#x170;" horiz-adv-x="624" 
d="M552 533v-326q0 -101 -61 -159t-170 -58q-113 0 -181 53.5t-68 164.5v325l-57 23l7 32h265l7 -32l-57 -23v-331q0 -139 119 -139q59 0 92 35t33 103v332l-77 23l7 32h191l7 -32zM486 682l-129 -64l-24 32l85 116q21 30 46 32t47 -27q45 -56 -25 -89zM305 699l-120 -81
l-28 29l69 127q18 33 41.5 38t50.5 -21q51 -49 -13 -92z" />
    <glyph glyph-name="uhungarumlaut" unicode="&#x171;" horiz-adv-x="558" 
d="M332 310l-38 74v11l172 51h26v-347l46 -52v-21l-189 -31l-13 67h-4q-46 -72 -132 -72q-64 0 -105.5 37.5t-41.5 122.5v160l-38 74v11l172 51h26v-286q0 -79 56 -79q27 0 63 18v211zM445 565l-117 -85l-29 28l65 128q16 33 40 39t51 -18q53 -47 -10 -92zM265 565l-117 -85
l-29 28l65 128q16 33 40 39t51 -18q53 -47 -10 -92z" />
    <glyph glyph-name="Uogonek" unicode="&#x172;" horiz-adv-x="624" 
d="M202 -113q0 66 76 105q-95 10 -150.5 63t-55.5 153v325l-57 23l7 32h265l7 -32l-57 -23v-331q0 -139 119 -139q59 0 92 35t33 103v332l-77 23l7 32h191l7 -32l-57 -23v-326q0 -88 -46.5 -144t-131.5 -69q-52 -30 -52 -79q0 -24 12.5 -36t33.5 -12q34 0 66 29l16 -21
q-32 -90 -132 -90q-47 0 -81.5 24t-34.5 78z" />
    <glyph glyph-name="uogonek" unicode="&#x173;" horiz-adv-x="558" 
d="M233 -113q0 88 112 127l-9 48h-4q-46 -72 -132 -72q-64 0 -105.5 37.5t-41.5 122.5v160l-38 74v11l172 51h26v-286q0 -79 56 -79q27 0 63 18v211l-38 74v11l172 51h26v-347l46 -52v-21q-60 -8 -99.5 -21t-56.5 -29t-23 -29.5t-6 -31.5q0 -24 12.5 -36t33.5 -12
q34 0 66 29l16 -21q-32 -90 -132 -90q-47 0 -81.5 24t-34.5 78z" />
    <glyph glyph-name="Wcircumflex" unicode="&#x174;" horiz-adv-x="856" 
d="M522 0l-70 253q-9 32 -15 67t-8 54l-2 20h-4q-8 -68 -26 -140l-63 -254h-148l-134 529l-47 29l7 30h270l6 -38l-59 -14l58 -267q7 -32 11.5 -64.5t5.5 -48.5v-17h4q7 53 26 130l78 319h121l88 -317q9 -33 14.5 -66t6.5 -49l1 -17h4q4 54 22 132l59 260l-69 22l5 35h180
l7 -30l-48 -29l-133 -529h-148zM450 784h40l156 -156h-152l-65 69l-71 -69h-64z" />
    <glyph glyph-name="wcircumflex" unicode="&#x175;" horiz-adv-x="759" 
d="M2 436h264l5 -38l-58 -14l45 -172q7 -26 11.5 -51t5.5 -37l1 -11h4q5 40 21 100l59 223h131l60 -224q7 -26 12 -50.5t7 -36.5l1 -12h4q4 41 21 100l49 168l-62 17l5 38h171l5 -35l-45 -13l-122 -388h-145l-51 187q-6 21 -10.5 46.5t-6.5 40.5l-1 14h-4q-7 -54 -20 -101
l-50 -187h-152l-115 371l-47 30zM401 672h40l156 -190h-143l-69 93l-74 -93h-66z" />
    <glyph glyph-name="Ycircumflex" unicode="&#x176;" 
d="M224 536l77 -155q14 -28 22 -52t9 -34l1 -10h4q4 30 40 95l81 151l-70 22l5 35h180l7 -30l-46 -29l-161 -301v-167l95 -26l-8 -35h-339l-8 35l95 26v167l-161 301l-47 29l7 30h270l6 -38zM290 784h40l156 -156h-152l-65 69l-71 -69h-64z" />
    <glyph glyph-name="ycircumflex" unicode="&#x177;" horiz-adv-x="503" 
d="M225 -56l-183 425l-47 32l7 35h263l6 -38l-64 -15l61 -150q12 -31 19.5 -59t8.5 -40l2 -13h4q6 43 31 113l52 147l-61 17l5 38h173l6 -35l-46 -15l-152 -403q-37 -99 -86.5 -150.5t-128.5 -51.5q-50 0 -74.5 25t-24.5 65q0 35 20 55.5t54 20.5q36 0 53 -20.5t17 -49.5
q0 -26 -21 -47q33 4 62.5 37t43.5 77zM246 672h40l156 -190h-143l-69 93l-74 -93h-66z" />
    <glyph glyph-name="Ydieresis" unicode="&#x178;" 
d="M224 536l77 -155q14 -28 22 -52t9 -34l1 -10h4q4 30 40 95l81 151l-70 22l5 35h180l7 -30l-46 -29l-161 -301v-167l95 -26l-8 -35h-339l-8 35l95 26v167l-161 301l-47 29l7 30h270l6 -38zM134 693q0 35 22 54t55 19q36 0 57.5 -18.5t21.5 -54.5q0 -34 -21.5 -52.5
t-57.5 -18.5q-33 0 -55 18.5t-22 52.5zM331 692q0 35 22 54t55 19q36 0 58 -18.5t22 -54.5q0 -34 -22 -52.5t-58 -18.5q-33 0 -55 19t-22 52z" />
    <glyph glyph-name="Zacute" unicode="&#x179;" horiz-adv-x="542" 
d="M20 12l246 448q13 24 25 41.5t18 23.5l6 6v4q-13 -3 -62 -3h-90l-97 -108l-22 4l14 160h441l5 -14l-241 -446q-13 -24 -26 -42t-19 -24l-7 -6v-4q16 4 65 4h112l105 134l24 -7l-34 -183h-457zM350 680l-145 -57l-16 24l98 125q24 32 56 33.5t52 -27.5q19 -30 5.5 -57
t-50.5 -41z" />
    <glyph glyph-name="zacute" unicode="&#x17a;" horiz-adv-x="486" 
d="M190 393h-36l-93 -111l-23 4l9 150h390l5 -14l-183 -304q-14 -23 -26.5 -41t-18.5 -25l-6 -6v-4q11 4 60 4h66l97 117l25 -7l-25 -156h-400l-6 12l178 309q13 24 25.5 41.5t17.5 23.5l6 6v4q-13 -3 -62 -3zM349 558l-127 -74l-21 20l55 132q15 36 48 46t60 -14
q28 -26 23.5 -58t-38.5 -52z" />
    <glyph glyph-name="Zdotaccent" unicode="&#x17b;" horiz-adv-x="542" 
d="M20 12l246 448q13 24 25 41.5t18 23.5l6 6v4q-13 -3 -62 -3h-90l-97 -108l-22 4l14 160h441l5 -14l-241 -446q-13 -24 -26 -42t-19 -24l-7 -6v-4q16 4 65 4h112l105 134l24 -7l-34 -183h-457zM195 714q0 39 25 59.5t62 20.5q39 0 64 -20.5t25 -59.5t-25 -59.5t-64 -20.5
q-37 0 -62 20.5t-25 59.5z" />
    <glyph glyph-name="zdotaccent" unicode="&#x17c;" horiz-adv-x="486" 
d="M190 393h-36l-93 -111l-23 4l9 150h390l5 -14l-183 -304q-14 -23 -26.5 -41t-18.5 -25l-6 -6v-4q11 4 60 4h66l97 117l25 -7l-25 -156h-400l-6 12l178 309q13 24 25.5 41.5t17.5 23.5l6 6v4q-13 -3 -62 -3zM171 577q0 39 25 59.5t62 20.5q39 0 64 -20.5t25 -59.5
t-25 -59.5t-64 -20.5q-37 0 -62 20.5t-25 59.5z" />
    <glyph glyph-name="Zcaron" unicode="&#x17d;" horiz-adv-x="542" 
d="M20 12l246 448q13 24 25 41.5t18 23.5l6 6v4q-13 -3 -62 -3h-90l-97 -108l-22 4l14 160h441l5 -14l-241 -446q-13 -24 -26 -42t-19 -24l-7 -6v-4q16 4 65 4h112l105 134l24 -7l-34 -183h-457zM298 620h-40l-156 156h152l59 -71l75 71h66z" />
    <glyph glyph-name="zcaron" unicode="&#x17e;" horiz-adv-x="486" 
d="M190 393h-36l-93 -111l-23 4l9 150h390l5 -14l-183 -304q-14 -23 -26.5 -41t-18.5 -25l-6 -6v-4q11 4 60 4h66l97 117l25 -7l-25 -156h-400l-6 12l178 309q13 24 25.5 41.5t17.5 23.5l6 6v4q-13 -3 -62 -3zM273 482h-40l-156 190h143l69 -93l74 93h66z" />
    <glyph glyph-name="Schwa" unicode="&#x18f;" horiz-adv-x="555" 
d="M354 288q0 91 -42 148t-128 57q-72 0 -136 -61l-20 24q66 142 239 142q114 0 183.5 -75t69.5 -217q0 -147 -68 -231t-201 -84q-112 0 -171 57.5t-59 161.5q0 49 14 78h319zM255 46q93 0 98 191l-181 -7q-6 -14 -6 -45q0 -54 20.5 -96.5t68.5 -42.5z" />
    <glyph glyph-name="florin" unicode="&#x192;" horiz-adv-x="622" 
d="M118 270v47h115l9 92q17 189 226 189q61 0 102.5 -25t41.5 -70q0 -33 -18.5 -53t-47.5 -20q-31 0 -50 17t-19 42q0 40 29 58q-10 8 -24 8q-30 0 -45.5 -20.5t-21.5 -79.5l-13 -138h128v-47h-132l-18 -191q-17 -189 -226 -189q-61 0 -102.5 25t-41.5 70q0 33 18.5 53
t47.5 20q31 0 50 -17t19 -42q0 -40 -29 -58q10 -8 24 -8q30 0 45.5 20.5t21.5 79.5l22 237h-111z" />
    <glyph glyph-name="Khook" unicode="&#x198;" horiz-adv-x="662" 
d="M436 439l-21 -41l188 -347l69 -18l-7 -33h-229l-135 274h-44v-219l64 -23l-8 -32h-271l-7 32l57 23v478l-57 23l7 32h269l8 -32l-62 -23v-212l54 8l67 141q32 68 69 98t93 30q49 0 76 -23.5t27 -67.5q0 -37 -22 -60t-57 -23q-28 0 -46 16t-18 44q0 31 22 47v4
q-25 -1 -42 -22t-44 -74z" />
    <glyph glyph-name="khook" unicode="&#x199;" horiz-adv-x="562" 
d="M225 244l45 8l119 119l-66 28l6 37h217l8 -34l-60 -15l-106 -105l133 -233l56 -21l-12 -28h-197l-105 196h-38v-148l50 -19l-13 -29h-234v28l37 20v435q0 60 22.5 102.5t60.5 63.5t76 29.5t81 8.5q64 0 98.5 -24t34.5 -71q0 -29 -20 -49.5t-50 -20.5q-32 0 -50.5 19.5
t-18.5 49.5q0 39 26 58q-14 3 -22 3q-40 0 -59 -41t-19 -103v-264z" />
    <glyph glyph-name="Ezh" unicode="&#x1b7;" horiz-adv-x="491" 
d="M471 574l-186 -350v-5q88 -12 133.5 -63.5t45.5 -128.5q0 -50 -18 -89t-47 -62.5t-69.5 -38.5t-80 -21t-83.5 -6q-166 0 -166 108q0 33 21 55.5t56 22.5q32 0 53.5 -21.5t21.5 -49.5q0 -43 -31 -61q18 -10 34 -10q70 0 108.5 37.5t38.5 107.5q0 73 -51 115t-134 53l-6 33
l172 332h-123l-97 -108l-22 4l14 160h411z" />
    <glyph glyph-name="Acaron" unicode="&#x1cd;" horiz-adv-x="613" 
d="M389 52l-35 95h-199l-33 -90l68 -22l-5 -35h-178l-7 30l46 29l198 529h125l197 -529l47 -29l-7 -30h-270l-6 38zM319 620h-40l-156 156h152l59 -71l75 71h66zM220 322l-44 -119h158l-43 120q-13 37 -21.5 70.5t-9.5 48.5l-2 15h-4q-4 -53 -34 -135z" />
    <glyph glyph-name="acaron" unicode="&#x1ce;" horiz-adv-x="491" 
d="M428 270v-171q0 -33 12 -43t43 -7l3 -19q-40 -40 -117 -40q-85 0 -96 67l-3 1q-31 -68 -126 -68q-51 0 -85 30t-34 89q0 65 48.5 97.5t133.5 32.5q31 0 61 -8v28q0 42 -26 64t-72 22q-57 0 -119 -22l-10 28q66 95 210 95q177 0 177 -176zM268 192h-20q-73 0 -73 -57
q0 -25 14 -41.5t36 -16.5q25 0 43 12v103zM264 482h-40l-156 190h143l69 -93l74 93h66z" />
    <glyph glyph-name="Icaron" unicode="&#x1cf;" horiz-adv-x="349" 
d="M192 620h-40l-136 156h152l43 -59l53 59h64zM42 588h265l7 -32l-57 -23v-478l57 -23l-7 -32h-265l-7 32l57 23v478l-57 23z" />
    <glyph glyph-name="icaron" unicode="&#x1d0;" horiz-adv-x="304" 
d="M233 48l51 -19l-13 -29h-235v28l37 20v262l-38 74v11l172 51h26v-398zM169 482h-40l-156 190h143l69 -93l74 93h66z" />
    <glyph glyph-name="Ocaron" unicode="&#x1d1;" horiz-adv-x="646" 
d="M323 40q57 0 83 56t26 198t-26 198t-83 56t-83 -56t-26 -198t26 -198t83 -56zM323 -10q-139 0 -213.5 79.5t-74.5 224.5q0 146 74.5 225t213.5 79t213.5 -79t74.5 -225q0 -145 -74.5 -224.5t-213.5 -79.5zM343 620h-40l-156 156h152l59 -71l75 71h66z" />
    <glyph glyph-name="ocaron" unicode="&#x1d2;" horiz-adv-x="534" 
d="M504 218q0 -111 -63.5 -169.5t-173.5 -58.5t-173.5 58.5t-63.5 169.5q0 112 63.5 170t173.5 58t173.5 -58t63.5 -170zM197 218q0 -96 14.5 -137.5t55.5 -41.5t55.5 41.5t14.5 137.5t-14.5 137.5t-55.5 41.5t-55.5 -41.5t-14.5 -137.5zM287 482h-40l-156 190h143l69 -93
l74 93h66z" />
    <glyph glyph-name="Ucaron" unicode="&#x1d3;" horiz-adv-x="624" 
d="M552 533v-326q0 -101 -61 -159t-170 -58q-113 0 -181 53.5t-68 164.5v325l-57 23l7 32h265l7 -32l-57 -23v-331q0 -139 119 -139q59 0 92 35t33 103v332l-77 23l7 32h191l7 -32zM345 620h-40l-156 156h152l59 -71l75 71h66z" />
    <glyph glyph-name="ucaron" unicode="&#x1d4;" horiz-adv-x="558" 
d="M332 310l-38 74v11l172 51h26v-347l46 -52v-21l-189 -31l-13 67h-4q-46 -72 -132 -72q-64 0 -105.5 37.5t-41.5 122.5v160l-38 74v11l172 51h26v-286q0 -79 56 -79q27 0 63 18v211zM302 482h-40l-156 190h143l69 -93l74 93h66z" />
    <glyph glyph-name="uni004100A800AF" unicode="&#x1de;" horiz-adv-x="613" 
d="M389 52l-35 95h-199l-33 -90l68 -22l-5 -35h-178l-7 30l46 29l198 529h125l197 -529l47 -29l-7 -30h-270l-6 38zM465 806h-319v81h319v-81zM326 692q0 35 22 54t55 19q36 0 58 -18.5t22 -54.5q0 -34 -22 -52.5t-58 -18.5q-33 0 -55 19t-22 52zM129 693q0 35 22 54t55 19
q36 0 57.5 -18.5t21.5 -54.5q0 -34 -21.5 -52.5t-57.5 -18.5q-33 0 -55 18.5t-22 52.5zM220 322l-44 -119h158l-43 120q-13 37 -21.5 70.5t-9.5 48.5l-2 15h-4q-4 -53 -34 -135z" />
    <glyph glyph-name="adieresismacron" unicode="&#x1df;" horiz-adv-x="491" 
d="M428 270v-171q0 -33 12 -43t43 -7l3 -19q-40 -40 -117 -40q-85 0 -96 67l-3 1q-31 -68 -126 -68q-51 0 -85 30t-34 89q0 65 48.5 97.5t133.5 32.5q31 0 61 -8v28q0 42 -26 64t-72 22q-57 0 -119 -22l-10 28q66 95 210 95q177 0 177 -176zM268 192h-20q-73 0 -73 -57
q0 -25 14 -41.5t36 -16.5q25 0 43 12v103zM61 541q0 35 22 54t55 19q36 0 57.5 -18.5t21.5 -54.5q0 -34 -21.5 -52.5t-57.5 -18.5q-33 0 -55 18.5t-22 52.5zM258 540q0 35 22 54t55 19q36 0 58 -18.5t22 -54.5q0 -34 -22 -52.5t-58 -18.5q-33 0 -55 19t-22 52zM382 644h-289
v81h289v-81z" />
    <glyph glyph-name="AEmacron" unicode="&#x1e2;" horiz-adv-x="847" 
d="M272 588h526v-157l-21 -5l-91 106h-125v-209h80l47 79l22 -4v-208l-21 -4l-47 81h-81v-194l24 -17h114l102 132l26 -6l-20 -182h-460l-7 32l56 23v132h-189l-74 -131l69 -20l-5 -36h-190l-7 30l57 28l265 475l-57 23zM689 654h-319v81h319v-81zM357 452l-119 -210h158
v297h-4q-8 -39 -35 -87z" />
    <glyph glyph-name="aemacron" unicode="&#x1e3;" horiz-adv-x="696" 
d="M415 212q5 -124 122 -124q30 0 50.5 8t47.5 29l22 -21q-39 -113 -187 -113q-110 0 -167 73q-47 -73 -144 -73q-64 0 -99 30.5t-35 87.5q0 78 56 109.5t180 35.5q0 4 1 9t2.5 11.5t2.5 9.5q-5 30 -30 48.5t-62 18.5q-61 0 -120 -29l-13 29q31 46 85 70.5t120 24.5
q69 0 108 -39q61 39 137 39q80 0 127 -43t47 -122q0 -29 -6 -57zM492 507h-289v81h289v-81zM486 398q-62 0 -70 -137l114 9q4 18 4 43q0 85 -48 85zM223 78q34 0 60 16q-25 48 -25 114q-48 -4 -69.5 -20t-21.5 -52q0 -26 15 -42t41 -16z" />
    <glyph glyph-name="Gstroke" unicode="&#x1e4;" horiz-adv-x="617" 
d="M356 145v46h48v41l-54 23l7 32h237l8 -32l-46 -23v-41h52v-46h-52v-154h-40l-46 52q-70 -53 -156 -53q-57 0 -105.5 17t-88 52t-62.5 96t-23 142q0 154 83 227.5t224 73.5q53 0 125 -19l61 19v-167l-21 -5l-50 52q-23 24 -35.5 35.5t-34.5 23t-45 11.5q-28 0 -49 -11
t-40 -37t-29 -78t-10 -127q0 -251 110 -251q51 0 80 24v77h-48z" />
    <glyph glyph-name="gstroke" unicode="&#x1e5;" horiz-adv-x="509" 
d="M180 99h164q165 0 165 -151q0 -16 -3 -31h48v-43h-64q-55 -96 -245 -96q-224 0 -225 96h-43v43h55q25 38 108 43v3q-48 5 -74 31t-26 69q0 41 27.5 66.5t72.5 35.5q-97 32 -97 125q0 70 53 113t151 43q103 0 164 -31q-6 9 -6 24q0 25 16.5 40.5t42.5 15.5t43 -16.5
t17 -44.5q0 -31 -18 -47t-45 -16q-25 0 -80 22v-11q61 -26 61 -94q0 -67 -58.5 -102.5t-137.5 -35.5q-37 0 -65 7q-31 -9 -31 -32q0 -26 30 -26zM293 298q0 56 -9 79.5t-41 23.5q-31 0 -40 -23.5t-9 -79.5q0 -55 9 -78.5t40 -23.5q32 0 41 23.5t9 78.5zM251 -177
q107 0 128 51h-230q17 -51 102 -51zM183 -46q-28 -13 -35 -37h232q-10 37 -75 37h-122z" />
    <glyph glyph-name="Gcaron" unicode="&#x1e6;" horiz-adv-x="617" 
d="M214 295q0 -251 110 -251q51 0 80 24v164l-54 23l7 32h237l8 -32l-46 -23v-241h-40l-46 52q-70 -53 -156 -53q-57 0 -105.5 17t-88 52t-62.5 96t-23 142q0 154 83 227.5t224 73.5q53 0 125 -19l61 19v-167l-21 -5l-50 52q-23 24 -35.5 35.5t-34.5 23t-45 11.5
q-28 0 -49 -11t-40 -37t-29 -78t-10 -127zM342 620h-40l-156 156h152l59 -71l75 71h66z" />
    <glyph glyph-name="gcaron" unicode="&#x1e7;" horiz-adv-x="509" 
d="M180 99h164q165 0 165 -151q0 -46 -22 -80t-60 -53t-83.5 -28t-98.5 -9q-225 0 -225 98q0 77 120 84v3q-48 5 -74 31t-26 69q0 41 27.5 66.5t72.5 35.5q-97 32 -97 125q0 70 53 113t151 43q103 0 164 -31q-6 9 -6 24q0 25 16.5 40.5t42.5 15.5t43 -16.5t17 -44.5
q0 -31 -18 -47t-45 -16q-25 0 -80 22v-11q61 -26 61 -94q0 -67 -58.5 -102.5t-137.5 -35.5q-37 0 -65 7q-31 -9 -31 -32q0 -26 30 -26zM183 -46q-37 -18 -37 -56q0 -75 105 -75q132 0 132 74q0 57 -78 57h-122zM293 298q0 56 -9 79.5t-41 23.5q-31 0 -40 -23.5t-9 -79.5
q0 -55 9 -78.5t40 -23.5q32 0 41 23.5t9 78.5zM283 482h-40l-156 190h143l69 -93l74 93h66z" />
    <glyph glyph-name="Kcaron" unicode="&#x1e8;" horiz-adv-x="662" 
d="M257 321l49 8l165 201l-59 26l5 32h213l5 -32l-73 -17l-135 -161l176 -327l69 -18l-7 -33h-229l-135 274h-44v-219l57 -23l-7 -32h-265l-7 32l57 23v478l-57 23l7 32h265l7 -32l-57 -23v-212zM349 620h-40l-156 156h152l59 -71l75 71h66z" />
    <glyph glyph-name="kcaron" unicode="&#x1e9;" horiz-adv-x="562" 
d="M225 48l52 -19l-13 -29h-236v28l37 19v521l-40 60v11l174 42h26v-437l45 8l119 119l-66 28l6 37h217l8 -34l-60 -15l-106 -105l133 -233l56 -21l-12 -28h-197l-105 196h-38v-148zM169 707h-40l-156 156h152l59 -71l75 71h66z" />
    <glyph glyph-name="Oogonek" unicode="&#x1ea;" horiz-adv-x="646" 
d="M202 -113q0 66 77 106q-118 12 -181 90t-63 211q0 146 74.5 225t213.5 79t213.5 -79t74.5 -225q0 -132 -61.5 -210t-177.5 -91q-50 -30 -50 -78q0 -24 12.5 -36t33.5 -12q34 0 66 29l16 -21q-32 -90 -132 -90q-47 0 -81.5 24t-34.5 78zM323 40q57 0 83 56t26 198t-26 198
t-83 56t-83 -56t-26 -198t26 -198t83 -56z" />
    <glyph glyph-name="oogonek" unicode="&#x1eb;" horiz-adv-x="534" 
d="M170 -113q0 62 65 105q-96 8 -150.5 65.5t-54.5 160.5q0 112 63.5 170t173.5 58t173.5 -58t63.5 -170q0 -94 -45.5 -150.5t-126.5 -71.5q-42 -32 -42 -81q0 -24 12.5 -36t33.5 -12q34 0 66 29l16 -21q-32 -90 -132 -90q-47 0 -81.5 24t-34.5 78zM197 218
q0 -96 14.5 -137.5t55.5 -41.5t55.5 41.5t14.5 137.5t-14.5 137.5t-55.5 41.5t-55.5 -41.5t-14.5 -137.5z" />
    <glyph glyph-name="uni004F02DB00AF" unicode="&#x1ec;" horiz-adv-x="646" 
d="M202 -113q0 66 77 106q-118 12 -181 90t-63 211q0 146 74.5 225t213.5 79t213.5 -79t74.5 -225q0 -132 -61.5 -210t-177.5 -91q-50 -30 -50 -78q0 -24 12.5 -36t33.5 -12q34 0 66 29l16 -21q-32 -90 -132 -90q-47 0 -81.5 24t-34.5 78zM323 40q57 0 83 56t26 198t-26 198
t-83 56t-83 -56t-26 -198t26 -198t83 -56zM482 654h-319v81h319v-81z" />
    <glyph glyph-name="oogonekmacron" unicode="&#x1ed;" horiz-adv-x="534" 
d="M170 -113q0 62 65 105q-96 8 -150.5 65.5t-54.5 160.5q0 112 63.5 170t173.5 58t173.5 -58t63.5 -170q0 -94 -45.5 -150.5t-126.5 -71.5q-42 -32 -42 -81q0 -24 12.5 -36t33.5 -12q34 0 66 29l16 -21q-32 -90 -132 -90q-47 0 -81.5 24t-34.5 78zM197 218
q0 -96 14.5 -137.5t55.5 -41.5t55.5 41.5t14.5 137.5t-14.5 137.5t-55.5 41.5t-55.5 -41.5t-14.5 -137.5zM414 507h-289v81h289v-81z" />
    <glyph glyph-name="Ezhcaron" unicode="&#x1ee;" horiz-adv-x="491" 
d="M471 574l-186 -350v-5q88 -12 133.5 -63.5t45.5 -128.5q0 -50 -18 -89t-47 -62.5t-69.5 -38.5t-80 -21t-83.5 -6q-166 0 -166 108q0 33 21 55.5t56 22.5q32 0 53.5 -21.5t21.5 -49.5q0 -43 -31 -61q18 -10 34 -10q70 0 108.5 37.5t38.5 107.5q0 73 -51 115t-134 53l-6 33
l172 332h-123l-97 -108l-22 4l14 160h411zM288 620h-40l-156 156h152l59 -71l75 71h66z" />
    <glyph glyph-name="ezhcaron" unicode="&#x1ef;" horiz-adv-x="491" 
d="M447 422l-176 -257v-4q77 -10 120.5 -55t43.5 -110q0 -53 -23 -91t-62 -58t-81 -28.5t-90 -8.5q-150 0 -150 96q0 29 19.5 49.5t50.5 20.5q30 0 49 -19.5t19 -44.5q0 -38 -28 -55q15 -9 31 -9q51 0 82 32.5t31 91.5q0 62 -44 98t-115 46l-8 30l154 247h-120l-84 -111
l-23 4l9 150h390zM272 482h-40l-156 190h143l69 -93l74 93h66z" />
    <glyph glyph-name="jcaron" unicode="&#x1f0;" horiz-adv-x="282" 
d="M229 446v-496q0 -72 -61 -120.5t-165 -48.5q-123 0 -123 84q0 33 21 52.5t54 19.5t49.5 -21.5t16.5 -51.5q0 -27 -15 -48q63 0 63 111v382l-48 74v11l182 52h26zM167 482h-40l-156 190h143l69 -93l74 93h66z" />
    <glyph glyph-name="jcaron" unicode="&#xe10c;" horiz-adv-x="282" 
d="M229 446v-496q0 -72 -61 -120.5t-165 -48.5q-123 0 -123 84q0 33 21 52.5t54 19.5t49.5 -21.5t16.5 -51.5q0 -27 -15 -48q63 0 63 111v382l-48 74v11l182 52h26zM167 482h-40l-156 190h143l69 -93l74 93h66z" />
    <glyph glyph-name="Gacute" unicode="&#x1f4;" horiz-adv-x="617" 
d="M214 295q0 -251 110 -251q51 0 80 24v164l-54 23l7 32h237l8 -32l-46 -23v-241h-40l-46 52q-70 -53 -156 -53q-57 0 -105.5 17t-88 52t-62.5 96t-23 142q0 154 83 227.5t224 73.5q53 0 125 -19l61 19v-167l-21 -5l-50 52q-23 24 -35.5 35.5t-34.5 23t-45 11.5
q-28 0 -49 -11t-40 -37t-29 -78t-10 -127zM398 680l-145 -57l-16 24l98 125q24 32 56 33.5t52 -27.5q19 -30 5.5 -57t-50.5 -41z" />
    <glyph glyph-name="gacute" unicode="&#x1f5;" horiz-adv-x="509" 
d="M180 99h164q165 0 165 -151q0 -46 -22 -80t-60 -53t-83.5 -28t-98.5 -9q-225 0 -225 98q0 77 120 84v3q-48 5 -74 31t-26 69q0 41 27.5 66.5t72.5 35.5q-97 32 -97 125q0 70 53 113t151 43q103 0 164 -31q-6 9 -6 24q0 25 16.5 40.5t42.5 15.5t43 -16.5t17 -44.5
q0 -31 -18 -47t-45 -16q-25 0 -80 22v-11q61 -26 61 -94q0 -67 -58.5 -102.5t-137.5 -35.5q-37 0 -65 7q-31 -9 -31 -32q0 -26 30 -26zM183 -46q-37 -18 -37 -56q0 -75 105 -75q132 0 132 74q0 57 -78 57h-122zM293 298q0 56 -9 79.5t-41 23.5q-31 0 -40 -23.5t-9 -79.5
q0 -55 9 -78.5t40 -23.5q32 0 41 23.5t9 78.5zM343 558l-127 -74l-21 20l55 132q15 36 48 46t60 -14q28 -26 23.5 -58t-38.5 -52z" />
    <glyph glyph-name="Ngrave" unicode="&#x1f8;" horiz-adv-x="643" 
d="M164 291v-236l77 -23l-7 -32h-192l-7 32l57 23v478l-57 23l7 32h206l191 -266q20 -27 36 -56t22 -44l6 -16h4q-6 84 -6 159v168l-77 23l7 32h185l7 -32l-57 -23v-533h-93l-247 334q-20 27 -36 56t-22 44l-6 16h-4q6 -84 6 -159zM395 614l-145 57q-37 14 -50.5 41t5.5 57
q20 29 52 27.5t56 -33.5l98 -125z" />
    <glyph glyph-name="ngrave" unicode="&#x1f9;" horiz-adv-x="588" 
d="M526 48l52 -19l-13 -29h-236v28l37 20v199q0 47 -19.5 70.5t-50.5 23.5q-33 0 -63 -30v-263l52 -19l-13 -29h-236v28l37 19v263l-38 74v11l172 51h25l-3 -89h4q28 43 64 66t93 23q63 0 99.5 -43.5t36.5 -119.5v-235zM344 484l-127 74q-34 20 -38.5 52t23.5 58
q27 24 60 14t48 -46l55 -132z" />
    <glyph glyph-name="uni004102DA00B4" unicode="&#x1fa;" horiz-adv-x="613" 
d="M389 52l-35 95h-199l-33 -90l68 -22l-5 -35h-178l-7 30l46 29l198 529h125l197 -529l47 -29l-7 -30h-270l-6 38zM179 710q0 41 30 67t89 26q58 0 89.5 -26t31.5 -66q0 -42 -31.5 -68.5t-89.5 -26.5q-59 0 -89 26t-30 68zM357 844l-154 -24l-11 27l123 101
q31 25 62.5 19.5t44.5 -37.5q14 -32 -5.5 -56.5t-59.5 -29.5zM220 322l-44 -119h158l-43 120q-13 37 -21.5 70.5t-9.5 48.5l-2 15h-4q-4 -53 -34 -135zM235 709q0 -19 16.5 -31.5t46.5 -12.5q27 0 43.5 12.5t16.5 31.5q0 20 -16.5 33.5t-43.5 13.5q-29 0 -46 -13.5
t-17 -33.5z" />
    <glyph glyph-name="aringacute" unicode="&#x1fb;" horiz-adv-x="491" 
d="M130 571q0 41 30 67t89 26q58 0 89.5 -26t31.5 -66q0 -42 -31.5 -68.5t-89.5 -26.5q-59 0 -89 26t-30 68zM186 570q0 -19 16.5 -31.5t46.5 -12.5q27 0 43.5 12.5t16.5 31.5q0 20 -16.5 33.5t-43.5 13.5q-29 0 -46 -13.5t-17 -33.5zM308 715l-154 -24l-11 27l123 101
q31 25 62.5 19.5t44.5 -37.5q14 -32 -5.5 -56.5t-59.5 -29.5zM428 270v-171q0 -33 12 -43t43 -7l3 -19q-40 -40 -117 -40q-85 0 -96 67l-3 1q-31 -68 -126 -68q-51 0 -85 30t-34 89q0 65 48.5 97.5t133.5 32.5q31 0 61 -8v28q0 42 -26 64t-72 22q-57 0 -119 -22l-10 28
q66 95 210 95q177 0 177 -176zM268 192h-20q-73 0 -73 -57q0 -25 14 -41.5t36 -16.5q25 0 43 12v103z" />
    <glyph glyph-name="AEacute" unicode="&#x1fc;" horiz-adv-x="847" 
d="M272 588h526v-157l-21 -5l-91 106h-125v-209h80l47 79l22 -4v-208l-21 -4l-47 81h-81v-194l24 -17h114l102 132l26 -6l-20 -182h-460l-7 32l56 23v132h-189l-74 -131l69 -20l-5 -36h-190l-7 30l57 28l265 475l-57 23zM357 452l-119 -210h158v297h-4q-8 -39 -35 -87z
M566 680l-145 -57l-16 24l98 125q24 32 56 33.5t52 -27.5q19 -30 5.5 -57t-50.5 -41z" />
    <glyph glyph-name="aeacute" unicode="&#x1fd;" horiz-adv-x="696" 
d="M415 212q5 -124 122 -124q30 0 50.5 8t47.5 29l22 -21q-39 -113 -187 -113q-110 0 -167 73q-47 -73 -144 -73q-64 0 -99 30.5t-35 87.5q0 78 56 109.5t180 35.5q0 4 1 9t2.5 11.5t2.5 9.5q-5 30 -30 48.5t-62 18.5q-61 0 -120 -29l-13 29q31 46 85 70.5t120 24.5
q69 0 108 -39q61 39 137 39q80 0 127 -43t47 -122q0 -29 -6 -57zM451 558l-127 -74l-21 20l55 132q15 36 48 46t60 -14q28 -26 23.5 -58t-38.5 -52zM486 398q-62 0 -70 -137l114 9q4 18 4 43q0 85 -48 85zM223 78q34 0 60 16q-25 48 -25 114q-48 -4 -69.5 -20t-21.5 -52
q0 -26 15 -42t41 -16z" />
    <glyph glyph-name="Oslashacute" unicode="&#x1fe;" horiz-adv-x="646" 
d="M323 -9q-102 0 -168 36l-41 -56h-66l64 89q-77 74 -77 236q0 145 74.5 223.5t213.5 78.5q92 0 156 -35l41 55h67l-63 -86q87 -79 87 -236q0 -154 -71 -229.5t-217 -75.5zM432 296q0 55 -5 103l-197 -269q26 -88 93 -88q55 0 82 59.5t27 194.5zM323 548q-54 0 -81.5 -56.5
t-27.5 -195.5q0 -56 4 -92l194 267q-24 77 -89 77zM371 680l-145 -57l-16 24l98 125q24 32 56 33.5t52 -27.5q19 -30 5.5 -57t-50.5 -41z" />
    <glyph glyph-name="oslashacute" unicode="&#x1ff;" horiz-adv-x="539" 
d="M273 446q73 0 124 -25l35 45h67l-57 -73q67 -61 67 -176t-65.5 -170.5t-177.5 -55.5q-71 0 -122 21l-32 -41h-66l52 67q-68 56 -68 179q0 113 64.5 171t178.5 58zM353 558l-127 -74l-21 20l55 132q15 36 48 46t60 -14q28 -26 23.5 -58t-38.5 -52zM195 216q0 -36 1 -52
l135 173q-16 59 -64 59q-42 0 -57 -42t-15 -138zM268 37q40 0 57.5 44t17.5 135q0 18 -2 48l-134 -171q17 -56 61 -56z" />
    <glyph glyph-name="Adoublegrave" unicode="&#x200;" horiz-adv-x="613" 
d="M389 52l-35 95h-199l-33 -90l68 -22l-5 -35h-178l-7 30l46 29l198 529h125l197 -529l47 -29l-7 -30h-270l-6 38zM435 618l-120 81q-64 43 -13 92q27 26 50.5 21t41.5 -38l69 -127zM263 618l-129 64q-70 33 -25 89q22 29 47 27t46 -32l85 -116zM220 322l-44 -119h158
l-43 120q-13 37 -21.5 70.5t-9.5 48.5l-2 15h-4q-4 -53 -34 -135z" />
    <glyph glyph-name="edoublegrave" unicode="&#x201;" horiz-adv-x="468" 
d="M187 221q5 -134 122 -134q30 0 50.5 8t47.5 29l22 -21q-39 -113 -187 -113q-93 0 -152.5 57t-59.5 163q0 110 67 173t167 63q80 0 127 -43t47 -122q0 -31 -6 -60h-245zM258 398q-62 0 -70 -128h114q4 18 4 43q0 85 -48 85zM187 480l-117 85q-63 45 -10 92q27 24 51 18
t40 -39l65 -128zM367 480l-117 85q-63 45 -10 92q27 24 51 18t40 -39l65 -128z" />
    <glyph glyph-name="edoublegrave" unicode="&#x205;" horiz-adv-x="468" 
d="M187 221q5 -134 122 -134q30 0 50.5 8t47.5 29l22 -21q-39 -113 -187 -113q-93 0 -152.5 57t-59.5 163q0 110 67 173t167 63q80 0 127 -43t47 -122q0 -31 -6 -60h-245zM258 398q-62 0 -70 -128h114q4 18 4 43q0 85 -48 85zM187 480l-117 85q-63 45 -10 92q27 24 51 18
t40 -39l65 -128zM367 480l-117 85q-63 45 -10 92q27 24 51 18t40 -39l65 -128z" />
    <glyph glyph-name="Ainvertedbreve" unicode="&#x202;" horiz-adv-x="613" 
d="M389 52l-35 95h-199l-33 -90l68 -22l-5 -35h-178l-7 30l46 29l198 529h125l197 -529l47 -29l-7 -30h-270l-6 38zM302 681q-77 0 -91 -66h-52q0 73 37.5 114t105.5 41t105.5 -41t37.5 -114h-52q-14 66 -91 66zM220 322l-44 -119h158l-43 120q-13 37 -21.5 70.5t-9.5 48.5
l-2 15h-4q-4 -53 -34 -135z" />
    <glyph glyph-name="ainvertedbreve" unicode="&#x203;" horiz-adv-x="491" 
d="M428 270v-171q0 -33 12 -43t43 -7l3 -19q-40 -40 -117 -40q-85 0 -96 67l-3 1q-31 -68 -126 -68q-51 0 -85 30t-34 89q0 65 48.5 97.5t133.5 32.5q31 0 61 -8v28q0 42 -26 64t-72 22q-57 0 -119 -22l-10 28q66 95 210 95q177 0 177 -176zM268 192h-20q-73 0 -73 -57
q0 -25 14 -41.5t36 -16.5q25 0 43 12v103zM239 577q-44 0 -71 -24t-27 -61h-47q-1 8 -1 23q0 66 39.5 108.5t106.5 42.5t106.5 -42.5t39.5 -108.5q0 -15 -1 -23h-47q0 37 -27 61t-71 24z" />
    <glyph glyph-name="Edoublegrave" unicode="&#x204;" horiz-adv-x="542" 
d="M337 267h-80v-194l24 -17h113l102 132l26 -6l-20 -182h-460l-7 32l57 23v478l-57 23l7 32h451v-157l-21 -5l-91 106h-124v-209h79l47 79l22 -4v-208l-21 -4zM247 618l-129 64q-70 33 -25 89q22 29 47 27t46 -32l85 -116zM419 618l-120 81q-64 43 -13 92q27 26 50.5 21
t41.5 -38l69 -127z" />
    <glyph glyph-name="Einvertedbreve" unicode="&#x206;" horiz-adv-x="542" 
d="M337 267h-80v-194l24 -17h113l102 132l26 -6l-20 -182h-460l-7 32l57 23v478l-57 23l7 32h451v-157l-21 -5l-91 106h-124v-209h79l47 79l22 -4v-208l-21 -4zM285 688q-77 0 -91 -66h-52q0 73 37.5 114t105.5 41t105.5 -41t37.5 -114h-52q-14 66 -91 66z" />
    <glyph glyph-name="einvertedbreve" unicode="&#x207;" horiz-adv-x="468" 
d="M187 221q5 -134 122 -134q30 0 50.5 8t47.5 29l22 -21q-39 -113 -187 -113q-93 0 -152.5 57t-59.5 163q0 110 67 173t167 63q80 0 127 -43t47 -122q0 -31 -6 -60h-245zM258 398q-62 0 -70 -128h114q4 18 4 43q0 85 -48 85zM250 577q-44 0 -71 -24t-27 -61h-47q-1 8 -1 23
q0 66 39.5 108.5t106.5 42.5t106.5 -42.5t39.5 -108.5q0 -15 -1 -23h-47q0 37 -27 61t-71 24z" />
    <glyph glyph-name="Idoublegrave" unicode="&#x208;" horiz-adv-x="349" 
d="M42 588h265l7 -32l-57 -23v-478l57 -23l-7 -32h-265l-7 32l57 23v478l-57 23zM141 618l-129 64q-70 33 -25 89q22 29 47 27t46 -32l85 -116zM313 618l-120 81q-64 43 -13 92q27 26 50.5 21t41.5 -38l69 -127z" />
    <glyph glyph-name="idoublegrave" unicode="&#x209;" horiz-adv-x="304" 
d="M233 48l51 -19l-13 -29h-235v28l37 20v262l-38 74v11l172 51h26v-398zM91 480l-117 85q-63 45 -10 92q27 24 51 18t40 -39l65 -128zM271 480l-117 85q-63 45 -10 92q27 24 51 18t40 -39l65 -128z" />
    <glyph glyph-name="Iinvertedbreve" unicode="&#x20a;" horiz-adv-x="349" 
d="M174 694q-77 0 -91 -66h-52q0 73 37.5 114t105.5 41t105.5 -41t37.5 -114h-52q-14 66 -91 66zM42 588h265l7 -32l-57 -23v-478l57 -23l-7 -32h-265l-7 32l57 23v478l-57 23z" />
    <glyph glyph-name="iinvertedbreve" unicode="&#x20b;" horiz-adv-x="304" 
d="M150 575q-43 0 -65.5 -23.5t-22.5 -61.5h-47q-1 8 -1 23q0 67 35 109t101 42t101 -42t35 -109q0 -15 -1 -23h-47q0 38 -22.5 61.5t-65.5 23.5zM233 48l51 -19l-13 -29h-235v28l37 20v262l-38 74v11l172 51h26v-398z" />
    <glyph glyph-name="Odoublegrave" unicode="&#x20c;" horiz-adv-x="646" 
d="M323 40q57 0 83 56t26 198t-26 198t-83 56t-83 -56t-26 -198t26 -198t83 -56zM323 -10q-139 0 -213.5 79.5t-74.5 224.5q0 146 74.5 225t213.5 79t213.5 -79t74.5 -225q0 -145 -74.5 -224.5t-213.5 -79.5zM271 618l-129 64q-70 33 -25 89q22 29 47 27t46 -32l85 -116z
M443 618l-120 81q-64 43 -13 92q27 26 50.5 21t41.5 -38l69 -127z" />
    <glyph glyph-name="odoublegrave" unicode="&#x20d;" horiz-adv-x="534" 
d="M504 218q0 -111 -63.5 -169.5t-173.5 -58.5t-173.5 58.5t-63.5 169.5q0 112 63.5 170t173.5 58t173.5 -58t63.5 -170zM197 218q0 -96 14.5 -137.5t55.5 -41.5t55.5 41.5t14.5 137.5t-14.5 137.5t-55.5 41.5t-55.5 -41.5t-14.5 -137.5zM220 480l-117 85q-63 45 -10 92
q27 24 51 18t40 -39l65 -128zM400 480l-117 85q-63 45 -10 92q27 24 51 18t40 -39l65 -128z" />
    <glyph glyph-name="Oinvertedbreve" unicode="&#x20e;" horiz-adv-x="646" 
d="M323 40q57 0 83 56t26 198t-26 198t-83 56t-83 -56t-26 -198t26 -198t83 -56zM323 -10q-139 0 -213.5 79.5t-74.5 224.5q0 146 74.5 225t213.5 79t213.5 -79t74.5 -225q0 -145 -74.5 -224.5t-213.5 -79.5zM325 688q-77 0 -91 -66h-52q0 73 37.5 114t105.5 41t105.5 -41
t37.5 -114h-52q-14 66 -91 66z" />
    <glyph glyph-name="oinvertedbreve" unicode="&#x20f;" horiz-adv-x="534" 
d="M504 218q0 -111 -63.5 -169.5t-173.5 -58.5t-173.5 58.5t-63.5 169.5q0 112 63.5 170t173.5 58t173.5 -58t63.5 -170zM197 218q0 -96 14.5 -137.5t55.5 -41.5t55.5 41.5t14.5 137.5t-14.5 137.5t-55.5 41.5t-55.5 -41.5t-14.5 -137.5zM270 577q-44 0 -71 -24t-27 -61h-47
q-1 8 -1 23q0 66 39.5 108.5t106.5 42.5t106.5 -42.5t39.5 -108.5q0 -15 -1 -23h-47q0 37 -27 61t-71 24z" />
    <glyph glyph-name="Rinvertedbreve" unicode="&#x212;" horiz-adv-x="633" 
d="M257 535v-228h51q89 0 89 116q0 112 -90 112h-50zM581 52l62 -21l-7 -31h-219l-86 208q-11 26 -26.5 37t-47.5 12v-202l57 -23l-7 -32h-265l-7 32l57 23v478l-57 23l7 32h334q50 0 92 -13t73.5 -50t31.5 -93q0 -70 -45.5 -110t-109.5 -48v-6q32 -3 57.5 -21t38.5 -46z
M295 688q-77 0 -91 -66h-52q0 73 37.5 114t105.5 41t105.5 -41t37.5 -114h-52q-14 66 -91 66z" />
    <glyph glyph-name="rinvertedbreve" unicode="&#x213;" horiz-adv-x="449" 
d="M233 51l82 -20l-13 -31h-266v28l37 19v262l-38 74v11l172 52h25l-3 -101h4q14 42 44.5 71.5t78.5 29.5q43 0 68 -24.5t25 -65.5q0 -36 -22 -59t-55 -23q-35 0 -55.5 21t-20.5 55q-27 -12 -63 -53v-246zM226 577q-44 0 -71 -24t-27 -61h-47q-1 8 -1 23q0 66 39.5 108.5
t106.5 42.5t106.5 -42.5t39.5 -108.5q0 -15 -1 -23h-47q0 37 -27 61t-71 24z" />
    <glyph glyph-name="Udoublegrave" unicode="&#x214;" horiz-adv-x="624" 
d="M552 533v-326q0 -101 -61 -159t-170 -58q-113 0 -181 53.5t-68 164.5v325l-57 23l7 32h265l7 -32l-57 -23v-331q0 -139 119 -139q59 0 92 35t33 103v332l-77 23l7 32h191l7 -32zM292 618l-129 64q-70 33 -25 89q22 29 47 27t46 -32l85 -116zM464 618l-120 81
q-64 43 -13 92q27 26 50.5 21t41.5 -38l69 -127z" />
    <glyph glyph-name="udoublegrave" unicode="&#x215;" horiz-adv-x="558" 
d="M332 310l-38 74v11l172 51h26v-347l46 -52v-21l-189 -31l-13 67h-4q-46 -72 -132 -72q-64 0 -105.5 37.5t-41.5 122.5v160l-38 74v11l172 51h26v-286q0 -79 56 -79q27 0 63 18v211zM217 480l-117 85q-63 45 -10 92q27 24 51 18t40 -39l65 -128zM397 480l-117 85
q-63 45 -10 92q27 24 51 18t40 -39l65 -128z" />
    <glyph glyph-name="Uinvertedbreve" unicode="&#x216;" horiz-adv-x="624" 
d="M552 533v-326q0 -101 -61 -159t-170 -58q-113 0 -181 53.5t-68 164.5v325l-57 23l7 32h265l7 -32l-57 -23v-331q0 -139 119 -139q59 0 92 35t33 103v332l-77 23l7 32h191l7 -32zM318 688q-77 0 -91 -66h-52q0 73 37.5 114t105.5 41t105.5 -41t37.5 -114h-52
q-14 66 -91 66z" />
    <glyph glyph-name="uinvertedbreve" unicode="&#x217;" horiz-adv-x="558" 
d="M332 310l-38 74v11l172 51h26v-347l46 -52v-21l-189 -31l-13 67h-4q-46 -72 -132 -72q-64 0 -105.5 37.5t-41.5 122.5v160l-38 74v11l172 51h26v-286q0 -79 56 -79q27 0 63 18v211zM275 577q-44 0 -71 -24t-27 -61h-47q-1 8 -1 23q0 66 39.5 108.5t106.5 42.5
t106.5 -42.5t39.5 -108.5q0 -15 -1 -23h-47q0 37 -27 61t-71 24z" />
    <glyph glyph-name="Scommaaccent" unicode="&#x218;" horiz-adv-x="499" 
d="M250 40q37 0 57 19t20 53q0 35 -21 58t-73 43l-74 28q-117 44 -117 177q0 87 57.5 133.5t141.5 46.5q72 0 132 -24l51 24l15 -168l-28 -6l-62 69q-50 56 -112 56q-31 0 -50 -18t-19 -48q0 -31 18.5 -51.5t60.5 -36.5l72 -26q78 -28 111.5 -73t33.5 -117q0 -90 -59 -139.5
t-151 -49.5q-86 0 -143 35l-59 -35l-17 192l32 6l60 -79q52 -69 123 -69zM273 -139h-8q-3 -16 -16 -23.5t-25 -7.5q-31 0 -48 19.5t-17 47.5q0 34 22.5 54t56.5 20q45 0 71 -28t26 -72q0 -63 -50.5 -96.5t-123.5 -35.5l-9 20q64 19 92.5 41.5t28.5 60.5z" />
    <glyph glyph-name="scommaaccent" unicode="&#x219;" horiz-adv-x="438" 
d="M35 139l29 6q44 -64 76.5 -86.5t76.5 -22.5q66 0 66 46q0 21 -14 34t-46 23l-70 21q-112 33 -112 138q0 74 45 111t120 37q60 0 104 -21l60 20v-133l-27 -5q-61 91 -132 91q-24 0 -37.5 -10.5t-13.5 -28.5q0 -31 39 -44l82 -27q68 -22 97.5 -58t29.5 -94
q0 -146 -191 -146q-60 0 -113 23l-56 -23zM250 -139h-8q-3 -16 -16 -23.5t-25 -7.5q-31 0 -48 19.5t-17 47.5q0 34 22.5 54t56.5 20q45 0 71 -28t26 -72q0 -63 -50.5 -96.5t-123.5 -35.5l-9 20q64 19 92.5 41.5t28.5 60.5z" />
    <glyph glyph-name="Hcaron" unicode="&#x21e;" horiz-adv-x="714" 
d="M407 588h265l7 -32l-57 -23v-478l57 -23l-7 -32h-265l-7 32l57 23v212h-200v-212l57 -23l-7 -32h-265l-7 32l57 23v478l-57 23l7 32h265l7 -32l-57 -23v-210h200v210l-57 23zM372 620h-40l-156 156h152l59 -71l75 71h66z" />
    <glyph glyph-name="hcaron" unicode="&#x21f;" horiz-adv-x="579" 
d="M358 47v200q0 44 -18.5 69t-50.5 25q-34 0 -64 -30v-263l51 -19l-13 -29h-235v28l37 19v521l-40 60v11l174 42h26v-324h4q49 89 150 89q60 0 99.5 -38.5t39.5 -125.5v-234l51 -19l-13 -29h-235v28zM170 706h-40l-156 156h152l59 -71l75 71h66z" />
    <glyph glyph-name="Adotabove" unicode="&#x226;" horiz-adv-x="613" 
d="M389 52l-35 95h-199l-33 -90l68 -22l-5 -35h-178l-7 30l46 29l198 529h125l197 -529l47 -29l-7 -30h-270l-6 38zM215 714q0 39 25 59.5t62 20.5q39 0 64 -20.5t25 -59.5t-25 -59.5t-64 -20.5q-37 0 -62 20.5t-25 59.5zM220 322l-44 -119h158l-43 120q-13 37 -21.5 70.5
t-9.5 48.5l-2 15h-4q-4 -53 -34 -135z" />
    <glyph glyph-name="adotabove" unicode="&#x227;" horiz-adv-x="491" 
d="M428 270v-171q0 -33 12 -43t43 -7l3 -19q-40 -40 -117 -40q-85 0 -96 67l-3 1q-31 -68 -126 -68q-51 0 -85 30t-34 89q0 65 48.5 97.5t133.5 32.5q31 0 61 -8v28q0 42 -26 64t-72 22q-57 0 -119 -22l-10 28q66 95 210 95q177 0 177 -176zM268 192h-20q-73 0 -73 -57
q0 -25 14 -41.5t36 -16.5q25 0 43 12v103zM148 577q0 39 25 59.5t62 20.5q39 0 64 -20.5t25 -59.5t-25 -59.5t-64 -20.5q-37 0 -62 20.5t-25 59.5z" />
    <glyph glyph-name="Otildemacron" unicode="&#x22c;" horiz-adv-x="646" 
d="M323 40q57 0 83 56t26 198t-26 198t-83 56t-83 -56t-26 -198t26 -198t83 -56zM323 -10q-139 0 -213.5 79.5t-74.5 224.5q0 146 74.5 225t213.5 79t213.5 -79t74.5 -225q0 -145 -74.5 -224.5t-213.5 -79.5zM338 637l-62 25q-24 10 -44 10q-50 0 -53 -59l-30 5q-9 26 -9 48
q0 46 31 74t79 28q30 0 61 -12l60 -22q35 -13 54 -13q39 0 46 51l30 -4q9 -30 9 -54q0 -44 -26.5 -68.5t-70.5 -24.5q-36 0 -75 16zM480 806h-319v81h319v-81z" />
    <glyph glyph-name="otildemacron" unicode="&#x22d;" horiz-adv-x="534" 
d="M504 218q0 -111 -63.5 -169.5t-173.5 -58.5t-173.5 58.5t-63.5 169.5q0 112 63.5 170t173.5 58t173.5 -58t63.5 -170zM197 218q0 -96 14.5 -137.5t55.5 -41.5t55.5 41.5t14.5 137.5t-14.5 137.5t-55.5 41.5t-55.5 -41.5t-14.5 -137.5zM280 497l-58 25q-23 10 -42 10
q-47 0 -49 -59l-29 5q-8 27 -8 48q0 46 29 74t74 28q29 0 57 -12l57 -22q32 -13 50 -13q38 0 43 51l29 -4q8 -32 8 -54q0 -44 -25 -68.5t-66 -24.5q-34 0 -70 16zM414 674h-289v81h289v-81z" />
    <glyph glyph-name="Odotabove" unicode="&#x22e;" horiz-adv-x="646" 
d="M323 40q57 0 83 56t26 198t-26 198t-83 56t-83 -56t-26 -198t26 -198t83 -56zM323 -10q-139 0 -213.5 79.5t-74.5 224.5q0 146 74.5 225t213.5 79t213.5 -79t74.5 -225q0 -145 -74.5 -224.5t-213.5 -79.5zM235 714q0 39 25 59.5t62 20.5q39 0 64 -20.5t25 -59.5
t-25 -59.5t-64 -20.5q-37 0 -62 20.5t-25 59.5z" />
    <glyph glyph-name="odotabove" unicode="&#x22f;" horiz-adv-x="534" 
d="M504 218q0 -111 -63.5 -169.5t-173.5 -58.5t-173.5 58.5t-63.5 169.5q0 112 63.5 170t173.5 58t173.5 -58t63.5 -170zM197 218q0 -96 14.5 -137.5t55.5 -41.5t55.5 41.5t14.5 137.5t-14.5 137.5t-55.5 41.5t-55.5 -41.5t-14.5 -137.5zM181 577q0 39 25 59.5t62 20.5
q39 0 64 -20.5t25 -59.5t-25 -59.5t-64 -20.5q-37 0 -62 20.5t-25 59.5z" />
    <glyph glyph-name="odotabovemacron" unicode="&#x231;" horiz-adv-x="534" 
d="M504 218q0 -111 -63.5 -169.5t-173.5 -58.5t-173.5 58.5t-63.5 169.5q0 112 63.5 170t173.5 58t173.5 -58t63.5 -170zM197 218q0 -96 14.5 -137.5t55.5 -41.5t55.5 41.5t14.5 137.5t-14.5 137.5t-55.5 41.5t-55.5 -41.5t-14.5 -137.5zM181 556q0 39 25 59.5t62 20.5
q39 0 64 -20.5t25 -59.5t-25 -59.5t-64 -20.5q-37 0 -62 20.5t-25 59.5zM414 668h-289v81h289v-81z" />
    <glyph glyph-name="odotabovemacron" unicode="&#xe11e;" horiz-adv-x="534" 
d="M504 218q0 -111 -63.5 -169.5t-173.5 -58.5t-173.5 58.5t-63.5 169.5q0 112 63.5 170t173.5 58t173.5 -58t63.5 -170zM197 218q0 -96 14.5 -137.5t55.5 -41.5t55.5 41.5t14.5 137.5t-14.5 137.5t-55.5 41.5t-55.5 -41.5t-14.5 -137.5zM181 556q0 39 25 59.5t62 20.5
q39 0 64 -20.5t25 -59.5t-25 -59.5t-64 -20.5q-37 0 -62 20.5t-25 59.5zM414 668h-289v81h289v-81z" />
    <glyph glyph-name="Ymacron" unicode="&#x232;" 
d="M224 536l77 -155q14 -28 22 -52t9 -34l1 -10h4q4 30 40 95l81 151l-70 22l5 35h180l7 -30l-46 -29l-161 -301v-167l95 -26l-8 -35h-339l-8 35l95 26v167l-161 301l-47 29l7 30h270l6 -38zM456 654h-319v81h319v-81z" />
    <glyph glyph-name="ymacron" unicode="&#x233;" horiz-adv-x="503" 
d="M225 -56l-183 425l-47 32l7 35h263l6 -38l-64 -15l61 -150q12 -31 19.5 -59t8.5 -40l2 -13h4q6 43 31 113l52 147l-61 17l5 38h173l6 -35l-46 -15l-152 -403q-37 -99 -86.5 -150.5t-128.5 -51.5q-50 0 -74.5 25t-24.5 65q0 35 20 55.5t54 20.5q36 0 53 -20.5t17 -49.5
q0 -26 -21 -47q33 4 62.5 37t43.5 77zM400 507h-289v81h289v-81z" />
    <glyph glyph-name="dotlessj" unicode="&#x237;" horiz-adv-x="282" 
d="M229 446v-496q0 -72 -61 -120.5t-165 -48.5q-123 0 -123 84q0 33 21 52.5t54 19.5t49.5 -21.5t16.5 -51.5q0 -27 -15 -48q63 0 63 111v382l-48 74v11l182 52h26z" />
    <glyph glyph-name="schwa" unicode="&#x259;" horiz-adv-x="462" 
d="M281 208q0 58 -35.5 91t-99.5 33q-53 0 -99 -23l-12 19q61 118 193 118q91 0 147.5 -54.5t56.5 -152.5q0 -119 -65.5 -184t-160.5 -65q-98 0 -144 59t-26 159h245zM201 38q31 0 53 36.5t24 91.5l-121 -8q-3 -26 -3 -52.5t12.5 -47t34.5 -20.5z" />
    <glyph glyph-name="ezh" unicode="&#x292;" horiz-adv-x="491" 
d="M447 422l-176 -257v-4q77 -10 120.5 -55t43.5 -110q0 -53 -23 -91t-62 -58t-81 -28.5t-90 -8.5q-150 0 -150 96q0 29 19.5 49.5t50.5 20.5q30 0 49 -19.5t19 -44.5q0 -38 -28 -55q15 -9 31 -9q51 0 82 32.5t31 91.5q0 62 -44 98t-115 46l-8 30l154 247h-120l-84 -111
l-23 4l9 150h390z" />
    <glyph glyph-name="circumflex" unicode="&#x2c6;" horiz-adv-x="512" 
d="M236 672h40l156 -190h-143l-69 93l-74 -93h-66z" />
    <glyph glyph-name="caron" unicode="&#x2c7;" horiz-adv-x="512" 
d="M276 482h-40l-156 190h143l69 -93l74 93h66z" />
    <glyph glyph-name="breve" unicode="&#x2d8;" horiz-adv-x="452" 
d="M226 579q44 0 71 24t27 61h47q1 -8 1 -23q0 -66 -39.5 -108.5t-106.5 -42.5t-106.5 42.5t-39.5 108.5q0 15 1 23h47q0 -37 27 -61t71 -24z" />
    <glyph glyph-name="dotaccent" unicode="&#x2d9;" horiz-adv-x="336" 
d="M80 577q0 39 25 59.5t62 20.5q39 0 64 -20.5t25 -59.5t-25 -59.5t-64 -20.5q-37 0 -62 20.5t-25 59.5z" />
    <glyph glyph-name="ring" unicode="&#x2da;" horiz-adv-x="399" 
d="M80 596q0 46 33 78t86 32q51 0 85.5 -32t34.5 -78q0 -48 -34.5 -81t-85.5 -33q-55 0 -87 32t-32 82zM136 593q0 -24 16.5 -40.5t46.5 -16.5q26 0 42.5 16.5t16.5 40.5q0 27 -16 44t-43 17q-29 0 -46 -17t-17 -44z" />
    <glyph glyph-name="ogonek" unicode="&#x2db;" horiz-adv-x="408" 
d="M80 -113q0 57 50.5 89.5t137.5 53.5l10 -23q-78 -33 -78 -92q0 -24 12.5 -36t33.5 -12q34 0 66 29l16 -21q-32 -90 -132 -90q-47 0 -81.5 24t-34.5 78z" />
    <glyph glyph-name="tilde" unicode="&#x2dc;" horiz-adv-x="507" 
d="M266 508l-58 25q-23 10 -42 10q-47 0 -49 -59l-29 5q-8 27 -8 48q0 46 29 74t74 28q29 0 57 -12l57 -22q32 -13 50 -13q38 0 43 51l29 -4q8 -32 8 -54q0 -44 -25 -68.5t-66 -24.5q-34 0 -70 16z" />
    <glyph glyph-name="hungarumlaut" unicode="&#x2dd;" horiz-adv-x="522" 
d="M406 565l-117 -85l-29 28l65 128q16 33 40 39t51 -18q53 -47 -10 -92zM226 565l-117 -85l-29 28l65 128q16 33 40 39t51 -18q53 -47 -10 -92z" />
    <glyph glyph-name="uni0312" unicode="&#x312;" horiz-adv-x="343" 
d="M142 591h8q3 16 16 23.5t25 7.5q31 0 48 -19.5t17 -47.5q0 -34 -22.5 -54t-56.5 -20q-45 0 -71 28t-26 72q0 63 50.5 96.5t123.5 35.5l9 -20q-64 -19 -92.5 -41.5t-28.5 -60.5z" />
    <glyph glyph-name="uni0331" unicode="&#x331;" horiz-adv-x="449" 
d="M369 -144h-289v81h289v-81z" />
    <glyph glyph-name="pi" unicode="&#x3c0;" horiz-adv-x="602" 
d="M581 99l11 -20q-24 -41 -54.5 -64.5t-83.5 -23.5q-58 0 -92 28.5t-34 86.5q0 19 6 46t12.5 47t18.5 54.5t17 48.5h-122l-25 -198q-15 -113 -106 -113q-97 0 -97 84q0 34 19.5 56t52.5 22q59 0 71 -51l25 200h-22q-65 0 -90.5 -11.5t-36.5 -51.5l-35 12q-2 185 170 185
h380l10 -7l-32 -127h-99v-137q0 -40 21.5 -61.5t52.5 -21.5q36 0 62 17z" />
    <glyph glyph-name="uni0E3F" unicode="&#xe3f;" horiz-adv-x="673" 
d="M584 441q0 -57 -35.5 -93.5t-97.5 -41.5v-4q162 -16 162 -145q0 -157 -217 -157h-30v-110h-46v110h-268l-7 32l57 23v478l-57 23l7 32h268v109h46v-109h27q81 0 136 -38.5t55 -108.5zM447 162q0 101 -81 111v-222q81 8 81 111zM267 67l24 -16h29v223h-53v-207zM434 434
q0 90 -68 98v-208q35 4 51.5 29.5t16.5 80.5zM267 533v-210h53v210h-53z" />
    <glyph glyph-name="Ddotbelow" unicode="&#x1e0c;" horiz-adv-x="648" 
d="M42 588h235q336 0 336 -285q0 -82 -26 -142.5t-72.5 -94.5t-102 -50t-121.5 -16h-249l-7 32l57 23v478l-57 23zM257 64l24 -16q93 4 127 61.5t34 187.5q0 127 -41.5 183.5t-131.5 56.5h-12v-473zM227 -123q0 39 24.5 59.5t61.5 20.5q39 0 63.5 -20.5t24.5 -59.5
q0 -38 -24.5 -59t-63.5 -21q-37 0 -61.5 21t-24.5 59z" />
    <glyph glyph-name="ddotbelow" unicode="&#x1e0d;" horiz-adv-x="575" 
d="M193 238q0 -80 31 -118t103 -38q10 0 22 2v276q-23 35 -66 35q-41 0 -65.5 -40t-24.5 -117zM361 55l-3 1q-50 -66 -136 -66q-92 0 -142 56.5t-50 156.5q0 121 66.5 182t165.5 61q51 0 87 -17v139l-40 60v11l174 42h26v-590l46 -46v-20l-186 -31zM195 -123q0 39 24.5 59.5
t61.5 20.5q39 0 63.5 -20.5t24.5 -59.5q0 -38 -24.5 -59t-63.5 -21q-37 0 -61.5 21t-24.5 59z" />
    <glyph glyph-name="Dcedilla" unicode="&#x1e10;" horiz-adv-x="648" 
d="M198 -171l18 25q21 -21 53 -21q39 0 39 33q0 16 -8.5 26.5t-19.5 15t-34 11.5l33 81h-237l-7 32l57 23v478l-57 23l7 32h235q336 0 336 -285q0 -77 -23 -135t-64 -92.5t-91 -52.5t-111 -22l-18 -41q42 -4 76 -25.5t34 -63.5q0 -46 -33 -67.5t-88 -21.5q-65 0 -97 47z
M257 64l24 -16q93 4 127 61.5t34 187.5q0 127 -41.5 183.5t-131.5 56.5h-12v-473z" />
    <glyph glyph-name="dcedilla" unicode="&#x1e11;" horiz-adv-x="575" 
d="M166 -171l18 25q21 -21 53 -21q39 0 39 33q0 16 -8.5 26.5t-19.5 15t-34 11.5l29 73q-14 -2 -21 -2q-92 0 -142 56.5t-50 156.5q0 121 66.5 182t165.5 61q51 0 87 -17v139l-40 60v11l174 42h26v-590l46 -46v-20l-186 -31l-8 61l-3 1q-26 -34 -64 -51l-20 -45
q42 -4 76 -25.5t34 -63.5q0 -46 -33 -67.5t-88 -21.5q-65 0 -97 47zM193 238q0 -80 31 -118t103 -38q10 0 22 2v276q-23 35 -66 35q-41 0 -65.5 -40t-24.5 -117z" />
    <glyph glyph-name="Hdotbelow" unicode="&#x1e24;" horiz-adv-x="714" 
d="M407 588h265l7 -32l-57 -23v-478l57 -23l-7 -32h-265l-7 32l57 23v212h-200v-212l57 -23l-7 -32h-265l-7 32l57 23v478l-57 23l7 32h265l7 -32l-57 -23v-210h200v210l-57 23zM272 -123q0 39 24.5 59.5t61.5 20.5q39 0 63.5 -20.5t24.5 -59.5q0 -38 -24.5 -59t-63.5 -21
q-37 0 -61.5 21t-24.5 59z" />
    <glyph glyph-name="hdotbelow" unicode="&#x1e25;" horiz-adv-x="579" 
d="M358 47v200q0 44 -18.5 69t-50.5 25q-34 0 -64 -30v-263l51 -19l-13 -29h-235v28l37 19v521l-40 60v11l174 42h26v-324h4q49 89 150 89q60 0 99.5 -38.5t39.5 -125.5v-234l51 -19l-13 -29h-235v28zM205 -123q0 39 24.5 59.5t61.5 20.5q39 0 63.5 -20.5t24.5 -59.5
q0 -38 -24.5 -59t-63.5 -21q-37 0 -61.5 21t-24.5 59z" />
    <glyph glyph-name="Ldotbelow" unicode="&#x1e36;" horiz-adv-x="525" 
d="M315 556l-58 -23v-460l25 -17h112l105 151l26 -6l-23 -201h-460l-7 32l57 23v478l-57 23l7 32h265zM175 -123q0 39 24.5 59.5t61.5 20.5q39 0 63.5 -20.5t24.5 -59.5q0 -38 -24.5 -59t-63.5 -21q-37 0 -61.5 21t-24.5 59z" />
    <glyph glyph-name="ldotbelow" unicode="&#x1e37;" horiz-adv-x="292" 
d="M225 48l52 -19l-13 -29h-236v28l37 19v521l-40 60v11l174 42h26v-633zM59 -123q0 39 24.5 59.5t61.5 20.5q39 0 63.5 -20.5t24.5 -59.5q0 -38 -24.5 -59t-63.5 -21q-37 0 -61.5 21t-24.5 59z" />
    <glyph glyph-name="uni004C032300AF" unicode="&#x1e38;" horiz-adv-x="525" 
d="M330 643h-295v81h295v-81zM315 556l-58 -23v-460l25 -17h112l105 151l26 -6l-23 -201h-460l-7 32l57 23v478l-57 23l7 32h265zM175 -123q0 39 24.5 59.5t61.5 20.5q39 0 63.5 -20.5t24.5 -59.5q0 -38 -24.5 -59t-63.5 -21q-37 0 -61.5 21t-24.5 59z" />
    <glyph glyph-name="ldotbelowmacron" unicode="&#x1e39;" horiz-adv-x="292" 
d="M225 48l52 -19l-13 -29h-236v28l37 19v521l-40 60v11l174 42h26v-633zM59 -123q0 39 24.5 59.5t61.5 20.5q39 0 63.5 -20.5t24.5 -59.5q0 -38 -24.5 -59t-63.5 -21q-37 0 -61.5 21t-24.5 59zM305 726h-319v81h319v-81z" />
    <glyph glyph-name="Mdotbelow" unicode="&#x1e42;" horiz-adv-x="853" 
d="M550 338l-124 -338h-88l-131 338q-12 32 -23.5 67.5t-16.5 54.5l-5 20h-4q6 -84 6 -142v-283l77 -23l-7 -32h-192l-7 32l57 23v478l-57 23l7 32h244l111 -292q12 -31 20 -60t10 -43l2 -14h4q8 46 32 116l106 293h240l7 -32l-57 -23v-478l57 -23l-7 -32h-265l-7 32l57 23
v283l6 142h-4q-21 -68 -48 -142zM302 -123q0 39 24.5 59.5t61.5 20.5q39 0 63.5 -20.5t24.5 -59.5q0 -38 -24.5 -59t-63.5 -21q-37 0 -61.5 21t-24.5 59z" />
    <glyph glyph-name="mdotbelow" unicode="&#x1e43;" horiz-adv-x="874" 
d="M522 312v-264l52 -19l-13 -29h-228v28l29 17v211q0 84 -63 84q-34 0 -66 -29v-263l52 -19l-13 -29h-236v28l37 16v266l-38 74v11l174 51h23l-3 -89h4q54 89 149 89q104 0 128 -93h4q29 49 65 71t89 22q62 0 103 -35.5t41 -116.5v-246l52 -19l-13 -29h-228v28l29 17v210
q0 85 -63 85q-36 0 -67 -28zM379 -123q0 39 24.5 59.5t61.5 20.5q39 0 63.5 -20.5t24.5 -59.5q0 -38 -24.5 -59t-63.5 -21q-37 0 -61.5 21t-24.5 59z" />
    <glyph glyph-name="Ndotaccent" unicode="&#x1e44;" horiz-adv-x="643" 
d="M164 291v-236l77 -23l-7 -32h-192l-7 32l57 23v478l-57 23l7 32h206l191 -266q20 -27 36 -56t22 -44l6 -16h4q-6 84 -6 159v168l-77 23l7 32h185l7 -32l-57 -23v-533h-93l-247 334q-20 27 -36 56t-22 44l-6 16h-4q6 -84 6 -159zM241 714q0 39 25 59.5t62 20.5
q39 0 64 -20.5t25 -59.5t-25 -59.5t-64 -20.5q-37 0 -62 20.5t-25 59.5z" />
    <glyph glyph-name="ndotaccent" unicode="&#x1e45;" horiz-adv-x="588" 
d="M526 48l52 -19l-13 -29h-236v28l37 20v199q0 47 -19.5 70.5t-50.5 23.5q-33 0 -63 -30v-263l52 -19l-13 -29h-236v28l37 19v263l-38 74v11l172 51h25l-3 -89h4q28 43 64 66t93 23q63 0 99.5 -43.5t36.5 -119.5v-235zM205 577q0 39 25 59.5t62 20.5q39 0 64 -20.5
t25 -59.5t-25 -59.5t-64 -20.5q-37 0 -62 20.5t-25 59.5z" />
    <glyph glyph-name="Ndotbelow" unicode="&#x1e46;" horiz-adv-x="643" 
d="M164 291v-236l77 -23l-7 -32h-192l-7 32l57 23v478l-57 23l7 32h206l191 -266q20 -27 36 -56t22 -44l6 -16h4q-6 84 -6 159v168l-77 23l7 32h185l7 -32l-57 -23v-533h-93l-247 334q-20 27 -36 56t-22 44l-6 16h-4q6 -84 6 -159zM243 -123q0 39 24.5 59.5t61.5 20.5
q39 0 63.5 -20.5t24.5 -59.5q0 -38 -24.5 -59t-63.5 -21q-37 0 -61.5 21t-24.5 59z" />
    <glyph glyph-name="ndotbelow" unicode="&#x1e47;" horiz-adv-x="588" 
d="M526 48l52 -19l-13 -29h-236v28l37 20v199q0 47 -19.5 70.5t-50.5 23.5q-33 0 -63 -30v-263l52 -19l-13 -29h-236v28l37 19v263l-38 74v11l172 51h25l-3 -89h4q28 43 64 66t93 23q63 0 99.5 -43.5t36.5 -119.5v-235zM207 -123q0 39 24.5 59.5t61.5 20.5q39 0 63.5 -20.5
t24.5 -59.5q0 -38 -24.5 -59t-63.5 -21q-37 0 -61.5 21t-24.5 59z" />
    <glyph glyph-name="Rdotbelow" unicode="&#x1e5a;" horiz-adv-x="633" 
d="M257 535v-228h51q89 0 89 116q0 112 -90 112h-50zM581 52l62 -21l-7 -31h-219l-86 208q-11 26 -26.5 37t-47.5 12v-202l57 -23l-7 -32h-265l-7 32l57 23v478l-57 23l7 32h334q50 0 92 -13t73.5 -50t31.5 -93q0 -70 -45.5 -110t-109.5 -48v-6q32 -3 57.5 -21t38.5 -46z
M224 -123q0 39 24.5 59.5t61.5 20.5q39 0 63.5 -20.5t24.5 -59.5q0 -38 -24.5 -59t-63.5 -21q-37 0 -61.5 21t-24.5 59z" />
    <glyph glyph-name="rdotbelow" unicode="&#x1e5b;" horiz-adv-x="449" 
d="M233 51l82 -20l-13 -31h-266v28l37 19v262l-38 74v11l172 52h25l-3 -101h4q14 42 44.5 71.5t78.5 29.5q43 0 68 -24.5t25 -65.5q0 -36 -22 -59t-55 -23q-35 0 -55.5 21t-20.5 55q-27 -12 -63 -53v-246zM92 -123q0 39 24.5 59.5t61.5 20.5q39 0 63.5 -20.5t24.5 -59.5
q0 -38 -24.5 -59t-63.5 -21q-37 0 -61.5 21t-24.5 59z" />
    <glyph glyph-name="Rdotbelowmacron" unicode="&#x1e5c;" horiz-adv-x="633" 
d="M257 535v-228h51q89 0 89 116q0 112 -90 112h-50zM581 52l62 -21l-7 -31h-219l-86 208q-11 26 -26.5 37t-47.5 12v-202l57 -23l-7 -32h-265l-7 32l57 23v478l-57 23l7 32h334q50 0 92 -13t73.5 -50t31.5 -93q0 -70 -45.5 -110t-109.5 -48v-6q32 -3 57.5 -21t38.5 -46z
M224 -123q0 39 24.5 59.5t61.5 20.5q39 0 63.5 -20.5t24.5 -59.5q0 -38 -24.5 -59t-63.5 -21q-37 0 -61.5 21t-24.5 59zM454 654h-319v81h319v-81z" />
    <glyph glyph-name="rdotbelowmacron" unicode="&#x1e5d;" horiz-adv-x="449" 
d="M233 51l82 -20l-13 -31h-266v28l37 19v262l-38 74v11l172 52h25l-3 -101h4q14 42 44.5 71.5t78.5 29.5q43 0 68 -24.5t25 -65.5q0 -36 -22 -59t-55 -23q-35 0 -55.5 21t-20.5 55q-27 -12 -63 -53v-246zM92 -123q0 39 24.5 59.5t61.5 20.5q39 0 63.5 -20.5t24.5 -59.5
q0 -38 -24.5 -59t-63.5 -21q-37 0 -61.5 21t-24.5 59zM374 507h-289v81h289v-81z" />
    <glyph glyph-name="Sdotbelow" unicode="&#x1e62;" horiz-adv-x="499" 
d="M250 40q37 0 57 19t20 53q0 35 -21 58t-73 43l-74 28q-117 44 -117 177q0 87 57.5 133.5t141.5 46.5q72 0 132 -24l51 24l15 -168l-28 -6l-62 69q-50 56 -112 56q-31 0 -50 -18t-19 -48q0 -31 18.5 -51.5t60.5 -36.5l72 -26q78 -28 111.5 -73t33.5 -117q0 -90 -59 -139.5
t-151 -49.5q-86 0 -143 35l-59 -35l-17 192l32 6l60 -79q52 -69 123 -69zM169 -123q0 39 24.5 59.5t61.5 20.5q39 0 63.5 -20.5t24.5 -59.5q0 -38 -24.5 -59t-63.5 -21q-37 0 -61.5 21t-24.5 59z" />
    <glyph glyph-name="sdotbelow" unicode="&#x1e63;" horiz-adv-x="438" 
d="M35 139l29 6q44 -64 76.5 -86.5t76.5 -22.5q66 0 66 46q0 21 -14 34t-46 23l-70 21q-112 33 -112 138q0 74 45 111t120 37q60 0 104 -21l60 20v-133l-27 -5q-61 91 -132 91q-24 0 -37.5 -10.5t-13.5 -28.5q0 -31 39 -44l82 -27q68 -22 97.5 -58t29.5 -94
q0 -146 -191 -146q-60 0 -113 23l-56 -23zM137 -123q0 39 24.5 59.5t61.5 20.5q39 0 63.5 -20.5t24.5 -59.5q0 -38 -24.5 -59t-63.5 -21q-37 0 -61.5 21t-24.5 59z" />
    <glyph glyph-name="Tdotbelow" unicode="&#x1e6c;" horiz-adv-x="559" 
d="M102 35l95 26v475h-79l-87 -110l-21 5v157h539v-157l-21 -5l-87 110h-79v-475l95 -26l-8 -35h-339zM192 -123q0 39 24.5 59.5t61.5 20.5q39 0 63.5 -20.5t24.5 -59.5q0 -38 -24.5 -59t-63.5 -21q-37 0 -61.5 21t-24.5 59z" />
    <glyph glyph-name="tdotbelow" unicode="&#x1e6d;" horiz-adv-x="361" 
d="M5 381v36l183 136h37v-117h123l-7 -55h-114v-221q0 -80 59 -80q33 0 69 21l11 -23q-23 -41 -63.5 -64.5t-88.5 -23.5q-68 0 -107.5 36.5t-39.5 115.5v239h-62zM113 -123q0 39 24.5 59.5t61.5 20.5q39 0 63.5 -20.5t24.5 -59.5q0 -38 -24.5 -59t-63.5 -21q-37 0 -61.5 21
t-24.5 59z" />
    <glyph glyph-name="Wgrave" unicode="&#x1e80;" horiz-adv-x="856" 
d="M522 0l-70 253q-9 32 -15 67t-8 54l-2 20h-4q-8 -68 -26 -140l-63 -254h-148l-134 529l-47 29l7 30h270l6 -38l-59 -14l58 -267q7 -32 11.5 -64.5t5.5 -48.5v-17h4q7 53 26 130l78 319h121l88 -317q9 -33 14.5 -66t6.5 -49l1 -17h4q4 54 22 132l59 260l-69 22l5 35h180
l7 -30l-48 -29l-133 -529h-148zM535 614l-145 57q-37 14 -50.5 41t5.5 57q20 29 52 27.5t56 -33.5l98 -125z" />
    <glyph glyph-name="wgrave" unicode="&#x1e81;" horiz-adv-x="759" 
d="M2 436h264l5 -38l-58 -14l45 -172q7 -26 11.5 -51t5.5 -37l1 -11h4q5 40 21 100l59 223h131l60 -224q7 -26 12 -50.5t7 -36.5l1 -12h4q4 41 21 100l49 168l-62 17l5 38h171l5 -35l-45 -13l-122 -388h-145l-51 187q-6 21 -10.5 46.5t-6.5 40.5l-1 14h-4q-7 -54 -20 -101
l-50 -187h-152l-115 371l-47 30zM445 484l-127 74q-34 20 -38.5 52t23.5 58q27 24 60 14t48 -46l55 -132z" />
    <glyph glyph-name="Wacute" unicode="&#x1e82;" horiz-adv-x="856" 
d="M522 0l-70 253q-9 32 -15 67t-8 54l-2 20h-4q-8 -68 -26 -140l-63 -254h-148l-134 529l-47 29l7 30h270l6 -38l-59 -14l58 -267q7 -32 11.5 -64.5t5.5 -48.5v-17h4q7 53 26 130l78 319h121l88 -317q9 -33 14.5 -66t6.5 -49l1 -17h4q4 54 22 132l59 260l-69 22l5 35h180
l7 -30l-48 -29l-133 -529h-148zM538 680l-145 -57l-16 24l98 125q24 32 56 33.5t52 -27.5q19 -30 5.5 -57t-50.5 -41z" />
    <glyph glyph-name="wacute" unicode="&#x1e83;" horiz-adv-x="759" 
d="M2 436h264l5 -38l-58 -14l45 -172q7 -26 11.5 -51t5.5 -37l1 -11h4q5 40 21 100l59 223h131l60 -224q7 -26 12 -50.5t7 -36.5l1 -12h4q4 41 21 100l49 168l-62 17l5 38h171l5 -35l-45 -13l-122 -388h-145l-51 187q-6 21 -10.5 46.5t-6.5 40.5l-1 14h-4q-7 -54 -20 -101
l-50 -187h-152l-115 371l-47 30zM499 558l-127 -74l-21 20l55 132q15 36 48 46t60 -14q28 -26 23.5 -58t-38.5 -52z" />
    <glyph glyph-name="Wdieresis" unicode="&#x1e84;" horiz-adv-x="856" 
d="M522 0l-70 253q-9 32 -15 67t-8 54l-2 20h-4q-8 -68 -26 -140l-63 -254h-148l-134 529l-47 29l7 30h270l6 -38l-59 -14l58 -267q7 -32 11.5 -64.5t5.5 -48.5v-17h4q7 53 26 130l78 319h121l88 -317q9 -33 14.5 -66t6.5 -49l1 -17h4q4 54 22 132l59 260l-69 22l5 35h180
l7 -30l-48 -29l-133 -529h-148zM291 693q0 35 22 54t55 19q36 0 57.5 -18.5t21.5 -54.5q0 -34 -21.5 -52.5t-57.5 -18.5q-33 0 -55 18.5t-22 52.5zM488 692q0 35 22 54t55 19q36 0 58 -18.5t22 -54.5q0 -34 -22 -52.5t-58 -18.5q-33 0 -55 19t-22 52z" />
    <glyph glyph-name="wdieresis" unicode="&#x1e85;" horiz-adv-x="759" 
d="M2 436h264l5 -38l-58 -14l45 -172q7 -26 11.5 -51t5.5 -37l1 -11h4q5 40 21 100l59 223h131l60 -224q7 -26 12 -50.5t7 -36.5l1 -12h4q4 41 21 100l49 168l-62 17l5 38h171l5 -35l-45 -13l-122 -388h-145l-51 187q-6 21 -10.5 46.5t-6.5 40.5l-1 14h-4q-7 -54 -20 -101
l-50 -187h-152l-115 371l-47 30zM228 566q0 35 22 54t55 19q36 0 57.5 -18.5t21.5 -54.5q0 -34 -21.5 -52.5t-57.5 -18.5q-33 0 -55 18.5t-22 52.5zM425 565q0 35 22 54t55 19q36 0 58 -18.5t22 -54.5q0 -34 -22 -52.5t-58 -18.5q-33 0 -55 19t-22 52z" />
    <glyph glyph-name="Idotbelow" unicode="&#x1eca;" horiz-adv-x="349" 
d="M42 588h265l7 -32l-57 -23v-478l57 -23l-7 -32h-265l-7 32l57 23v478l-57 23zM90 -123q0 39 24.5 59.5t61.5 20.5q39 0 63.5 -20.5t24.5 -59.5q0 -38 -24.5 -59t-63.5 -21q-37 0 -61.5 21t-24.5 59z" />
    <glyph glyph-name="idotbelow" unicode="&#x1ecb;" horiz-adv-x="304" 
d="M59 581q0 40 27 67t66 27q40 0 67 -27t27 -67q0 -39 -27 -66t-67 -27q-39 0 -66 27t-27 66zM233 48l51 -19l-13 -29h-235v28l37 19v263l-38 74v11l172 51h26v-398zM63 -123q0 39 24.5 59.5t61.5 20.5q39 0 63.5 -20.5t24.5 -59.5q0 -38 -24.5 -59t-63.5 -21
q-37 0 -61.5 21t-24.5 59z" />
    <glyph glyph-name="Odotbelow" unicode="&#x1ecc;" horiz-adv-x="646" 
d="M323 40q57 0 83 56t26 198t-26 198t-83 56t-83 -56t-26 -198t26 -198t83 -56zM323 -10q-139 0 -213.5 79.5t-74.5 224.5q0 146 74.5 225t213.5 79t213.5 -79t74.5 -225q0 -145 -74.5 -224.5t-213.5 -79.5zM234 -123q0 39 24.5 59.5t61.5 20.5q39 0 63.5 -20.5t24.5 -59.5
q0 -38 -24.5 -59t-63.5 -21q-37 0 -61.5 21t-24.5 59z" />
    <glyph glyph-name="odotbelow" unicode="&#x1ecd;" horiz-adv-x="534" 
d="M504 218q0 -111 -63.5 -169.5t-173.5 -58.5t-173.5 58.5t-63.5 169.5q0 112 63.5 170t173.5 58t173.5 -58t63.5 -170zM197 218q0 -96 14.5 -137.5t55.5 -41.5t55.5 41.5t14.5 137.5t-14.5 137.5t-55.5 41.5t-55.5 -41.5t-14.5 -137.5zM182 -123q0 39 24.5 59.5t61.5 20.5
q39 0 63.5 -20.5t24.5 -59.5q0 -38 -24.5 -59t-63.5 -21q-37 0 -61.5 21t-24.5 59z" />
    <glyph glyph-name="Udotbelow" unicode="&#x1ee4;" horiz-adv-x="624" 
d="M552 533v-326q0 -101 -61 -159t-170 -58q-113 0 -181 53.5t-68 164.5v325l-57 23l7 32h265l7 -32l-57 -23v-331q0 -139 119 -139q59 0 92 35t33 103v332l-77 23l7 32h191l7 -32zM224 -123q0 39 24.5 59.5t61.5 20.5q39 0 63.5 -20.5t24.5 -59.5q0 -38 -24.5 -59
t-63.5 -21q-37 0 -61.5 21t-24.5 59z" />
    <glyph glyph-name="udotbelow" unicode="&#x1ee5;" horiz-adv-x="558" 
d="M332 310l-38 74v11l172 51h26v-347l46 -52v-21l-189 -31l-13 67h-4q-46 -72 -132 -72q-64 0 -105.5 37.5t-41.5 122.5v160l-38 74v11l172 51h26v-286q0 -79 56 -79q27 0 63 18v211zM189 -123q0 39 24.5 59.5t61.5 20.5q39 0 63.5 -20.5t24.5 -59.5q0 -38 -24.5 -59
t-63.5 -21q-37 0 -61.5 21t-24.5 59z" />
    <glyph glyph-name="Ygrave" unicode="&#x1ef2;" 
d="M224 536l77 -155q14 -28 22 -52t9 -34l1 -10h4q4 30 40 95l81 151l-70 22l5 35h180l7 -30l-46 -29l-161 -301v-167l95 -26l-8 -35h-339l-8 35l95 26v167l-161 301l-47 29l7 30h270l6 -38zM370 614l-145 57q-37 14 -50.5 41t5.5 57q20 29 52 27.5t56 -33.5l98 -125z" />
    <glyph glyph-name="ygrave" unicode="&#x1ef3;" horiz-adv-x="503" 
d="M225 -56l-183 425l-47 32l7 35h263l6 -38l-64 -15l61 -150q12 -31 19.5 -59t8.5 -40l2 -13h4q6 43 31 113l52 147l-61 17l5 38h173l6 -35l-46 -15l-152 -403q-37 -99 -86.5 -150.5t-128.5 -51.5q-50 0 -74.5 25t-24.5 65q0 35 20 55.5t54 20.5q36 0 53 -20.5t17 -49.5
q0 -26 -21 -47q33 4 62.5 37t43.5 77zM311 484l-127 74q-34 20 -38.5 52t23.5 58q27 24 60 14t48 -46l55 -132z" />
    <glyph glyph-name="Ytilde" unicode="&#x1ef8;" 
d="M224 536l77 -155q14 -28 22 -52t9 -34l1 -10h4q4 30 40 95l81 151l-70 22l5 35h180l7 -30l-46 -29l-161 -301v-167l95 -26l-8 -35h-339l-8 35l95 26v167l-161 301l-47 29l7 30h270l6 -38zM314 650l-62 25q-24 10 -44 10q-50 0 -53 -59l-30 5q-9 25 -9 48q0 46 31 74
t79 28q30 0 61 -12l60 -22q35 -13 54 -13q39 0 46 51l30 -4q9 -30 9 -54q0 -44 -26.5 -68.5t-70.5 -24.5q-36 0 -75 16z" />
    <glyph glyph-name="ytilde" unicode="&#x1ef9;" horiz-adv-x="503" 
d="M225 -56l-183 425l-47 32l7 35h263l6 -38l-64 -15l61 -150q12 -31 19.5 -59t8.5 -40l2 -13h4q6 43 31 113l52 147l-61 17l5 38h173l6 -35l-46 -15l-152 -403q-37 -99 -86.5 -150.5t-128.5 -51.5q-50 0 -74.5 25t-24.5 65q0 35 20 55.5t54 20.5q36 0 53 -20.5t17 -49.5
q0 -26 -21 -47q33 4 62.5 37t43.5 77zM269 508l-58 25q-23 10 -42 10q-47 0 -49 -59l-29 5q-8 27 -8 48q0 46 29 74t74 28q28 0 57 -12l57 -22q32 -13 50 -13q38 0 43 51l29 -4q8 -32 8 -54q0 -44 -25 -68.5t-66 -24.5q-34 0 -70 16z" />
    <glyph glyph-name="enspace" unicode="&#x2002;" horiz-adv-x="500" 
 />
    <glyph glyph-name="emspace" unicode="&#x2003;" horiz-adv-x="1000" 
 />
    <glyph glyph-name="threeperemspace" unicode="&#x2004;" horiz-adv-x="333" 
 />
    <glyph glyph-name="fourperemspace" unicode="&#x2005;" horiz-adv-x="250" 
 />
    <glyph glyph-name="sixperemspace" unicode="&#x2006;" horiz-adv-x="167" 
 />
    <glyph glyph-name="figurespace" unicode="&#x2007;" horiz-adv-x="570" 
 />
    <glyph glyph-name="punctuationspace" unicode="&#x2008;" horiz-adv-x="190" 
 />
    <glyph glyph-name="thinspace" unicode="&#x2009;" horiz-adv-x="100" 
 />
    <glyph glyph-name="hairspace" unicode="&#x200a;" horiz-adv-x="50" 
 />
    <glyph glyph-name="zerowidthspace" unicode="&#x200b;" horiz-adv-x="0" 
 />
    <glyph glyph-name="figuredash" unicode="&#x2012;" horiz-adv-x="590" 
d="M40 193v81h510v-81h-510z" />
    <glyph glyph-name="endash" unicode="&#x2013;" horiz-adv-x="500" 
d="M40 193v81h420v-81h-420z" />
    <glyph glyph-name="emdash" unicode="&#x2014;" horiz-adv-x="1000" 
d="M40 193v81h920v-81h-920z" />
    <glyph glyph-name="uni2015" unicode="&#x2015;" horiz-adv-x="1250" 
d="M40 193v81h1170v-81h-1170z" />
    <glyph glyph-name="doublebar" unicode="&#x2016;" horiz-adv-x="245" 
d="M30 -141v842h72v-842h-72zM143 -141v842h72v-842h-72z" />
    <glyph glyph-name="quoteleft" unicode="&#x2018;" horiz-adv-x="261" 
d="M98 469h8q5 19 19 28t27 9q34 0 53 -23t19 -57q0 -40 -25 -64t-62 -24q-49 0 -78 33.5t-29 86.5q0 75 57 125t135 67l9 -35q-62 -24 -97.5 -62t-35.5 -84z" />
    <glyph glyph-name="quoteright" unicode="&#x2019;" horiz-adv-x="261" 
d="M163 519h-8q-5 -19 -19 -28t-27 -9q-34 0 -53 23t-19 57q0 40 25 64t62 24q49 0 78 -33.5t29 -86.5q0 -75 -57 -125t-135 -67l-9 35q62 24 97.5 62t35.5 84z" />
    <glyph glyph-name="quotesinglbase" unicode="&#x201a;" horiz-adv-x="261" 
d="M163 36h-8q-5 -19 -19 -28t-27 -9q-34 0 -53 23t-19 57q0 40 25 64t62 24q49 0 78 -33.5t29 -86.5q0 -75 -57 -125t-135 -67l-9 35q62 24 97.5 62t35.5 84z" />
    <glyph glyph-name="quotedblleft" unicode="&#x201c;" horiz-adv-x="502" 
d="M98 469h8q5 19 19 28t27 9q34 0 53 -23t19 -57q0 -40 -25 -64t-62 -24q-49 0 -78 33.5t-29 86.5q0 75 57 125t135 67l9 -35q-62 -24 -97.5 -62t-35.5 -84zM339 469h8q5 19 19 28t27 9q34 0 53 -23t19 -57q0 -40 -25 -64t-62 -24q-49 0 -78 33.5t-29 86.5q0 75 57 125
t135 67l9 -35q-62 -24 -97.5 -62t-35.5 -84z" />
    <glyph glyph-name="quotedblright" unicode="&#x201d;" horiz-adv-x="502" 
d="M163 519h-8q-5 -19 -19 -28t-27 -9q-34 0 -53 23t-19 57q0 40 25 64t62 24q49 0 78 -33.5t29 -86.5q0 -75 -57 -125t-135 -67l-9 35q62 24 97.5 62t35.5 84zM404 519h-8q-5 -19 -19 -28t-27 -9q-34 0 -53 23t-19 57q0 40 25 64t62 24q49 0 78 -33.5t29 -86.5
q0 -75 -57 -125t-135 -67l-9 35q62 24 97.5 62t35.5 84z" />
    <glyph glyph-name="quotedblbase" unicode="&#x201e;" horiz-adv-x="502" 
d="M163 36h-8q-5 -19 -19 -28t-27 -9q-34 0 -53 23t-19 57q0 40 25 64t62 24q49 0 78 -33.5t29 -86.5q0 -75 -57 -125t-135 -67l-9 35q62 24 97.5 62t35.5 84zM404 36h-8q-5 -19 -19 -28t-27 -9q-34 0 -53 23t-19 57q0 40 25 64t62 24q49 0 78 -33.5t29 -86.5
q0 -75 -57 -125t-135 -67l-9 35q62 24 97.5 62t35.5 84z" />
    <glyph glyph-name="dagger" unicode="&#x2020;" horiz-adv-x="549" 
d="M242 315l-162 -41l-50 66l50 68l162 -39l-41 216l74 50l72 -50l-40 -216l162 39l50 -68l-50 -66l-162 41l40 -401l-73 -87l-72 87z" />
    <glyph glyph-name="daggerdbl" unicode="&#x2021;" horiz-adv-x="549" 
d="M242 146v169l-162 -41l-50 66l50 68l162 -39l-41 216l74 50l72 -50l-40 -216l162 39l50 -68l-50 -66l-162 41v-169l162 41l50 -66l-50 -68l-162 39l40 -216l-72 -50l-74 50l41 216l-162 -39l-50 68l50 66z" />
    <glyph glyph-name="bullet" unicode="&#x2022;" horiz-adv-x="341" 
d="M40 241q0 55 38 93t92 38q55 0 93 -38t38 -93q0 -54 -38 -92t-93 -38q-54 0 -92 38t-38 92z" />
    <glyph glyph-name="ellipsis" unicode="&#x2026;" horiz-adv-x="795" 
d="M45 79q0 36 25.5 62t61.5 26t62 -26t26 -62t-26 -61.5t-62 -25.5t-61.5 25.5t-25.5 61.5zM310 79q0 36 25.5 62t61.5 26t62 -26t26 -62t-26 -61.5t-62 -25.5t-61.5 25.5t-25.5 61.5zM575 79q0 36 25.5 62t61.5 26t62 -26t26 -62t-26 -61.5t-62 -25.5t-61.5 25.5
t-25.5 61.5z" />
    <glyph glyph-name="perthousand" unicode="&#x2030;" horiz-adv-x="1335" 
d="M35 411q0 89 46 138t123 49q166 0 166 -187q0 -89 -43.5 -136.5t-122.5 -47.5t-124 46t-45 138zM174 410q0 -67 15 -98t50 -31q73 0 73 129t-73 129q-33 0 -49 -29t-16 -100zM215 -39l434 667h66l-435 -667h-65zM560 177q0 89 46 138t123 49q166 0 166 -187
q0 -89 -43.5 -136.5t-122.5 -47.5t-124 46t-45 138zM699 176q0 -67 15 -98t50 -31q73 0 73 129t-73 129q-33 0 -49 -29t-16 -100zM965 177q0 89 46 138t123 49q166 0 166 -187q0 -89 -43.5 -136.5t-122.5 -47.5t-124 46t-45 138zM1104 176q0 -67 15 -98t50 -31q73 0 73 129
t-73 129q-33 0 -49 -29t-16 -100z" />
    <glyph glyph-name="tripleprime" unicode="&#x2034;" horiz-adv-x="620" 
d="M135 348h-46l-54 231q0 31 22.5 52.5t54.5 21.5t54.5 -21.5t22.5 -52.5zM333 348h-46l-54 231q0 31 22.5 52.5t54.5 21.5t54.5 -21.5t22.5 -52.5zM531 348h-46l-54 231q0 31 22.5 52.5t54.5 21.5t54.5 -21.5t22.5 -52.5z" />
    <glyph glyph-name="guilsinglleft" unicode="&#x2039;" horiz-adv-x="291" 
d="M185 46l-155 173l155 174l76 -9l-104 -165l104 -164z" />
    <glyph glyph-name="guilsinglright" unicode="&#x203a;" horiz-adv-x="291" 
d="M261 219l-155 -173l-76 9l104 164l-104 165l76 9z" />
    <glyph glyph-name="fraction" unicode="&#x2044;" horiz-adv-x="120" 
d="M-190 -39l434 667h66l-435 -667h-65z" />
    <glyph glyph-name="uni2070" unicode="&#x2070;" horiz-adv-x="405" 
d="M35 411q0 89 46 138t123 49q166 0 166 -187q0 -89 -43.5 -136.5t-122.5 -47.5t-124 46t-45 138zM174 410q0 -67 15 -98t50 -31q73 0 73 129t-73 129q-33 0 -49 -29t-16 -100z" />
    <glyph glyph-name="uni2074" unicode="&#x2074;" horiz-adv-x="406" 
d="M316 357h70v-49h-70v-74h-127v74h-189v32l174 248h142v-231zM189 357v106l4 72h-4q-10 -23 -26 -48l-58 -85q-7 -12 -16.5 -23.5t-15.5 -16.5l-6 -6v-4q14 5 47 5h75z" />
    <glyph glyph-name="uni2075" unicode="&#x2075;" horiz-adv-x="341" 
d="M30 334l45 4q8 -61 63 -61q48 0 48 42q0 31 -27 46t-97 18l23 205h219v-88h-184l-5 -43q105 0 153 -27t48 -92q0 -57 -44 -85t-112 -28q-67 0 -98.5 30t-31.5 79z" />
    <glyph glyph-name="uni2076" unicode="&#x2076;" horiz-adv-x="378" 
d="M162 432q-10 -31 -10 -75q0 -92 47 -92t47 86q0 38 -15 60.5t-45 22.5q-12 0 -24 -2zM175 470q17 4 39 4q59 0 96.5 -31t37.5 -89q0 -59 -41.5 -93t-114.5 -34q-75 0 -118.5 35t-43.5 111q0 98 83.5 159.5t223.5 65.5l6 -27q-70 -20 -109.5 -42.5t-58.5 -58.5z" />
    <glyph glyph-name="uni2077" unicode="&#x2077;" horiz-adv-x="378" 
d="M173 227l-63 23l121 232h-144l-39 -59l-28 6l22 159h313l5 -8z" />
    <glyph glyph-name="uni2078" unicode="&#x2078;" horiz-adv-x="404" 
d="M202 394q-50 0 -50 -67q0 -68 50 -68t50 68q0 67 -50 67zM202 226q-82 0 -127 26.5t-45 73.5q0 72 86 86v6q-72 8 -72 80q0 45 40 72.5t118 27.5t118 -27.5t40 -72.5q0 -72 -72 -80v-6q86 -14 86 -86q0 -47 -45 -73.5t-127 -26.5zM202 565q-44 0 -44 -67q0 -69 44 -69
t44 69q0 67 -44 67z" />
    <glyph glyph-name="uni2079" unicode="&#x2079;" horiz-adv-x="385" 
d="M216 393q10 31 10 75q0 92 -47 92t-47 -86q0 -38 15 -60.5t45 -22.5q12 0 24 2zM203 355q-17 -4 -39 -4q-59 0 -96.5 31t-37.5 89q0 56 42 91.5t114 35.5q75 0 118.5 -35t43.5 -111q0 -100 -83 -161t-224 -64l-6 27q70 20 109.5 42.5t58.5 58.5z" />
    <glyph glyph-name="uni207A" unicode="&#x207a;" horiz-adv-x="473" 
d="M50 458h146v143h79v-143h148v-72h-148v-157h-79v157h-146v72z" />
    <glyph glyph-name="uni207B" unicode="&#x207b;" horiz-adv-x="467" 
d="M420 384h-373v75h373v-75z" />
    <glyph glyph-name="uni207C" unicode="&#x207c;" horiz-adv-x="473" 
d="M423 318h-373v75h373v-75zM423 462h-373v75h373v-75z" />
    <glyph glyph-name="uni207D" unicode="&#x207d;" horiz-adv-x="227" 
d="M113 410q0 -50 14 -96t27.5 -71.5t42.5 -70.5h-89q-24 37 -36.5 60t-27 73t-14.5 105q0 56 14.5 107.5t27 74t36.5 60.5h89q-28 -46 -42 -72t-28 -73t-14 -97z" />
    <glyph glyph-name="uni207E" unicode="&#x207e;" horiz-adv-x="227" 
d="M114 410q0 50 -14 97t-28 73t-42 72h89q24 -38 36.5 -60.5t27 -74t14.5 -107.5q0 -55 -14.5 -105t-27 -73t-36.5 -60h-89q29 45 42.5 70.5t27.5 71.5t14 96z" />
    <glyph glyph-name="n.superior" unicode="&#x207f;" horiz-adv-x="472" 
d="M405 315l31 -14l-9 -20h-181v20l23 14v128q0 71 -45 71q-21 0 -37 -18v-181l31 -14l-8 -20h-182v20l24 14v179l-24 58v8l138 38h20l-2 -65h3q35 65 113 65q105 0 105 -114v-169z" />
    <glyph glyph-name="uni2080" unicode="&#x2080;" horiz-adv-x="405" 
d="M35 177q0 89 46 138t123 49q166 0 166 -187q0 -89 -43.5 -136.5t-122.5 -47.5t-124 46t-45 138zM174 176q0 -67 15 -98t50 -31q73 0 73 129t-73 129q-33 0 -49 -29t-16 -100z" />
    <glyph glyph-name="uni2081" unicode="&#x2081;" horiz-adv-x="352" 
d="M253 343v-290l89 -21l-10 -32h-287l-10 32l91 21v200h-93l-8 29l205 82z" />
    <glyph glyph-name="uni2082" unicode="&#x2082;" horiz-adv-x="369" 
d="M131 86h198v-86h-288l-16 68q168 60 168 155q0 65 -55 65q-49 0 -54 -55q-1 -8 1 -24l-35 -7q-10 27 -10 50q-1 49 35 80.5t106 31.5q63 0 99.5 -32.5t36.5 -92.5q0 -110 -186 -153z" />
    <glyph glyph-name="uni2083" unicode="&#x2083;" horiz-adv-x="363" 
d="M30 100l45 4q4 -61 63 -61t59 52q0 33 -21.5 48.5t-73.5 15.5l-5 30q81 9 81 64q0 45 -45 45q-20 0 -31 -11t-11 -29q0 -8 2 -18l-33 -9q-13 14 -13 38q0 39 31 67t100 28q62 0 97 -24t35 -70q0 -72 -101 -83v-4q114 -5 114 -92q0 -100 -163 -100q-130 0 -130 109z" />
    <glyph glyph-name="uni2084" unicode="&#x2084;" horiz-adv-x="406" 
d="M316 123h70v-49h-70v-74h-127v74h-189v32l174 248h142v-231zM189 123v106l4 72h-4q-10 -23 -26 -48l-58 -85q-7 -12 -16.5 -23.5t-15.5 -16.5l-6 -6v-4q14 5 47 5h75z" />
    <glyph glyph-name="uni2085" unicode="&#x2085;" horiz-adv-x="341" 
d="M30 100l45 4q8 -61 63 -61q48 0 48 42q0 31 -27 46t-97 18l23 205h219v-88h-184l-5 -43q105 0 153 -27t48 -92q0 -57 -44 -85t-112 -28q-67 0 -98.5 30t-31.5 79z" />
    <glyph glyph-name="uni2086" unicode="&#x2086;" horiz-adv-x="378" 
d="M162 198q-10 -31 -10 -75q0 -92 47 -92t47 86q0 38 -15 60.5t-45 22.5q-12 0 -24 -2zM175 236q17 4 39 4q59 0 96.5 -31t37.5 -89q0 -59 -41.5 -93t-114.5 -34q-75 0 -118.5 35t-43.5 111q0 98 83.5 159.5t223.5 65.5l6 -27q-70 -20 -109.5 -42.5t-58.5 -58.5z" />
    <glyph glyph-name="uni2087" unicode="&#x2087;" horiz-adv-x="378" 
d="M173 -7l-63 23l121 232h-144l-39 -59l-28 6l22 159h313l5 -8z" />
    <glyph glyph-name="uni2088" unicode="&#x2088;" horiz-adv-x="404" 
d="M202 160q-50 0 -50 -67q0 -68 50 -68t50 68q0 67 -50 67zM202 -8q-82 0 -127 26.5t-45 73.5q0 72 86 86v6q-72 8 -72 80q0 45 40 72.5t118 27.5t118 -27.5t40 -72.5q0 -72 -72 -80v-6q86 -14 86 -86q0 -47 -45 -73.5t-127 -26.5zM202 331q-44 0 -44 -67q0 -69 44 -69
t44 69q0 67 -44 67z" />
    <glyph glyph-name="uni2089" unicode="&#x2089;" horiz-adv-x="385" 
d="M216 159q10 31 10 75q0 92 -47 92t-47 -86q0 -38 15 -60.5t45 -22.5q12 0 24 2zM203 121q-17 -4 -39 -4q-59 0 -96.5 31t-37.5 89q0 56 42 91.5t114 35.5q75 0 118.5 -35t43.5 -111q0 -100 -83 -161t-224 -64l-6 27q70 20 109.5 42.5t58.5 58.5z" />
    <glyph glyph-name="uni208A" unicode="&#x208a;" horiz-adv-x="473" 
d="M50 224h146v143h79v-143h148v-72h-148v-157h-79v157h-146v72z" />
    <glyph glyph-name="uni208B" unicode="&#x208b;" horiz-adv-x="467" 
d="M420 150h-373v75h373v-75z" />
    <glyph glyph-name="uni208C" unicode="&#x208c;" horiz-adv-x="473" 
d="M423 84h-373v75h373v-75zM423 228h-373v75h373v-75z" />
    <glyph glyph-name="uni208D" unicode="&#x208d;" horiz-adv-x="227" 
d="M113 176q0 -50 14 -96t27.5 -71.5t42.5 -70.5h-89q-24 37 -36.5 60t-27 73t-14.5 105q0 56 14.5 107.5t27 74t36.5 60.5h89q-28 -46 -42 -72t-28 -73t-14 -97z" />
    <glyph glyph-name="uni208E" unicode="&#x208e;" horiz-adv-x="227" 
d="M114 176q0 50 -14 97t-28 73t-42 72h89q24 -38 36.5 -60.5t27 -74t14.5 -107.5q0 -55 -14.5 -105t-27 -73t-36.5 -60h-89q29 45 42.5 70.5t27.5 71.5t14 96z" />
    <glyph glyph-name="uni20A1" unicode="&#x20a1;" horiz-adv-x="562" 
d="M312 -110l19 102q-3 0 -8.5 -0.5t-8.5 -0.5q-29 0 -50 4l-20 -105h-42l22 113q-86 25 -130 101.5t-44 195.5q0 136 80 217t208 81h1l19 99h42l-20 -101q38 -5 65 -15l23 116h42l-27 -139q33 -27 33 -72q0 -31 -17 -50t-44 -21l-63 -330q55 3 111 34l19 -26
q-51 -80 -148 -97l-20 -106h-42zM286 109q28 -19 64 -23l65 336q-36 16 -36 57q0 45 35 60q-14 11 -42 12zM216 306q0 -106 35 -160l78 401q-113 -28 -113 -241z" />
    <glyph glyph-name="uni20A2" unicode="&#x20a2;" horiz-adv-x="625" 
d="M338 598q85 0 131.5 -29.5t46.5 -82.5q0 -32 -19 -51.5t-48 -19.5q-30 0 -50 17.5t-20 46.5q0 45 35 60q-15 12 -52 12q-68 0 -107 -59.5t-39 -185.5q0 -169 82 -208v208l99 43h18l-2 -75h2q26 75 81 75q32 0 50.5 -18t18.5 -49q0 -27 -17.5 -43.5t-43.5 -16.5
q-52 0 -52 46q-4 -3 -9.5 -8.5t-13.5 -15t-14 -15.5v-143q38 5 88 33l19 -26q-65 -102 -208 -102q-130 0 -197 81t-67 228q0 136 80 217t208 81z" />
    <glyph glyph-name="franc" unicode="&#x20a3;" horiz-adv-x="867" 
d="M621 51l82 -20l-13 -31h-266v28l37 19v252h-194v-234l104 -30l-8 -35h-311l-7 32l57 23v478l-57 23l7 32h451v-157l-21 -5l-74 106h-141v-177h173l155 64h25l-3 -101h4q14 42 44.5 71.5t78.5 29.5q43 0 68 -24.5t25 -65.5q0 -36 -23 -59t-54 -23q-36 0 -57.5 21t-18.5 55
q-27 -12 -63 -53v-219z" />
    <glyph glyph-name="lira" unicode="&#x20a4;" horiz-adv-x="645" 
d="M91 344v47h94q16 207 244 207q69 0 109 -24.5t40 -73.5q0 -31 -18.5 -50.5t-47.5 -19.5q-27 0 -45 17t-18 43q0 39 29 54q-14 10 -44 10q-58 0 -65 -76l-9 -87h150v-47h-155l-6 -63h142v-47h-147l-2 -26q-4 -37 -15 -70q92 -24 138 -24q50 0 68.5 13t22.5 56l26 7
q13 -24 13 -63q0 -66 -42.5 -101t-105.5 -35q-86 0 -169 62q-57 -62 -158 -62q-53 0 -81.5 25.5t-28.5 72.5q0 45 29.5 69t81.5 24q23 0 63 -7v59h-112v47h112v63h-93zM119 40q59 0 64 79q-32 15 -64 15q-51 0 -51 -46q0 -48 51 -48z" />
    <glyph glyph-name="uni20A6" unicode="&#x20a6;" horiz-adv-x="759" 
d="M65 330v47h77v156l-57 23l7 32h206l151 -211h102v156l-77 23l7 32h185l7 -32l-57 -23v-156h77v-47h-77v-73h78v-47h-78v-210h-93l-156 210h-153v-155l77 -23l-7 -32h-192l-7 32l57 23v155h-76v47h76v73h-77zM214 291v-34h119l-57 77q-20 27 -36 56t-22 44l-6 16h-4
q6 -84 6 -159zM557 206q-4 60 -6 124h-68l6 -8q20 -27 36 -56t22 -44l6 -16h4z" />
    <glyph glyph-name="peseta" unicode="&#x20a7;" horiz-adv-x="1396" 
d="M629 381h-66q-9 -88 -78.5 -130t-164.5 -42h-53v-144l104 -30l-8 -35h-311l-7 32l57 23v478l-57 23l7 32h267q94 0 161.5 -36.5t80.5 -115.5h65l124 117h37v-117h123l-7 -55h-114v-230q0 -89 74 -89q61 0 84 78h41q14 -44 55 -71t86 -27q72 0 72 41q0 21 -14 33.5
t-46 22.5l-70 21q-112 33 -112 138q0 74 45 111t120 37q60 0 104 -21l60 20v-133l-27 -5q-61 91 -132 91q-24 0 -37.5 -10.5t-13.5 -28.5q0 -31 39 -44l82 -27q68 -22 97.5 -57.5t29.5 -93.5q0 -146 -191 -146q-111 0 -170 64q-43 -64 -162 -64q-174 0 -174 158v232z
M267 535v-273h31q54 0 76.5 31.5t22.5 110.5q0 67 -26.5 99t-71.5 32h-32z" />
    <glyph glyph-name="uni20A8" unicode="&#x20a8;" horiz-adv-x="1069" 
d="M267 535v-228h51q89 0 89 116q0 112 -90 112h-50zM324 32l-7 -32h-265l-7 32l57 23v478l-57 23l7 32h334q50 0 92 -13t73.5 -50t31.5 -93q0 -70 -45.5 -110t-109.5 -48v-6q65 -11 151 -91q75 -69 124.5 -100.5t96.5 -31.5q64 0 64 38q0 22 -13.5 34t-46.5 22l-70 21
q-112 33 -112 138q0 74 45 111t120 37q60 0 104 -21l60 20v-133l-27 -5q-61 91 -132 91q-24 0 -37.5 -10.5t-13.5 -28.5q0 -31 39 -44l82 -27q68 -22 97.5 -57.5t29.5 -93.5q0 -76 -53 -111t-167 -35q-119 0 -202 31.5t-146 103.5l-78 90q-34 39 -76 41v-202z" />
    <glyph glyph-name="uni20A9" unicode="&#x20a9;" horiz-adv-x="926" 
d="M557 0l-70 253q-9 32 -15 67t-8 54l-2 20h-4q-8 -68 -26 -140l-63 -254h-148l-73 289h-98v47h86l-16 63h-70v47h58l-21 83l-47 29l7 30h270l6 -38l-59 -14l19 -90h129l35 142h121l39 -142h136l20 85l-69 22l5 35h180l7 -30l-48 -29l-21 -83h59v-47h-71l-16 -63h87v-47
h-99l-72 -289h-148zM620 399l18 -63h80l15 63h-113zM293 399l14 -63h78l16 63h-108zM343 139q7 53 26 130l5 20h-57l5 -20q7 -32 11.5 -64.5t4.5 -48.5l1 -17h4zM682 139q4 54 22 132l4 18h-57l5 -18q9 -33 14.5 -66t6.5 -49l1 -17h4z" />
    <glyph glyph-name="uni20AA" unicode="&#x20aa;" horiz-adv-x="857" 
d="M531 128h-76v335q0 34 -14 47t-51 13h-128v-523h-211l-6 31l56 24v478l-56 24l6 31h360q63 0 91.5 -28t28.5 -83v-349zM589 588h216l7 -31l-62 -25v-363q0 -81 -40.5 -125t-134.5 -44h-255v451h77v-386h132q28 0 44 15.5t16 41.5v466z" />
    <glyph glyph-name="Euro" unicode="&#x20ac;" horiz-adv-x="636" 
d="M417 598q84 0 133.5 -34t49.5 -88q0 -32 -19 -51.5t-48 -19.5q-30 0 -50 17.5t-20 47.5q0 44 35 59q-29 19 -75 19q-103 0 -121 -171h172v-47h-175q-1 -11 -1 -35q0 -26 1 -38h176v-47h-171q22 -138 139 -138q76 0 142 50l21 -33q-67 -98 -213 -98q-227 0 -263 219h-79
v47h74q-1 13 -1 40q0 22 1 33h-75v47h80q20 110 95 165.5t192 55.5z" />
    <glyph glyph-name="uni20AE" unicode="&#x20ae;" horiz-adv-x="619" 
d="M124 269v52l103 28v187h-79l-87 -110l-21 5v157h539v-157l-21 -5l-87 110h-79v-143l101 28v-52l-101 -28v-70l102 28v-52l-102 -28v-158l95 -26l-8 -35h-339l-8 35l95 26v113l-102 -27v52l102 27v71z" />
    <glyph glyph-name="uni20B1" unicode="&#x20b1;" horiz-adv-x="716" 
d="M55 355v47h78v131l-57 23l7 32h267q48 0 89.5 -9.5t77.5 -30t57 -57.5t21 -87v-2h81v-47h-87q-12 -51 -50 -85t-85 -47.5t-103 -13.5h-53v-144l104 -30l-8 -35h-311l-7 32l57 23v300h-78zM298 535v-133h130v2q0 67 -26.5 99t-71.5 32h-32zM329 262q45 0 67.5 21t28.5 72
h-127v-93h31z" />
    <glyph glyph-name="afii61289" unicode="&#x2113;" horiz-adv-x="483" 
d="M10 307q43 10 94 28l36 178q20 99 69.5 136.5t128.5 37.5q135 0 135 -116q0 -129 -202 -224l-55 -276q102 0 171 56l24 -22q-36 -55 -95 -84.5t-131 -29.5q-150 0 -117 162l26 131q-48 -12 -72 -17zM304 510l-19 -93q118 74 118 155q0 47 -41 47q-23 0 -35 -26t-23 -83z
" />
    <glyph glyph-name="afii61352" unicode="&#x2116;" horiz-adv-x="1120" 
d="M566 507v-507h-93l-247 334q-20 27 -36 56t-22 44l-6 16h-4q6 -84 6 -159v-236l79 -23l-8 -32h-193l-7 32l56 23v478l-56 23l7 32h206l191 -266q20 -27 36 -56t22 -44l6 -16h4q-6 84 -6 159v128q0 67 33 101t88 34q48 0 74 -23.5t26 -66.5q0 -32 -19.5 -51.5t-50.5 -19.5
q-27 0 -45 16t-18 43q0 28 16 39v4q-39 -3 -39 -62zM707 0l-10 58h340l-10 -58h-320zM867 450q78 0 125.5 -42.5t47.5 -126.5q0 -85 -48 -126t-131 -41q-174 0 -174 167q0 82 49 125.5t131 43.5zM864 153q48 0 48 128q0 129 -49 129q-46 0 -46 -129q0 -128 47 -128z" />
    <glyph glyph-name="published" unicode="&#x2117;" horiz-adv-x="685" 
d="M36 294q0 132 89 219.5t217 87.5t217.5 -87.5t89.5 -219.5t-89.5 -219t-217.5 -87t-217 87t-89 219zM68 294q0 -121 80 -200t196 -79q115 0 195 79t80 200q0 120 -80 199.5t-195 79.5t-195.5 -79.5t-80.5 -199.5zM350 247h-25v-76l40 -15l-4 -21h-174l-4 21l37 15v255
l-37 15l4 21h159q30 0 49 -1t44.5 -7t40 -17t25.5 -31.5t11 -50.5q0 -34 -12.5 -56.5t-37.5 -33.5t-51.5 -14.5t-64.5 -3.5zM325 429v-151h20q31 0 45 16.5t14 60.5q0 74 -59 74h-20z" />
    <glyph glyph-name="servicemark" unicode="&#x2120;" horiz-adv-x="747" 
d="M580 588h143l4 -22l-31 -11v-223l31 -11l-4 -22h-153l-3 22l28 11v175l-85 -208h-63l-85 208v-175l39 -11l-4 -22h-106l-3 22l28 11v223l-28 11l3 22h140l75 -196zM20 399l17 5q52 -77 110 -77q35 0 35 25q0 12 -9 18.5t-33 15.5q-5 2 -8 3l-48 19q-59 23 -59 88
q0 47 31.5 72t86.5 25q31 0 56 -11l40 10v-86l-14 -4q-34 35 -52 47t-39 12q-28 0 -28 -19q0 -22 38 -35l57 -21q63 -24 63 -90q0 -49 -32 -74.5t-91 -25.5q-41 0 -74 15l-38 -15z" />
    <glyph glyph-name="trademark" unicode="&#x2122;" horiz-adv-x="807" 
d="M65 322l47 13v215h-39l-33 -55l-20 3v90h286v-90l-21 -3l-32 55h-39v-215l46 -13l-3 -23h-188zM620 588h143l4 -22l-31 -11v-223l31 -11l-4 -22h-153l-3 22l28 11v175l-85 -208h-63l-85 208v-175l39 -11l-4 -22h-106l-3 22l28 11v223l-28 11l3 22h140l75 -196z" />
    <glyph glyph-name="ohm" unicode="&#x2126;" horiz-adv-x="758" 
d="M379 542q-130 0 -130 -206q0 -34 3 -65.5t6 -53.5t11.5 -47.5l12.5 -37.5t16 -33.5t15 -27t16.5 -25.5t14.5 -21l-9 -25h-288l-22 199l31 3l50 -71h135v4q-39 18 -65.5 34.5t-50.5 41.5t-36 60t-12 80q0 104 84.5 175.5t217.5 71.5t217.5 -71.5t84.5 -175.5
q0 -45 -12 -80t-36 -60t-50.5 -41.5t-65.5 -34.5v-4h135l50 71l31 -3l-22 -199h-288l-9 25q1 1 14.5 21t16.5 25.5t15 27t16 33.5l12.5 37.5t11.5 47.5t6 53.5t3 65.5q0 206 -130 206z" />
    <glyph glyph-name="estimated" unicode="&#x212e;" horiz-adv-x="647" 
d="M323 598q71 0 126 -25.5t87.5 -68.5t49 -96t16.5 -113v-26h-431v-168q59 -57 152 -57q130 0 184 102h66q-30 -71 -93 -113t-157 -42q-93 0 -157.5 45t-92.5 111.5t-28 147.5t28 147.5t92.5 111t157.5 44.5zM323 546q-95 0 -152 -57v-169h305v169q-57 57 -153 57z" />
    <glyph glyph-name="uni2153" unicode="&#x2153;" horiz-adv-x="885" 
d="M253 577v-290l89 -21l-10 -32h-287l-10 32l91 21v200h-93l-8 29l205 82zM212 -39l434 667h66l-435 -667h-65zM552 100l45 4q4 -61 63 -61t59 52q0 33 -21.5 48.5t-73.5 15.5l-5 30q81 9 81 64q0 45 -45 45q-20 0 -31 -11t-11 -29q0 -8 2 -18l-33 -9q-13 14 -13 38
q0 39 31 67t100 28q62 0 97 -24t35 -70q0 -72 -101 -83v-4q114 -5 114 -92q0 -100 -163 -100q-130 0 -130 109z" />
    <glyph glyph-name="uni2154" unicode="&#x2154;" horiz-adv-x="852" 
d="M136 320h193v-86h-288l-16 68q168 60 168 155q0 65 -55 65q-49 0 -54 -55q-1 -8 1 -24l-35 -7q-10 27 -10 50q-1 49 35 80.5t106 31.5q63 0 99.5 -32.5t36.5 -92.5q0 -35 -17 -62t-47.5 -44t-56.5 -26t-60 -17v-4zM179 -39l434 667h66l-435 -667h-65zM519 100l45 4
q4 -61 63 -61t59 52q0 33 -21.5 48.5t-73.5 15.5l-5 30q81 9 81 64q0 45 -45 45q-20 0 -31 -11t-11 -29q0 -8 2 -18l-33 -9q-13 14 -13 38q0 39 31 67t100 28q62 0 97 -24t35 -70q0 -72 -101 -83v-4q114 -5 114 -92q0 -100 -163 -100q-130 0 -130 109z" />
    <glyph glyph-name="uni215B" unicode="&#x215b;" horiz-adv-x="926" 
d="M253 577v-290l89 -21l-10 -32h-287l-10 32l91 21v200h-93l-8 29l205 82zM212 -39l434 667h66l-435 -667h-65zM724 160q-50 0 -50 -67q0 -68 50 -68t50 68q0 67 -50 67zM724 -8q-82 0 -127 26.5t-45 73.5q0 72 86 86v6q-72 8 -72 80q0 45 40 72.5t118 27.5t118 -27.5
t40 -72.5q0 -72 -72 -80v-6q86 -14 86 -86q0 -47 -45 -73.5t-127 -26.5zM724 331q-44 0 -44 -67q0 -69 44 -69t44 69q0 67 -44 67z" />
    <glyph glyph-name="uni215C" unicode="&#x215c;" horiz-adv-x="887" 
d="M30 334l45 4q4 -61 63 -61t59 52q0 33 -21.5 48.5t-73.5 15.5l-5 30q81 9 81 64q0 45 -45 45q-20 0 -31 -11t-11 -29q0 -8 2 -18l-33 -9q-13 14 -13 38q0 39 31 67t100 28q62 0 97 -24t35 -70q0 -72 -101 -83v-4q114 -5 114 -92q0 -100 -163 -100q-130 0 -130 109z
M173 -39l434 667h66l-435 -667h-65zM685 160q-50 0 -50 -67q0 -68 50 -68t50 68q0 67 -50 67zM685 -8q-82 0 -127 26.5t-45 73.5q0 72 86 86v6q-72 8 -72 80q0 45 40 72.5t118 27.5t118 -27.5t40 -72.5q0 -72 -72 -80v-6q86 -14 86 -86q0 -47 -45 -73.5t-127 -26.5zM685 331
q-44 0 -44 -67q0 -69 44 -69t44 69q0 67 -44 67z" />
    <glyph glyph-name="uni215D" unicode="&#x215d;" horiz-adv-x="865" 
d="M30 334l45 4q8 -61 63 -61q48 0 48 42q0 31 -27 46t-97 18l23 205h219v-88h-184l-5 -43q105 0 153 -27t48 -92q0 -57 -44 -85t-112 -28q-67 0 -98.5 30t-31.5 79zM151 -39l434 667h66l-435 -667h-65zM663 160q-50 0 -50 -67q0 -68 50 -68t50 68q0 67 -50 67zM663 -8
q-82 0 -127 26.5t-45 73.5q0 72 86 86v6q-72 8 -72 80q0 45 40 72.5t118 27.5t118 -27.5t40 -72.5q0 -72 -72 -80v-6q86 -14 86 -86q0 -47 -45 -73.5t-127 -26.5zM663 331q-44 0 -44 -67q0 -69 44 -69t44 69q0 67 -44 67z" />
    <glyph glyph-name="uni215E" unicode="&#x215e;" horiz-adv-x="832" 
d="M173 227l-63 23l121 232h-144l-39 -59l-28 6l22 159h313l5 -8zM118 -39l434 667h66l-435 -667h-65zM630 160q-50 0 -50 -67q0 -68 50 -68t50 68q0 67 -50 67zM630 -8q-82 0 -127 26.5t-45 73.5q0 72 86 86v6q-72 8 -72 80q0 45 40 72.5t118 27.5t118 -27.5t40 -72.5
q0 -72 -72 -80v-6q86 -14 86 -86q0 -47 -45 -73.5t-127 -26.5zM630 331q-44 0 -44 -67q0 -69 44 -69t44 69q0 67 -44 67z" />
    <glyph glyph-name="arrowleft" unicode="&#x2190;" horiz-adv-x="688" 
d="M307 183l115 -145v-25l-72 -27l-300 283v50l300 283l72 -27v-25l-115 -145q-16 -20 -33 -37t-26 -24l-9 -6v-4q19 5 68 5h341v-90h-341q-22 0 -39 1.5t-23 2.5l-6 1v-4q32 -21 68 -67z" />
    <glyph glyph-name="arrowup" unicode="&#x2191;" horiz-adv-x="696" 
d="M237 341l-145 -115h-25l-27 72l283 300h50l283 -300l-27 -72h-25l-145 115q-20 16 -37 33t-24 26l-6 9h-4q5 -19 5 -68v-341h-90v341q0 22 1.5 39t2.5 23l1 6h-4q-21 -32 -67 -68z" />
    <glyph glyph-name="arrowright" unicode="&#x2192;" horiz-adv-x="688" 
d="M266 38l115 145q16 20 33 37t26 24l9 6v4q-19 -5 -68 -5h-341v90h341q22 0 39 -1.5t23 -2.5l6 -1v4q-32 21 -68 67l-115 145v25l72 27l300 -283v-50l-300 -283l-72 27v25z" />
    <glyph glyph-name="arrowdown" unicode="&#x2193;" horiz-adv-x="696" 
d="M92 363l145 -115q20 -16 37 -33t24 -26l6 -9h4q-5 19 -5 68v341h90v-341q0 -22 -1.5 -39t-2.5 -23l-1 -6h4q21 32 67 68l145 115h25l27 -72l-283 -300h-50l-283 300l27 72h25z" />
    <glyph glyph-name="uni2196" unicode="&#x2196;" horiz-adv-x="693" 
d="M211 276l-21 -184l-18 -18l-70 32l-12 412l36 36l412 -12l32 -70l-18 -18l-184 -21q-29 -3 -50.5 -3t-33.5 2l-11 2l-3 -3q17 -10 52 -45l281 -281l-64 -64l-281 281q-45 45 -45 51l-2 -2q7 -37 0 -95z" />
    <glyph glyph-name="uni2197" unicode="&#x2197;" horiz-adv-x="693" 
d="M503 92l-21 184q-3 26 -3 49.5t1 34.5l2 11l-2 3q-10 -17 -45 -52l-281 -281l-64 64l281 281q16 16 29 27t18 15l5 3l-3 3q-4 -1 -11.5 -2t-33 -2t-50.5 3l-184 21l-18 18l32 70l412 12l36 -36l-12 -412l-70 -32z" />
    <glyph glyph-name="uni2198" unicode="&#x2198;" horiz-adv-x="693" 
d="M482 319l21 184l18 18l70 -32l12 -412l-36 -36l-412 12l-32 70l18 18l184 21q29 3 50.5 3t32.5 -2l12 -2l3 3q-17 10 -52 45l-281 281l64 64l281 -281q10 -10 18 -18.5t12.5 -14.5t8 -10t4.5 -6l2 -3l2 3q-7 37 0 95z" />
    <glyph glyph-name="uni2199" unicode="&#x2199;" horiz-adv-x="693" 
d="M190 503l21 -184q3 -26 3 -49.5t-2 -34.5l-1 -11l2 -3q10 17 45 52l281 281l64 -64l-281 -281q-16 -16 -29 -27t-18 -14l-5 -4l3 -3q4 1 11.5 2t33 2t50.5 -3l184 -21l18 -18l-32 -70l-412 -12l-36 36l12 412l70 32z" />
    <glyph glyph-name="partialdiff" unicode="&#x2202;" horiz-adv-x="539" 
d="M255 446q61 0 104 -35q-3 80 -40 130.5t-110 50.5q-82 0 -134 -49l-19 22q14 57 71 89t131 32q60 0 103.5 -19t78 -63.5t52 -125.5t17.5 -198q0 -158 -64 -223.5t-179 -65.5q-236 0 -236 226q0 111 63.5 170t161.5 59zM267 37q77 0 77 179q0 180 -78 180q-74 0 -74 -180
q0 -88 16.5 -133.5t58.5 -45.5z" />
    <glyph glyph-name="increment" unicode="&#x2206;" horiz-adv-x="594" 
d="M115 59h261l-101 281q-11 31 -19.5 64t-11.5 50l-3 17h-4q-12 -60 -34 -131zM549 0h-502l-17 21l186 567h138l210 -567z" />
    <glyph glyph-name="product" unicode="&#x220f;" horiz-adv-x="724" 
d="M462 533h-205v-578l62 -23l-8 -32h-269l-7 32l57 23v578l-57 23l7 32h639l8 -32l-62 -23v-578l62 -23l-8 -32h-269l-7 32l57 23v578z" />
    <glyph glyph-name="summation" unicode="&#x2211;" horiz-adv-x="531" 
d="M405 294v-11l-231 -257h233l78 110l26 -6l-20 -230h-471v45l239 278l-238 325v40h461v-157l-21 -5l-91 106h-139z" />
    <glyph glyph-name="minus" unicode="&#x2212;" horiz-adv-x="496" 
d="M441 206h-386v77h386v-77z" />
    <glyph glyph-name="radical" unicode="&#x221a;" horiz-adv-x="483" 
d="M205 498h18l89 -238h4l115 478h62l-179 -747h-24l-194 393l-57 -26l-19 44z" />
    <glyph glyph-name="infinity" unicode="&#x221e;" horiz-adv-x="895" 
d="M530 96l-94 71q-95 -129 -213 -129q-76 0 -129.5 43.5t-53.5 137.5q0 95 55.5 146.5t123.5 51.5q46 0 75.5 -13.5t70.5 -44.5l94 -72q94 130 213 130q76 0 129.5 -43.5t53.5 -137.5q0 -95 -55.5 -146.5t-123.5 -51.5q-46 0 -75.5 13.5t-70.5 44.5zM231 96q85 0 167 100
l-108 82q-46 35 -87 35q-43 0 -67 -28t-24 -78q0 -52 32.5 -81.5t86.5 -29.5zM664 359q-85 0 -167 -100l108 -82q46 -35 87 -35q43 0 67 28t24 78q0 52 -32.5 81.5t-86.5 29.5z" />
    <glyph glyph-name="integral" unicode="&#x222b;" horiz-adv-x="477" 
d="M184 -14v536q0 61 16.5 103t46.5 63t62.5 29.5t74.5 8.5q64 0 98.5 -24t34.5 -71q0 -29 -20 -49.5t-50 -20.5q-32 0 -50.5 19.5t-18.5 49.5q0 39 26 58q-37 0 -48.5 -21.5t-11.5 -79.5v-580q0 -83 -57 -126t-160 -43q-117 0 -117 82q0 31 20 49.5t51 18.5q32 0 47.5 -20
t15.5 -49q0 -26 -14 -46q54 0 54 113z" />
    <glyph glyph-name="approxequal" unicode="&#x2248;" horiz-adv-x="496" 
d="M351 239q-27 0 -100 19t-95 19q-56 0 -101 -37v75q48 40 107 40q29 0 93.5 -17.5t89.5 -17.5q54 0 96 32v-78q-34 -35 -90 -35zM351 112q-28 0 -100.5 18.5t-94.5 18.5q-56 0 -101 -36v74q48 40 107 40q29 0 93.5 -17t89.5 -17q56 0 96 32v-78q-32 -35 -90 -35z" />
    <glyph glyph-name="notequal" unicode="&#x2260;" horiz-adv-x="496" 
d="M441 277h-117l-48 -68h165v-78h-219l-77 -111l-63 44l47 67h-74v78h127l48 68h-175v77h229l72 103l63 -43l-41 -60h63v-77z" />
    <glyph glyph-name="lessequal" unicode="&#x2264;" horiz-adv-x="443" 
d="M361 391l-157 -96l156 -97l-54 -70l-245 166l250 162zM388 28h-333v78h333v-78z" />
    <glyph glyph-name="greaterequal" unicode="&#x2265;" horiz-adv-x="443" 
d="M239 295l-156 96l49 65l250 -162l-245 -166l-53 70zM388 28h-333v78h333v-78z" />
    <glyph glyph-name="triagup" unicode="&#x25b2;" horiz-adv-x="668" 
d="M334 139l-277 -86l-27 19l304 506l304 -506l-27 -19z" />
    <glyph glyph-name="triagrt" unicode="&#x25ba;" horiz-adv-x="595" 
d="M40 17l86 277l-86 277l19 27l506 -304l-506 -304z" />
    <glyph glyph-name="triagdn" unicode="&#x25bc;" horiz-adv-x="668" 
d="M57 548l277 -86l277 86l27 -19l-304 -506l-304 506z" />
    <glyph glyph-name="triaglf" unicode="&#x25c4;" horiz-adv-x="595" 
d="M469 294l86 -277l-19 -27l-506 304l506 304l19 -27z" />
    <glyph glyph-name="lozenge" unicode="&#x25ca;" horiz-adv-x="531" 
d="M511 327l-185 -365h-121l-185 365l185 357h121zM389 325l-122 250l-120 -250l120 -255z" />
    <glyph glyph-name="uni25E2" unicode="&#x25e2;" horiz-adv-x="733" 
d="M342 317l135 256l33 6l143 -573l-573 143l5 32z" />
    <glyph glyph-name="uni25E3" unicode="&#x25e3;" horiz-adv-x="733" 
d="M256 573l135 -256l257 -136l5 -32l-573 -143l143 573z" />
    <glyph glyph-name="uni25E4" unicode="&#x25e4;" horiz-adv-x="733" 
d="M391 268l-135 -256l-33 -6l-143 573l573 -143l-5 -32z" />
    <glyph glyph-name="uni25E5" unicode="&#x25e5;" horiz-adv-x="733" 
d="M477 12l-135 256l-257 136l-5 32l573 143l-143 -573z" />
    <glyph glyph-name="anglebracketleft" unicode="&#x3008;" horiz-adv-x="373" 
d="M267 -141l-207 418l207 422h66l-150 -422l150 -418h-66z" />
    <glyph glyph-name="anglebracketright" unicode="&#x3009;" horiz-adv-x="373" 
d="M313 277l-207 -418h-66l150 418l-150 422h66z" />
    <glyph glyph-name="lcedilla" unicode="&#xe100;" horiz-adv-x="292" 
d="M30 -171l18 25q21 -21 53 -21q39 0 39 33q0 16 -8.5 26.5t-19.5 15t-34 11.5l33 81h-83v28l37 19v521l-40 60v11l174 42h26v-633l52 -19l-13 -29h-108l-18 -40q42 -4 76 -25.5t34 -63.5q0 -46 -33 -67.5t-88 -21.5q-65 0 -97 47z" />
    <glyph glyph-name="uni004500600323" unicode="&#xe101;" horiz-adv-x="542" 
d="M337 267h-80v-194l24 -17h113l102 132l26 -6l-20 -182h-460l-7 32l57 23v478l-57 23l7 32h451v-157l-21 -5l-91 106h-124v-209h79l47 79l22 -4v-208l-21 -4zM341 680l-145 -57l-16 24l98 125q24 32 56 33.5t52 -27.5q19 -30 5.5 -57t-50.5 -41zM204 -123q0 39 24.5 59.5
t61.5 20.5q39 0 63.5 -20.5t24.5 -59.5q0 -38 -24.5 -59t-63.5 -21q-37 0 -61.5 21t-24.5 59z" />
    <glyph glyph-name="uni006500600323" unicode="&#xe102;" horiz-adv-x="468" 
d="M167 -123q0 39 24.5 59.5t61.5 20.5q39 0 63.5 -20.5t24.5 -59.5q0 -38 -24.5 -59t-63.5 -21q-37 0 -61.5 21t-24.5 59zM187 221q5 -134 122 -134q30 0 50.5 8t47.5 29l22 -21q-39 -113 -187 -113q-93 0 -152.5 57t-59.5 163q0 110 67 173t167 63q80 0 127 -43t47 -122
q0 -31 -6 -60h-245zM258 398q-62 0 -70 -128h114q4 18 4 43q0 85 -48 85zM330 558l-127 -74l-21 20l55 132q15 36 48 46t60 -14q28 -26 23.5 -58t-38.5 -52z" />
    <glyph glyph-name="uni004500B40323" unicode="&#xe103;" horiz-adv-x="542" 
d="M337 267h-80v-194l24 -17h113l102 132l26 -6l-20 -182h-460l-7 32l57 23v478l-57 23l7 32h451v-157l-21 -5l-91 106h-124v-209h79l47 79l22 -4v-208l-21 -4zM348 614l-145 57q-37 14 -50.5 41t5.5 57q20 29 52 27.5t56 -33.5l98 -125zM204 -123q0 39 24.5 59.5t61.5 20.5
q39 0 63.5 -20.5t24.5 -59.5q0 -38 -24.5 -59t-63.5 -21q-37 0 -61.5 21t-24.5 59z" />
    <glyph glyph-name="uni006500B40323" unicode="&#xe104;" horiz-adv-x="468" 
d="M167 -123q0 39 24.5 59.5t61.5 20.5q39 0 63.5 -20.5t24.5 -59.5q0 -38 -24.5 -59t-63.5 -21q-37 0 -61.5 21t-24.5 59zM187 221q5 -134 122 -134q30 0 50.5 8t47.5 29l22 -21q-39 -113 -187 -113q-93 0 -152.5 57t-59.5 163q0 110 67 173t167 63q80 0 127 -43t47 -122
q0 -31 -6 -60h-245zM258 398q-62 0 -70 -128h114q4 18 4 43q0 85 -48 85zM296 484l-127 74q-34 20 -38.5 52t23.5 58q27 24 60 14t48 -46l55 -132z" />
    <glyph glyph-name="Gtilde" unicode="&#xe105;" horiz-adv-x="617" 
d="M214 295q0 -251 110 -251q51 0 80 24v164l-54 23l7 32h237l8 -32l-46 -23v-241h-40l-46 52q-70 -53 -156 -53q-57 0 -105.5 17t-88 52t-62.5 96t-23 142q0 154 83 227.5t224 73.5q53 0 125 -19l61 19v-167l-21 -5l-50 52q-23 24 -35.5 35.5t-34.5 23t-45 11.5
q-28 0 -49 -11t-40 -37t-29 -78t-10 -127zM339 650l-62 25q-24 10 -44 10q-50 0 -53 -59l-30 5q-9 25 -9 48q0 46 31 74t79 28q29 0 61 -12l60 -22q35 -13 54 -13q39 0 46 51l30 -4q9 -30 9 -54q0 -44 -26.5 -68.5t-70.5 -24.5q-36 0 -75 16z" />
    <glyph glyph-name="gtilde" unicode="&#xe106;" horiz-adv-x="509" 
d="M180 99h164q165 0 165 -151q0 -46 -22 -80t-60 -53t-83.5 -28t-98.5 -9q-225 0 -225 98q0 77 120 84v3q-48 5 -74 31t-26 69q0 41 27.5 66.5t72.5 35.5q-97 32 -97 125q0 70 53 113t151 43q103 0 164 -31q-6 9 -6 24q0 25 16.5 40.5t42.5 15.5t43 -16.5t17 -44.5
q0 -31 -18 -47t-45 -16q-25 0 -80 22v-11q61 -26 61 -94q0 -67 -58.5 -102.5t-137.5 -35.5q-37 0 -65 7q-31 -9 -31 -32q0 -26 30 -26zM183 -46q-37 -18 -37 -56q0 -75 105 -75q132 0 132 74q0 57 -78 57h-122zM293 298q0 56 -9 79.5t-41 23.5q-31 0 -40 -23.5t-9 -79.5
q0 -55 9 -78.5t40 -23.5q32 0 41 23.5t9 78.5zM280 508l-58 25q-23 10 -42 10q-47 0 -49 -59l-29 5q-8 27 -8 48q0 46 29 74t74 28q29 0 57 -12l57 -22q32 -13 50 -13q38 0 43 51l29 -4q8 -32 8 -54q0 -44 -25 -68.5t-66 -24.5q-34 0 -70 16z" />
    <glyph glyph-name="Gcommaturnedabove" unicode="&#xe107;" horiz-adv-x="617" 
d="M214 295q0 -251 110 -251q51 0 80 24v164l-54 23l7 32h237l8 -32l-46 -23v-241h-40l-46 52q-70 -53 -156 -53q-57 0 -105.5 17t-88 52t-62.5 96t-23 142q0 154 83 227.5t224 73.5q53 0 125 -19l61 19v-167l-21 -5l-50 52q-23 24 -35.5 35.5t-34.5 23t-45 11.5
q-28 0 -49 -11t-40 -37t-29 -78t-10 -127zM292 736h8q3 16 16 23.5t25 7.5q31 0 48 -19.5t17 -47.5q0 -34 -22.5 -54t-56.5 -20q-45 0 -71 28t-26 72q0 58 35.5 87.5t85.5 29.5q31 0 53 -5l5 -25q-117 -7 -117 -77z" />
    <glyph glyph-name="gcommaturnedabove" unicode="&#xe108;" horiz-adv-x="509" 
d="M180 99h164q165 0 165 -151q0 -46 -22 -80t-60 -53t-83.5 -28t-98.5 -9q-225 0 -225 98q0 77 120 84v3q-48 5 -74 31t-26 69q0 41 27.5 66.5t72.5 35.5q-97 32 -97 125q0 70 53 113t151 43q103 0 164 -31q-6 9 -6 24q0 25 16.5 40.5t42.5 15.5t43 -16.5t17 -44.5
q0 -31 -18 -47t-45 -16q-25 0 -80 22v-11q61 -26 61 -94q0 -67 -58.5 -102.5t-137.5 -35.5q-37 0 -65 7q-31 -9 -31 -32q0 -26 30 -26zM183 -46q-37 -18 -37 -56q0 -75 105 -75q132 0 132 74q0 57 -78 57h-122zM293 298q0 56 -9 79.5t-41 23.5q-31 0 -40 -23.5t-9 -79.5
q0 -55 9 -78.5t40 -23.5q32 0 41 23.5t9 78.5zM237 591h8q3 16 16 23.5t25 7.5q31 0 48 -19.5t17 -47.5q0 -34 -22.5 -54t-56.5 -20q-45 0 -71 28t-26 72q0 63 50.5 96.5t123.5 35.5l9 -20q-64 -19 -92.5 -41.5t-28.5 -60.5z" />
    <glyph glyph-name="Hmacronbelow" unicode="&#xe109;" horiz-adv-x="714" 
d="M407 588h265l7 -32l-57 -23v-478l57 -23l-7 -32h-265l-7 32l57 23v212h-200v-212l57 -23l-7 -32h-265l-7 32l57 23v478l-57 23l7 32h265l7 -32l-57 -23v-210h200v210l-57 23zM503 -144h-289v81h289v-81z" />
    <glyph glyph-name="hmacronbelow" unicode="&#xe10a;" horiz-adv-x="579" 
d="M358 47v200q0 44 -18.5 69t-50.5 25q-34 0 -64 -30v-263l51 -19l-13 -29h-235v28l37 19v521l-40 60v11l174 42h26v-324h4q49 89 150 89q60 0 99.5 -38.5t39.5 -125.5v-234l51 -19l-13 -29h-235v28zM436 -144h-289v81h289v-81z" />
    <glyph glyph-name="Jcaron" unicode="&#xe10b;" horiz-adv-x="317" 
d="M180 620h-40l-136 156h152l43 -59l53 59h64zM75 -57v590l-57 23l7 32h265l7 -32l-57 -23v-532q0 -192 -229 -192q-121 0 -121 82q0 38 22 57.5t53 19.5q35 0 53 -21t18 -53q0 -30 -19 -49q32 1 45 22t13 76z" />
    <glyph glyph-name="Kcedilla" unicode="&#xe10d;" horiz-adv-x="662" 
d="M188 -171l18 25q21 -21 53 -21q39 0 39 33q0 16 -8.5 26.5t-19.5 15t-34 11.5l33 81h-227l-7 32l57 23v478l-57 23l7 32h265l7 -32l-57 -23v-212l49 8l165 201l-59 26l5 32h213l5 -32l-73 -17l-135 -161l176 -327l69 -18l-7 -33h-229l-135 274h-44v-219l57 -23l-18 -72
q42 -4 76 -25.5t34 -63.5q0 -46 -33 -67.5t-88 -21.5q-65 0 -97 47z" />
    <glyph glyph-name="kcedilla" unicode="&#xe10e;" horiz-adv-x="562" 
d="M136 -171l18 25q21 -21 53 -21q39 0 39 33q0 16 -8.5 26.5t-19.5 15t-34 11.5l33 81h-189v28l37 19v521l-40 60v11l174 42h26v-437l45 8l119 119l-66 28l6 37h217l8 -34l-60 -15l-106 -105l133 -233l56 -21l-12 -28h-197l-105 196h-38v-148l52 -19l-33 -69
q42 -4 76 -25.5t34 -63.5q0 -46 -33 -67.5t-88 -21.5q-65 0 -97 47z" />
    <glyph glyph-name="Lcedilla" unicode="&#xe10f;" horiz-adv-x="525" 
d="M166 -171l18 25q21 -21 53 -21q39 0 39 33q0 16 -8.5 26.5t-19.5 15t-34 11.5l33 81h-205l-7 32l57 23v478l-57 23l7 32h265l8 -32l-58 -23v-460l25 -17h112l105 151l26 -6l-23 -201h-210l-18 -40q42 -4 76 -25.5t34 -63.5q0 -46 -33 -67.5t-88 -21.5q-65 0 -97 47z" />
    <glyph glyph-name="ocedilla" unicode="&#xe110;" horiz-adv-x="534" 
d="M153 -171l18 25q21 -21 53 -21q39 0 39 33q0 16 -8.5 26.5t-19.5 15t-34 11.5l30 73q-95 9 -148 66.5t-53 159.5q0 112 63.5 170t173.5 58t173.5 -58t63.5 -170q0 -110 -61.5 -168t-168.5 -60l-13 -30q42 -4 76 -25.5t34 -63.5q0 -46 -33 -67.5t-88 -21.5q-65 0 -97 47z
M197 218q0 -96 14.5 -137.5t55.5 -41.5t55.5 41.5t14.5 137.5t-14.5 137.5t-55.5 41.5t-55.5 -41.5t-14.5 -137.5z" />
    <glyph glyph-name="Mmacron" unicode="&#xe111;" horiz-adv-x="853" 
d="M550 338l-124 -338h-88l-131 338q-12 32 -23.5 67.5t-16.5 54.5l-5 20h-4q6 -84 6 -142v-283l77 -23l-7 -32h-192l-7 32l57 23v478l-57 23l7 32h244l111 -292q12 -31 20 -60t10 -43l2 -14h4q8 46 32 116l106 293h240l7 -32l-57 -23v-478l57 -23l-7 -32h-265l-7 32l57 23
v283l6 142h-4q-21 -68 -48 -142zM560 654h-319v81h319v-81z" />
    <glyph glyph-name="mmacron" unicode="&#xe112;" horiz-adv-x="874" 
d="M522 312v-264l52 -19l-13 -29h-228v28l29 17v211q0 84 -63 84q-34 0 -66 -29v-263l52 -19l-13 -29h-236v28l37 16v266l-38 74v11l174 51h23l-3 -89h4q54 89 149 89q104 0 128 -93h4q29 49 65 71t89 22q62 0 103 -35.5t41 -116.5v-246l52 -19l-13 -29h-228v28l29 17v210
q0 85 -63 85q-36 0 -67 -28zM610 507h-289v81h289v-81z" />
    <glyph glyph-name="Mcedilla" unicode="&#xe113;" horiz-adv-x="853" 
d="M299 -171l18 25q21 -21 53 -21q39 0 39 33q0 16 -8.5 26.5t-19.5 15t-34 11.5l33 81h-42l-131 338q-12 32 -23.5 67.5t-16.5 54.5l-5 20h-4q6 -84 6 -142v-283l77 -23l-7 -32h-192l-7 32l57 23v478l-57 23l7 32h244l111 -292q12 -31 20 -60t10 -43l2 -14h4q8 46 32 116
l106 293h240l7 -32l-57 -23v-478l57 -23l-7 -32h-265l-7 32l57 23v283l6 142h-4q-21 -68 -48 -142l-116 -316h1l-5 -11l-4 -11h-1l-18 -40q42 -4 76 -25.5t34 -63.5q0 -46 -33 -67.5t-88 -21.5q-65 0 -97 47z" />
    <glyph glyph-name="mcedilla" unicode="&#xe114;" horiz-adv-x="874" 
d="M350 -171l18 25q21 -21 53 -21q39 0 39 33q0 16 -8.5 26.5t-19.5 15t-34 11.5l33 81h-98v28l29 17v211q0 84 -63 84q-34 0 -66 -29v-263l52 -19l-13 -29h-236v28l37 16v266l-38 74v11l174 51h23l-3 -89h4q54 89 149 89q104 0 128 -93h4q29 49 65 71t89 22q62 0 103 -35.5
t41 -116.5v-246l52 -19l-13 -29h-228v28l29 17v210q0 85 -63 85q-36 0 -67 -28v-264l52 -19l-13 -29h-85l-18 -40q42 -4 76 -25.5t34 -63.5q0 -46 -33 -67.5t-88 -21.5q-65 0 -97 47z" />
    <glyph glyph-name="Ndieresis" unicode="&#xe115;" horiz-adv-x="643" 
d="M164 291v-236l77 -23l-7 -32h-192l-7 32l57 23v478l-57 23l7 32h206l191 -266q20 -27 36 -56t22 -44l6 -16h4q-6 84 -6 159v168l-77 23l7 32h185l7 -32l-57 -23v-533h-93l-247 334q-20 27 -36 56t-22 44l-6 16h-4q6 -84 6 -159zM159 693q0 35 22 54t55 19
q36 0 57.5 -18.5t21.5 -54.5q0 -34 -21.5 -52.5t-57.5 -18.5q-33 0 -55 18.5t-22 52.5zM356 692q0 35 22 54t55 19q36 0 58 -18.5t22 -54.5q0 -34 -22 -52.5t-58 -18.5q-33 0 -55 19t-22 52z" />
    <glyph glyph-name="ndieresis" unicode="&#xe116;" horiz-adv-x="588" 
d="M526 48l52 -19l-13 -29h-236v28l37 20v199q0 47 -19.5 70.5t-50.5 23.5q-33 0 -63 -30v-263l52 -19l-13 -29h-236v28l37 19v263l-38 74v11l172 51h25l-3 -89h4q28 43 64 66t93 23q63 0 99.5 -43.5t36.5 -119.5v-235zM127 566q0 35 22 54t55 19q36 0 57.5 -18.5
t21.5 -54.5q0 -34 -21.5 -52.5t-57.5 -18.5q-33 0 -55 18.5t-22 52.5zM324 565q0 35 22 54t55 19q36 0 58 -18.5t22 -54.5q0 -34 -22 -52.5t-58 -18.5q-33 0 -55 19t-22 52z" />
    <glyph glyph-name="Nmacron" unicode="&#xe117;" horiz-adv-x="643" 
d="M164 291v-236l77 -23l-7 -32h-192l-7 32l57 23v478l-57 23l7 32h206l191 -266q20 -27 36 -56t22 -44l6 -16h4q-6 84 -6 159v168l-77 23l7 32h185l7 -32l-57 -23v-533h-93l-247 334q-20 27 -36 56t-22 44l-6 16h-4q6 -84 6 -159zM495 654h-319v81h319v-81z" />
    </font>
</defs>
</svg>
