<?xml version="1.0" encoding="utf-8"?>
<!-- Generator: Adobe Illustrator 22.0.1, SVG Export Plug-In . SVG Version: 6.00 Build 0)  -->
<svg version="1.1" id="Layer_1" xmlns="http://www.w3.org/2000/svg" xmlns:xlink="http://www.w3.org/1999/xlink" x="0px" y="0px"
	 viewBox="0 0 595.3 841.9" style="enable-background:new 0 0 595.3 841.9;" xml:space="preserve">
<style type="text/css">
	.st0{fill:#EEC116;}
	.st1{fill:#FFFFFF;}
</style>
<g>
	<path class="st0" d="M250.7,480.1h-17.1l-17.7-52.6v52.6h-16.7v-74.9h27l16.6,50.7l16.6-50.7h26.5v74.9h-17.4v-52.6L250.7,480.1z"
		/>
	<path class="st0" d="M342.5,462.3h-23.6l-6.2,17.9H295l26.2-74.9h19l27.7,74.9h-19.1L342.5,462.3z M324.1,447.1h13.2l-6.6-18.9
		L324.1,447.1z"/>
	<path class="st0" d="M395.2,434.6l20.4-29.3h20.9l-26.3,35.8l26.2,39.1h-21.1l-20.1-30.6v30.6h-18.1v-74.9h18.1V434.6z"/>
	<path class="st0" d="M445.7,480.1v-74.9h35.5v16.9h-17.4v11.6h16.9v16.7h-16.9v12.9h17.7v16.9H445.7z"/>
</g>
<g>
	<path class="st1" d="M243.6,337.7l-13,47.1H210l-20.7-74.9h19.8l12.2,51l13.1-51h19.4l13.1,51l12.2-51h18.7l-20.1,74.9h-21.2
		L243.6,337.7z"/>
	<path class="st1" d="M342.6,366.9H319l-6.2,17.9h-17.7l26.2-74.9h19l27.7,74.9h-19.1L342.6,366.9z M324.2,351.8h13.2l-6.6-18.9
		L324.2,351.8z"/>
</g>
<g>
	<path class="st1" d="M158.9,288.9v-74.9h18.1v58H194v16.9H158.9z"/>
	<path class="st1" d="M254.7,271.1h-23.6l-6.2,17.9h-17.7l26.2-74.9h19l27.7,74.9H261L254.7,271.1z M236.3,255.9h13.2l-6.6-18.9
		L236.3,255.9z"/>
</g>
<g>
	<path class="st1" d="M81,309h58v18.1H81v17.5H64.1v-52.1H81V309z"/>
	<path class="st1" d="M121.1,240.6v23.6l17.9,6.2v17.7l-74.9-26.2v-19l74.9-27.7v19.1L121.1,240.6z M106,259v-13.2l-18.9,6.6
		L106,259z"/>
</g>
<circle class="st1" cx="101.5" cy="374" r="10.8"/>
</svg>
